<svg id="svg" version="1.1" xmlns="http://www.w3.org/2000/svg" xmlns:xlink="http://www.w3.org/1999/xlink" width="400" height="298.4" viewBox="0, 0, 400,298.4"><g id="svgg"><path id="path0" d="M179.437 42.216 C 178.361 42.425,177.441 42.985,176.548 43.974 C 175.148 45.523,175.177 45.215,175.242 57.714 L 175.300 68.929 175.902 70.106 C 176.275 70.836,176.830 71.531,177.361 71.936 C 179.085 73.251,178.135 73.200,200.808 73.200 L 221.343 73.200 222.823 74.656 C 224.903 76.702,228.113 78.535,229.896 78.694 C 230.228 78.724,230.928 78.815,231.450 78.897 C 231.972 78.979,232.398 78.968,232.396 78.873 C 232.395 78.778,232.095 77.473,231.732 75.973 L 231.071 73.245 233.585 73.161 C 237.180 73.041,238.944 72.038,239.875 69.588 C 240.423 68.146,240.278 46.459,239.713 45.319 C 238.534 42.943,237.197 42.368,232.400 42.175 C 227.339 41.970,180.511 42.007,179.437 42.216 M334.495 55.790 C 335.264 57.277,334.488 59.189,332.633 60.379 C 329.638 62.301,326.118 62.117,321.357 59.789 C 317.070 57.692,315.962 58.662,314.977 65.377 C 314.741 66.985,314.492 68.360,314.424 68.434 C 314.017 68.873,310.076 68.644,308.824 68.109 C 305.556 66.711,301.775 67.104,298.734 69.156 C 298.258 69.477,297.201 69.941,296.384 70.186 C 291.460 71.666,289.691 75.549,291.475 80.958 C 291.776 81.870,291.995 82.806,291.961 83.039 C 291.875 83.634,292.351 83.727,292.607 83.166 C 292.724 82.910,293.153 82.477,293.560 82.204 C 294.360 81.666,293.911 81.312,293.029 81.785 C 292.528 82.052,292.910 80.173,293.713 78.418 L 294.207 77.336 296.011 79.257 C 299.144 82.596,304.835 86.000,307.283 86.000 C 307.318 86.000,307.501 85.593,307.691 85.096 C 308.295 83.515,309.875 83.106,311.006 84.236 C 311.923 85.154,311.825 86.870,310.765 88.438 C 309.853 89.788,309.030 93.400,309.635 93.400 C 310.398 93.400,313.034 91.777,314.422 90.453 C 317.506 87.510,318.578 83.613,317.319 79.919 L 316.848 78.537 317.674 76.819 C 318.421 75.261,318.499 74.954,318.499 73.551 C 318.500 72.699,318.542 72.001,318.594 72.001 C 318.646 72.000,320.041 72.189,321.694 72.420 C 327.499 73.232,331.324 72.770,334.112 70.918 C 340.187 66.884,341.256 57.356,335.841 55.511 C 334.387 55.015,334.123 55.070,334.495 55.790 M199.800 75.509 L 199.800 76.000 204.900 76.000 L 210.000 76.000 210.000 75.502 L 210.000 75.004 204.900 75.011 L 199.800 75.018 199.800 75.509 M299.250 84.016 C 299.443 84.128,299.600 84.422,299.600 84.670 C 299.600 85.531,300.465 85.939,300.703 85.190 C 300.914 84.526,300.306 83.799,299.545 83.806 C 299.010 83.811,298.960 83.847,299.250 84.016 M293.650 85.076 C 293.843 85.224,294.000 85.530,294.000 85.758 C 294.000 86.368,294.567 86.876,294.921 86.582 C 295.640 85.986,295.063 84.979,293.939 84.870 C 293.369 84.815,293.338 84.837,293.650 85.076 M116.350 85.743 C 115.870 86.276,115.911 87.000,116.500 88.400 C 116.775 89.053,117.000 89.627,117.000 89.675 C 117.000 89.723,116.503 90.042,115.896 90.385 C 115.290 90.727,114.433 91.332,113.993 91.730 L 113.194 92.452 112.346 92.128 C 110.831 91.550,108.981 90.329,107.542 88.957 C 104.692 86.242,99.507 87.144,98.383 90.551 C 98.213 91.067,98.081 91.194,97.830 91.088 C 96.861 90.677,95.495 90.781,94.300 91.357 L 93.100 91.935 94.348 92.077 C 97.106 92.392,97.271 92.669,95.020 93.207 C 91.488 94.051,90.773 95.171,92.398 97.319 C 92.871 97.944,92.990 98.304,92.994 99.124 C 93.008 101.659,93.978 105.546,95.259 108.200 C 98.041 113.962,103.028 114.554,106.487 109.532 L 107.218 108.471 106.687 107.448 C 105.053 104.299,106.764 100.798,109.055 102.600 C 109.731 103.132,109.699 103.155,110.000 101.900 C 110.303 100.635,110.196 100.685,111.525 101.190 C 112.089 101.404,113.004 101.640,113.558 101.713 C 114.309 101.813,114.591 101.943,114.664 102.223 C 114.718 102.431,114.906 102.600,115.081 102.600 C 115.505 102.600,115.487 102.271,115.050 102.016 C 114.766 101.850,114.837 101.811,115.429 101.806 C 116.438 101.798,118.551 101.112,119.439 100.505 L 120.179 100.000 150.375 100.000 C 183.997 100.000,181.200 99.875,181.200 101.379 C 181.200 102.229,169.066 276.278,168.923 277.478 C 168.754 278.900,170.720 278.792,144.672 278.804 L 121.051 278.815 120.790 281.007 L 120.529 283.200 117.537 283.200 L 114.545 283.200 114.683 281.850 C 114.759 281.108,114.874 280.118,114.938 279.650 L 115.054 278.800 106.427 278.800 L 97.800 278.800 97.766 279.450 C 97.708 280.555,97.810 281.881,97.984 282.300 C 100.272 287.796,102.586 289.196,109.384 289.199 C 111.641 289.200,112.339 289.264,112.594 289.494 C 113.117 289.968,132.946 290.013,133.664 289.542 C 134.119 289.244,135.797 289.207,151.433 289.156 L 168.700 289.100 169.900 288.619 C 176.234 286.079,177.176 283.107,178.115 262.700 C 178.277 259.189,187.965 120.502,188.196 118.400 C 188.648 114.278,189.632 98.801,189.545 97.176 C 189.348 93.475,186.651 90.287,182.885 89.304 C 181.839 89.031,178.006 88.995,150.216 89.004 C 124.762 89.013,118.701 88.965,118.569 88.757 C 118.174 88.134,118.388 86.972,119.005 86.395 C 119.737 85.712,119.593 85.585,117.929 85.453 C 116.889 85.370,116.646 85.415,116.350 85.743 M126.600 86.600 C 126.600 86.989,126.733 87.000,131.300 87.000 C 135.867 87.000,136.000 86.989,136.000 86.600 C 136.000 86.211,135.867 86.200,131.300 86.200 C 126.733 86.200,126.600 86.211,126.600 86.600 M141.400 86.600 C 141.400 86.962,141.533 87.000,142.800 87.000 C 144.067 87.000,144.200 86.962,144.200 86.600 C 144.200 86.238,144.067 86.200,142.800 86.200 C 141.533 86.200,141.400 86.238,141.400 86.600 M201.600 88.933 C 195.762 89.639,193.359 93.623,193.960 101.600 C 194.097 103.415,196.730 141.125,199.811 185.400 C 206.775 285.491,206.342 279.470,206.685 280.902 C 207.661 284.974,210.466 287.841,214.505 288.893 C 216.224 289.341,276.346 289.353,278.456 288.906 C 282.524 288.044,285.600 284.275,285.600 280.153 C 285.600 278.386,284.647 264.757,284.401 263.000 C 284.285 262.175,283.471 251.150,282.593 238.500 C 281.714 225.850,280.724 211.675,280.392 207.000 C 280.060 202.325,279.703 196.565,279.599 194.200 C 279.494 191.835,279.271 188.685,279.104 187.200 C 278.936 185.715,278.216 175.995,277.505 165.600 C 276.793 155.205,276.120 145.440,276.010 143.900 C 275.899 142.360,275.136 131.470,274.313 119.700 C 273.491 107.930,272.714 97.805,272.588 97.200 C 271.788 93.368,268.153 89.872,264.300 89.228 C 263.130 89.032,203.114 88.750,201.600 88.933 M301.751 89.701 C 301.293 90.229,300.671 90.683,300.151 90.867 C 299.480 91.105,299.406 91.172,299.800 91.183 C 300.422 91.202,301.629 90.480,302.201 89.748 C 302.927 88.819,302.549 88.779,301.751 89.701 M296.154 103.743 C 291.175 104.499,288.736 104.995,288.361 105.326 C 287.593 106.005,286.410 108.900,285.595 112.096 C 284.522 116.302,284.433 115.898,286.800 117.600 C 287.900 118.391,288.801 119.097,288.802 119.169 C 288.817 120.347,290.226 130.956,291.415 138.850 C 291.594 140.039,291.594 140.467,291.413 140.685 C 291.252 140.878,291.221 141.359,291.314 142.185 L 291.452 143.400 292.443 143.400 L 293.434 143.400 293.292 141.884 L 293.150 140.369 293.717 140.434 C 294.365 140.509,294.548 140.939,294.580 142.450 L 294.600 143.400 299.097 143.400 L 303.595 143.400 303.467 141.884 L 303.339 140.368 303.919 140.434 C 304.481 140.498,304.506 140.546,304.678 141.950 L 304.855 143.400 309.341 143.400 C 313.518 143.400,313.820 143.376,313.726 143.050 C 313.671 142.858,313.597 142.205,313.563 141.600 L 313.500 140.500 314.097 140.500 C 314.477 140.500,314.709 140.609,314.735 140.800 C 314.757 140.965,314.832 141.618,314.902 142.250 L 315.029 143.400 316.628 143.400 C 318.056 143.400,318.216 143.363,318.126 143.050 C 318.071 142.858,317.912 142.295,317.773 141.800 C 317.634 141.305,317.403 140.828,317.260 140.740 C 317.070 140.623,317.000 139.937,317.000 138.196 L 317.000 135.813 315.850 134.966 C 313.265 133.062,310.047 130.402,309.714 129.894 C 309.519 129.596,308.466 128.380,307.375 127.192 L 305.390 125.031 306.627 122.766 C 307.307 121.519,307.886 120.471,307.912 120.436 C 307.939 120.401,308.946 121.028,310.150 121.830 L 312.338 123.287 313.330 126.293 L 314.321 129.300 315.510 129.944 C 317.156 130.836,317.122 130.858,317.269 128.750 C 317.340 127.733,317.592 125.477,317.829 123.737 L 318.260 120.574 322.630 117.451 C 325.034 115.734,327.000 114.227,327.000 114.103 C 327.000 113.100,324.081 107.176,322.957 105.899 C 321.938 104.741,321.275 104.561,314.774 103.686 L 313.848 103.562 313.836 104.403 C 313.809 106.351,311.207 108.563,307.145 110.090 C 305.357 110.763,305.514 110.835,304.554 108.900 L 303.711 107.200 302.872 107.200 C 302.050 107.200,302.011 107.232,300.910 108.803 C 299.641 110.614,299.789 110.591,297.947 109.254 C 295.856 107.735,295.508 105.974,296.919 104.050 C 297.271 103.569,297.279 103.572,296.154 103.743 M114.827 105.200 C 114.809 105.365,114.739 105.725,114.670 106.000 C 114.574 106.386,114.601 106.449,114.788 106.274 C 114.922 106.150,114.993 105.790,114.946 105.474 C 114.898 105.158,114.845 105.035,114.827 105.200 M194.861 155.450 C 194.925 156.028,195.137 158.908,195.332 161.850 L 195.687 167.200 196.204 167.200 C 196.664 167.200,196.714 167.130,196.663 166.550 C 196.631 166.192,196.468 163.785,196.300 161.200 C 195.848 154.244,195.872 154.400,195.258 154.400 C 194.758 154.400,194.748 154.426,194.861 155.450 M87.026 175.249 C 86.572 176.684,86.216 178.362,86.123 179.500 C 86.070 180.160,85.921 181.816,85.793 183.179 C 85.526 186.019,85.649 193.809,85.982 195.200 C 86.101 195.695,86.381 197.315,86.604 198.800 C 87.641 205.700,89.366 211.866,93.403 223.100 C 94.563 226.327,94.227 227.872,91.142 233.500 C 90.117 235.370,86.188 242.570,82.411 249.500 C 78.634 256.430,75.438 262.190,75.310 262.300 C 75.058 262.515,70.200 271.433,70.200 271.680 C 70.200 271.762,70.061 271.968,69.891 272.137 C 69.306 272.722,69.744 272.890,74.508 273.908 L 79.287 274.929 80.433 273.527 C 81.062 272.756,81.532 272.052,81.477 271.963 C 81.422 271.873,81.494 271.798,81.638 271.795 C 81.896 271.789,89.300 262.681,89.300 262.369 C 89.300 262.281,90.521 260.654,92.013 258.754 C 97.841 251.336,104.870 241.951,107.335 238.300 C 110.922 232.986,111.947 226.653,110.507 218.700 C 110.228 217.160,109.830 214.969,109.622 213.832 C 109.414 212.694,109.309 211.839,109.390 211.932 C 109.470 212.024,110.395 213.368,111.445 214.917 C 112.496 216.466,114.086 218.716,114.979 219.917 C 117.200 222.901,117.480 223.666,117.467 226.700 C 117.457 229.099,117.386 229.559,116.115 235.424 C 115.127 239.983,114.270 247.736,113.797 256.400 C 113.575 260.468,113.287 273.392,113.418 273.413 C 114.729 273.629,123.321 274.724,123.371 274.683 C 123.411 274.651,124.143 271.176,124.999 266.962 C 127.847 252.943,130.364 242.532,133.135 233.317 C 135.689 224.821,135.292 221.246,130.310 207.922 C 126.347 197.323,121.736 183.980,119.278 176.000 L 118.877 174.700 103.055 174.649 L 87.232 174.598 87.026 175.249 M355.640 251.589 C 354.937 252.540,351.992 255.870,351.532 256.235 C 351.122 256.560,351.120 256.580,351.477 256.975 C 351.834 257.369,351.833 257.400,351.422 258.064 C 351.190 258.440,351.000 259.070,351.000 259.464 C 351.000 260.706,350.584 262.243,349.779 263.978 C 348.904 265.861,348.850 266.203,349.350 266.653 C 350.671 267.844,351.624 267.282,354.745 263.471 C 356.174 261.727,358.350 259.223,359.581 257.907 C 362.546 254.738,362.555 254.866,359.208 252.650 C 356.424 250.807,356.255 250.757,355.640 251.589 M296.159 281.400 C 296.109 281.820,295.970 281.917,295.290 282.008 C 294.844 282.068,294.192 282.321,293.842 282.570 C 292.805 283.309,290.421 284.330,288.600 284.815 C 286.203 285.454,285.787 286.065,286.883 287.339 L 287.366 287.900 295.800 287.900 C 305.676 287.900,304.777 288.168,304.416 285.334 C 304.274 284.215,304.116 282.850,304.066 282.300 C 303.940 280.919,304.065 280.961,299.927 280.929 L 296.217 280.900 296.159 281.400 M123.085 281.514 C 123.317 281.746,123.347 281.925,123.200 282.201 C 122.898 282.764,122.935 282.800,123.806 282.800 C 124.368 282.800,124.651 282.899,124.738 283.127 C 125.047 283.932,123.693 284.587,122.774 284.077 C 122.318 283.824,122.330 283.814,123.100 283.804 C 124.030 283.792,124.584 283.537,124.198 283.299 C 124.063 283.215,123.468 283.264,122.875 283.406 C 121.535 283.727,121.379 283.591,122.176 282.794 C 122.873 282.096,122.976 281.738,122.450 281.835 C 122.258 281.871,121.932 282.245,121.726 282.666 C 121.494 283.140,121.281 283.361,121.165 283.245 C 120.903 282.983,121.557 281.684,122.079 281.431 C 122.658 281.150,122.727 281.156,123.085 281.514 M66.096 283.950 C 65.937 284.935,65.168 288.642,65.069 288.906 C 64.749 289.756,65.116 289.797,73.301 289.832 C 81.759 289.869,81.747 289.870,82.317 288.766 C 82.849 287.737,82.513 287.347,80.732 286.927 C 78.759 286.462,76.376 285.297,75.012 284.130 L 73.924 283.200 70.071 283.200 L 66.218 283.200 66.096 283.950 " stroke="none" fill="#134894" fill-rule="evenodd"></path><path id="path1" d="M33.707 0.250 C 32.548 0.557,30.942 2.225,30.636 3.439 C 30.294 4.799,30.294 221.801,30.636 223.161 C 30.966 224.470,32.536 226.036,33.851 226.367 L 34.800 226.606 34.800 242.403 L 34.800 258.200 36.200 258.200 L 37.600 258.200 37.600 260.100 L 37.600 262.000 18.800 262.000 C 6.367 262.000,0.000 262.068,0.000 262.201 C 0.000 262.334,12.574 262.384,37.619 262.351 L 75.237 262.300 78.933 255.500 C 80.966 251.760,84.741 244.854,87.322 240.154 C 94.953 226.256,94.778 226.933,92.365 220.594 C 89.408 212.825,87.205 204.482,86.213 197.300 L 85.882 194.900 82.715 194.800 L 79.548 194.700 80.724 194.430 C 82.027 194.132,84.675 192.975,85.253 192.452 C 85.593 192.145,85.613 191.889,85.493 189.408 C 85.375 186.965,85.569 182.862,85.921 180.350 C 86.052 179.418,86.044 179.400,85.514 179.400 L 84.973 179.400 85.423 178.768 C 86.185 177.697,86.158 176.414,85.321 174.006 C 84.356 171.227,84.406 170.381,85.600 169.300 C 87.163 167.886,86.986 166.253,84.922 163.050 C 82.598 159.442,82.619 158.652,85.106 155.978 C 87.801 153.081,87.498 149.898,84.226 146.739 C 82.527 145.099,82.730 145.089,81.044 146.894 C 77.937 150.221,75.655 154.488,74.277 159.549 L 74.100 160.198 73.000 158.779 C 70.108 155.046,63.080 149.890,62.296 150.927 C 59.093 155.162,59.712 159.339,63.900 161.755 C 66.790 163.422,66.976 163.971,66.000 167.967 C 65.009 172.025,65.207 173.146,67.100 174.196 C 68.641 175.050,69.000 175.718,69.000 177.730 L 69.000 179.400 64.591 179.400 L 60.182 179.400 60.288 180.050 C 60.710 182.621,60.865 183.322,61.291 184.575 C 63.052 189.750,66.480 193.098,71.374 194.418 C 72.674 194.769,72.327 194.776,53.751 194.788 L 34.802 194.800 34.751 210.481 L 34.700 226.163 33.912 225.892 C 32.438 225.385,31.399 224.281,30.999 222.796 C 30.866 222.302,30.816 185.300,30.849 112.876 L 30.900 3.700 31.331 2.900 C 31.829 1.973,32.417 1.398,33.400 0.873 C 34.080 0.511,36.343 0.500,112.400 0.500 L 190.700 0.500 191.654 1.061 C 192.823 1.748,193.615 2.895,193.750 4.096 C 193.871 5.165,194.200 5.309,194.200 4.294 C 194.200 2.822,193.225 1.355,191.700 0.532 L 190.900 0.100 112.700 0.070 C 58.652 0.050,34.255 0.105,33.707 0.250 M206.999 0.186 C 204.958 0.809,203.600 2.491,203.600 4.394 C 203.600 5.536,203.930 5.396,204.045 4.205 C 204.169 2.910,204.925 1.778,206.146 1.061 L 207.100 0.500 285.400 0.500 C 361.457 0.500,363.720 0.511,364.400 0.873 C 365.383 1.398,365.971 1.973,366.469 2.900 L 366.900 3.700 366.900 113.300 L 366.900 222.900 366.469 223.700 C 365.140 226.171,365.622 226.091,351.650 226.156 L 339.600 226.212 339.600 218.906 L 339.600 211.600 332.881 211.600 L 326.162 211.600 326.809 212.750 C 328.776 216.244,332.459 221.675,336.822 227.515 L 339.500 231.100 339.557 228.850 L 339.613 226.600 351.318 226.600 C 365.352 226.600,365.436 226.586,366.857 223.929 L 367.300 223.100 367.300 113.300 L 367.300 3.500 366.868 2.700 C 366.363 1.764,365.580 0.995,364.600 0.473 C 363.861 0.079,208.276 -0.203,206.999 0.186 M240.474 14.018 C 239.732 14.233,238.400 15.633,238.400 16.198 C 238.400 16.585,238.231 16.596,231.550 16.647 L 224.700 16.700 224.700 17.300 L 224.700 17.900 227.341 17.956 L 229.983 18.011 230.041 19.456 L 230.100 20.900 230.791 20.966 C 231.713 21.053,232.000 20.625,232.000 19.162 L 232.000 18.000 233.100 18.000 L 234.200 18.000 234.200 21.300 L 234.200 24.600 232.100 24.600 L 230.000 24.600 230.000 33.276 L 230.000 41.951 233.062 42.034 C 237.238 42.146,238.509 42.752,239.860 45.277 C 240.539 46.546,240.658 67.895,239.996 69.665 C 239.054 72.182,237.188 73.200,233.513 73.200 C 231.378 73.200,231.182 73.231,231.277 73.550 C 231.547 74.455,232.600 78.804,232.600 79.014 C 232.600 79.242,231.707 79.182,230.450 78.869 L 230.000 78.757 230.000 83.770 L 230.000 88.783 247.150 88.842 L 264.300 88.900 265.720 89.420 C 269.291 90.726,271.908 93.585,272.679 97.021 C 272.842 97.745,273.595 107.408,274.416 119.300 C 275.214 130.850,275.889 140.331,275.918 140.368 C 276.136 140.656,280.811 136.994,281.508 135.988 C 282.707 134.258,284.715 127.176,285.787 120.900 L 286.368 117.500 285.856 117.100 C 284.415 115.974,284.504 116.376,285.104 113.695 C 286.412 107.851,287.658 105.268,289.390 104.803 C 289.781 104.699,292.215 104.294,294.800 103.903 C 297.385 103.512,299.782 103.147,300.126 103.092 C 301.930 102.801,303.068 101.078,302.961 98.801 L 302.900 97.515 301.300 97.477 C 296.214 97.354,293.094 93.117,292.626 85.700 C 292.526 84.114,292.438 83.699,292.200 83.697 C 292.006 83.694,291.911 83.518,291.932 83.197 C 291.950 82.923,291.751 82.065,291.490 81.289 C 289.505 75.389,291.383 71.318,296.710 69.977 C 297.253 69.840,298.239 69.383,298.899 68.962 C 302.004 66.982,305.885 66.656,309.100 68.105 C 309.742 68.395,314.396 68.716,314.400 68.471 C 314.400 68.455,314.622 67.001,314.894 65.239 C 315.955 58.361,317.060 57.520,321.867 59.934 C 329.039 63.536,336.854 60.473,334.047 55.160 C 333.942 54.961,335.379 55.205,336.150 55.517 C 341.711 57.767,339.770 68.320,333.200 71.555 C 330.375 72.946,326.494 73.279,321.744 72.537 C 318.591 72.044,318.683 72.027,318.767 73.084 C 318.853 74.160,318.368 75.916,317.570 77.420 L 316.976 78.541 317.426 79.820 C 319.230 84.953,315.889 91.262,310.327 93.224 C 309.262 93.600,309.150 94.023,309.247 97.300 C 309.402 102.503,309.829 103.096,313.711 103.504 C 317.359 103.887,321.354 104.566,322.036 104.919 C 323.136 105.487,324.977 108.566,326.490 112.366 C 327.296 114.390,327.302 114.336,326.182 114.993 C 325.900 115.158,325.966 115.490,326.748 117.840 C 329.594 126.394,331.096 135.637,330.005 137.889 C 328.505 140.989,324.747 140.695,318.904 137.023 L 316.938 135.787 317.061 138.089 C 317.138 139.514,317.292 140.564,317.465 140.845 C 317.979 141.677,318.282 143.160,318.007 143.492 C 317.812 143.727,317.847 144.039,318.179 145.043 C 319.759 149.811,320.156 154.449,320.394 170.900 C 320.493 177.830,320.639 184.333,320.716 185.350 L 320.857 187.200 331.029 187.200 L 341.200 187.200 341.200 125.600 L 341.200 64.000 343.400 64.000 L 345.600 64.000 345.600 42.300 L 345.600 20.600 346.570 20.600 C 350.164 20.600,351.074 15.378,347.705 14.091 C 345.979 13.432,344.031 14.179,343.311 15.775 L 342.939 16.600 293.991 16.600 L 245.043 16.600 244.926 16.132 C 244.510 14.473,242.384 13.464,240.474 14.018 M203.733 36.133 C 203.512 36.355,203.576 42.000,203.800 42.000 C 203.924 42.000,204.000 40.867,204.000 39.000 C 204.000 37.350,203.970 36.000,203.933 36.000 C 203.897 36.000,203.807 36.060,203.733 36.133 M193.800 39.100 C 193.800 40.900,193.876 42.000,194.000 42.000 C 194.124 42.000,194.200 40.900,194.200 39.100 C 194.200 37.300,194.124 36.200,194.000 36.200 C 193.876 36.200,193.800 37.300,193.800 39.100 M92.200 72.300 C 92.200 84.235,92.223 94.000,92.250 94.000 C 92.278 94.000,92.750 93.830,93.300 93.622 C 93.850 93.415,94.834 93.135,95.486 93.001 C 96.992 92.691,96.625 92.416,94.488 92.255 C 92.772 92.125,92.764 91.923,94.447 91.199 C 95.557 90.721,97.083 90.616,97.746 90.971 C 98.104 91.163,98.166 91.120,98.268 90.611 C 98.562 89.140,101.111 87.461,103.359 87.257 C 105.359 87.076,105.783 87.246,107.733 89.015 C 108.965 90.132,110.037 90.888,111.275 91.511 L 113.050 92.405 113.888 91.633 C 114.348 91.208,115.170 90.606,115.713 90.295 C 116.256 89.983,116.735 89.703,116.777 89.671 C 116.819 89.639,116.656 89.084,116.414 88.438 C 115.367 85.639,116.471 84.520,119.239 85.576 L 119.778 85.782 119.089 86.471 C 118.410 87.150,118.268 87.694,118.570 88.460 C 118.706 88.804,120.034 88.819,149.517 88.805 C 186.124 88.788,184.065 88.633,187.050 91.618 L 188.200 92.768 188.200 82.984 L 188.200 73.200 183.739 73.200 C 178.698 73.200,177.961 73.020,176.583 71.450 C 175.177 69.849,175.209 70.120,175.204 59.850 L 175.200 50.600 133.700 50.600 L 92.200 50.600 92.200 72.300 M47.400 99.100 L 47.400 129.400 61.900 129.400 L 76.400 129.400 76.400 99.100 L 76.400 68.800 61.900 68.800 L 47.400 68.800 47.400 99.100 M193.814 84.550 C 193.822 91.070,193.901 95.730,194.000 95.500 C 194.250 94.917,194.250 73.200,194.000 73.200 C 193.869 73.200,193.805 77.107,193.814 84.550 M203.600 74.100 C 203.600 74.595,203.690 75.000,203.800 75.000 C 203.910 75.000,204.000 74.595,204.000 74.100 C 204.000 73.605,203.910 73.200,203.800 73.200 C 203.690 73.200,203.600 73.605,203.600 74.100 M203.600 82.400 C 203.600 86.533,203.671 88.800,203.800 88.800 C 203.929 88.800,204.000 86.533,204.000 82.400 C 204.000 78.267,203.929 76.000,203.800 76.000 C 203.671 76.000,203.600 78.267,203.600 82.400 M136.164 86.550 L 136.228 87.000 131.414 87.000 L 126.600 87.000 126.600 86.496 L 126.600 85.993 131.350 86.046 L 136.100 86.100 136.164 86.550 M144.400 86.500 C 144.400 86.992,144.373 87.000,142.800 87.000 C 141.224 87.000,140.748 86.719,141.333 86.133 C 141.776 85.691,144.400 86.005,144.400 86.500 M92.152 109.817 L 92.100 122.281 89.695 122.611 C 79.312 124.032,78.283 127.941,84.251 143.288 L 85.258 145.876 86.179 140.451 C 86.685 137.468,87.155 134.974,87.221 134.909 C 87.493 134.644,88.262 147.157,87.993 147.465 C 87.914 147.556,87.937 148.006,88.045 148.465 C 88.282 149.481,88.094 158.938,87.690 166.300 C 87.533 169.160,87.404 172.153,87.402 172.950 L 87.400 174.400 103.169 174.400 L 118.938 174.400 119.472 169.950 C 120.170 164.141,120.523 160.656,120.829 156.547 L 121.080 153.193 119.447 150.809 L 117.814 148.424 120.857 146.834 C 122.531 145.959,125.458 144.465,127.361 143.515 C 130.547 141.924,130.812 141.751,130.684 141.343 C 129.915 138.882,126.445 131.940,124.500 128.970 C 122.058 125.243,120.275 123.961,116.350 123.111 C 115.303 122.885,116.031 120.463,117.513 119.241 C 119.101 117.933,117.698 118.000,143.386 118.002 L 166.700 118.004 167.723 118.480 C 168.920 119.038,169.685 119.949,170.007 121.204 C 170.311 122.384,165.595 190.346,165.133 191.453 C 164.733 192.408,163.679 193.548,162.719 194.062 L 161.900 194.500 144.071 194.554 C 129.882 194.597,126.199 194.661,126.030 194.864 C 125.821 195.116,126.610 197.486,129.520 205.348 L 130.500 207.996 145.300 207.999 C 161.402 208.003,161.138 207.985,162.445 209.163 C 164.111 210.666,164.095 209.827,162.799 228.214 C 161.834 241.906,161.780 242.452,161.306 243.388 C 160.308 245.357,158.597 246.200,155.599 246.200 L 153.871 246.200 154.299 248.550 C 154.793 251.263,154.825 251.210,152.942 250.807 C 151.020 250.396,148.748 249.127,147.198 247.598 L 145.780 246.200 137.798 246.200 L 129.815 246.200 129.615 246.950 C 128.556 250.913,123.600 273.793,123.600 274.719 C 123.600 274.763,123.803 274.801,124.050 274.803 C 124.872 274.809,124.970 275.009,124.782 276.300 C 124.686 276.960,124.566 277.793,124.516 278.150 L 124.425 278.800 146.000 278.800 C 168.307 278.800,168.502 278.793,168.694 277.957 C 168.831 277.359,181.002 103.017,181.001 101.661 C 180.999 99.834,184.062 100.000,150.262 100.000 L 120.414 100.000 119.457 100.607 C 118.416 101.267,116.856 101.800,115.964 101.800 C 115.496 101.800,115.400 101.885,115.400 102.300 C 115.400 102.611,115.287 102.800,115.100 102.800 C 114.749 102.800,114.659 104.690,115.000 104.900 C 115.286 105.077,115.247 105.843,114.928 106.305 C 114.376 107.107,114.363 108.081,114.886 109.521 C 115.434 111.029,115.373 111.192,114.264 111.197 C 113.672 111.200,113.579 111.302,112.918 112.676 C 111.674 115.263,109.086 117.143,106.482 117.352 C 105.130 117.460,105.165 117.395,105.628 118.929 C 105.784 119.447,105.949 119.582,106.559 119.689 C 108.497 120.030,110.400 121.154,110.400 121.957 C 110.400 122.036,106.822 122.088,102.450 122.074 L 94.500 122.048 94.500 120.741 C 94.500 119.139,94.400 119.231,96.207 119.159 L 97.700 119.100 97.928 117.800 C 98.054 117.085,98.167 115.504,98.178 114.288 L 98.200 112.075 97.585 111.620 C 95.431 110.028,93.317 104.544,92.896 99.458 C 92.812 98.445,92.653 97.727,92.481 97.585 C 92.244 97.388,92.195 99.196,92.152 109.817 M193.781 162.215 L 193.700 223.329 193.154 224.154 C 192.391 225.307,191.153 225.982,189.523 226.134 L 188.200 226.258 188.168 173.379 C 188.150 144.296,188.105 120.770,188.066 121.100 C 188.028 121.430,187.009 135.875,185.801 153.200 C 184.594 170.525,182.389 202.102,180.903 223.370 C 179.416 244.639,178.200 262.121,178.200 262.220 C 178.200 262.325,183.833 262.400,191.700 262.400 C 200.567 262.400,205.200 262.331,205.200 262.200 C 205.200 262.070,202.233 262.000,196.700 262.000 L 188.200 262.000 188.200 244.327 L 188.200 226.654 189.550 226.557 C 191.662 226.405,193.197 225.415,193.889 223.756 C 194.226 222.952,194.343 106.590,194.012 102.800 C 193.930 101.865,193.826 128.602,193.781 162.215 M319.597 119.707 C 319.214 119.993,318.793 120.289,318.662 120.365 C 318.335 120.554,317.211 128.256,317.202 130.364 C 317.199 130.979,323.727 134.139,324.142 133.724 C 324.479 133.387,322.789 126.615,321.153 121.744 L 320.294 119.188 319.597 119.707 M289.326 132.763 C 286.921 139.470,285.004 141.610,278.488 144.861 C 276.287 145.960,276.277 145.968,276.339 146.633 C 276.373 147.000,276.988 155.895,277.705 166.400 C 278.422 176.905,279.057 185.883,279.116 186.350 L 279.225 187.200 283.696 187.200 L 288.168 187.200 288.280 185.950 C 288.342 185.263,288.532 182.675,288.702 180.200 C 289.165 173.472,290.317 159.665,291.118 151.254 C 291.769 144.425,291.802 143.770,291.514 143.359 C 291.168 142.865,291.070 140.679,291.388 140.567 C 291.497 140.528,291.263 138.413,290.835 135.563 L 290.092 130.627 289.326 132.763 M143.831 137.751 C 142.241 142.386,139.511 147.022,137.162 149.077 L 136.142 149.969 136.285 151.731 C 136.364 152.700,136.522 153.606,136.637 153.744 C 136.981 154.160,141.145 156.108,143.578 156.993 L 145.855 157.821 148.378 156.810 C 150.730 155.867,151.016 155.799,152.630 155.799 L 154.360 155.800 154.505 153.284 C 154.878 146.823,152.598 144.853,146.833 146.657 C 145.381 147.111,145.183 147.134,145.304 146.839 C 147.060 142.532,147.314 137.205,145.817 136.056 C 144.918 135.366,144.539 135.689,143.831 137.751 M86.203 147.938 C 86.198 148.315,86.565 148.442,86.948 148.196 C 87.271 147.988,87.269 147.980,86.916 148.092 C 86.699 148.161,86.461 148.102,86.369 147.957 C 86.253 147.774,86.205 147.769,86.203 147.938 M137.629 164.950 C 137.820 166.793,137.981 168.435,137.988 168.600 C 138.002 168.960,147.544 168.957,148.837 168.597 C 150.476 168.140,152.347 166.094,153.216 163.806 C 153.663 162.631,153.691 162.643,151.662 163.120 C 149.892 163.537,147.073 163.409,145.800 162.854 C 145.211 162.598,144.198 162.417,142.869 162.331 C 141.752 162.259,140.132 162.065,139.269 161.900 C 138.406 161.735,137.606 161.600,137.491 161.600 C 137.350 161.600,137.396 162.705,137.629 164.950 M279.742 194.350 C 279.674 194.475,280.661 209.246,280.842 210.800 C 280.896 211.262,280.998 211.309,282.200 211.415 L 283.500 211.531 282.155 211.565 L 280.810 211.600 280.896 212.150 C 280.943 212.453,281.031 213.510,281.092 214.500 C 281.152 215.490,281.921 226.590,282.801 239.166 C 283.680 251.743,284.400 262.116,284.400 262.216 C 284.400 262.322,286.306 262.400,288.909 262.400 L 293.418 262.400 293.308 261.750 C 292.453 256.690,289.376 232.920,288.809 227.000 C 288.699 225.845,288.476 223.550,288.314 221.900 C 287.741 216.069,287.359 208.581,287.429 204.580 L 287.500 200.600 286.692 200.600 L 285.884 200.600 285.888 199.150 C 285.896 196.966,284.951 195.413,283.104 194.574 C 282.296 194.207,279.907 194.048,279.742 194.350 M303.918 196.899 C 303.755 197.551,303.004 207.926,303.002 209.568 L 303.000 210.835 303.850 210.703 C 304.910 210.538,309.000 209.586,309.000 209.505 C 309.000 209.472,308.692 208.243,308.316 206.773 C 307.939 205.303,307.350 202.615,307.006 200.800 C 306.219 196.647,306.297 196.873,305.562 196.617 C 304.534 196.258,304.058 196.340,303.918 196.899 M302.756 217.950 C 302.688 225.714,302.917 251.845,303.106 257.950 L 303.245 262.400 326.810 262.400 C 342.305 262.400,350.419 262.332,350.500 262.200 C 350.582 262.068,348.035 262.000,343.012 262.000 L 335.400 262.000 335.400 260.600 L 335.400 259.200 337.500 259.200 L 339.600 259.200 339.600 253.228 L 339.600 247.256 337.753 245.578 C 324.635 233.660,314.976 222.168,310.836 213.553 L 309.900 211.606 306.356 211.603 L 302.811 211.600 302.756 217.950 M106.196 240.249 C 104.371 242.854,97.294 252.246,93.048 257.700 L 89.467 262.300 93.534 262.354 L 97.600 262.408 97.594 263.154 C 97.591 263.564,97.459 265.565,97.300 267.600 C 97.141 269.635,97.009 271.411,97.006 271.548 C 97.001 271.739,95.264 271.808,89.350 271.850 L 81.700 271.905 89.373 271.952 L 97.047 272.000 96.929 273.250 C 96.341 279.505,95.175 278.800,106.108 278.800 L 114.953 278.800 115.074 278.350 C 115.296 277.520,115.216 277.431,114.131 277.295 C 112.657 277.111,112.661 277.116,112.498 275.150 C 112.360 273.494,112.374 273.400,112.746 273.400 C 113.126 273.400,113.145 273.188,113.276 267.350 C 113.461 259.123,113.925 250.033,114.310 247.074 L 114.417 246.247 112.453 246.168 C 108.679 246.017,107.466 244.677,107.550 240.750 C 107.578 239.457,107.576 238.400,107.547 238.400 C 107.517 238.400,106.909 239.232,106.196 240.249 M355.800 262.200 C 355.800 262.332,363.300 262.400,377.900 262.400 C 392.500 262.400,400.000 262.332,400.000 262.200 C 400.000 262.068,392.500 262.000,377.900 262.000 C 363.300 262.000,355.800 262.068,355.800 262.200 M177.800 267.200 C 177.800 267.331,182.571 267.400,191.712 267.400 C 200.935 267.400,205.582 267.333,205.500 267.200 C 205.420 267.070,200.565 267.000,191.588 267.000 C 182.529 267.000,177.800 267.069,177.800 267.200 M53.641 271.948 C 54.379 271.986,55.639 271.987,56.441 271.949 C 57.244 271.911,56.640 271.879,55.100 271.879 C 53.560 271.879,52.904 271.910,53.641 271.948 M65.841 271.948 C 66.579 271.986,67.839 271.987,68.641 271.949 C 69.444 271.911,68.840 271.879,67.300 271.879 C 65.760 271.879,65.104 271.910,65.841 271.948 M302.800 274.800 C 302.800 274.914,303.400 275.000,304.200 275.000 C 305.000 275.000,305.600 274.914,305.600 274.800 C 305.600 274.686,305.000 274.600,304.200 274.600 C 303.400 274.600,302.800 274.686,302.800 274.800 M310.600 274.800 C 310.600 274.932,316.733 275.000,328.600 275.000 C 340.467 275.000,346.600 274.932,346.600 274.800 C 346.600 274.668,340.467 274.600,328.600 274.600 C 316.733 274.600,310.600 274.668,310.600 274.800 M121.450 278.738 C 121.642 278.788,121.958 278.788,122.150 278.738 C 122.343 278.688,122.185 278.646,121.800 278.646 C 121.415 278.646,121.258 278.688,121.450 278.738 M178.872 280.149 L 176.843 280.214 176.717 281.058 C 176.315 283.740,173.545 287.151,170.808 288.337 C 168.819 289.198,168.877 289.195,151.256 289.198 C 135.082 289.200,134.382 289.215,133.656 289.582 C 132.578 290.126,112.917 290.104,112.517 289.557 C 112.313 289.278,111.699 289.221,108.289 289.165 L 104.300 289.100 102.948 288.460 C 100.644 287.368,98.000 284.224,98.000 282.576 C 98.000 282.248,97.871 282.217,96.850 282.304 C 96.218 282.357,93.180 282.542,90.100 282.714 C 79.648 283.299,76.952 283.536,76.756 283.885 C 76.659 284.058,76.352 284.200,76.073 284.200 C 74.570 284.200,77.844 286.058,80.654 286.800 C 82.595 287.312,82.881 287.638,82.404 288.790 C 81.929 289.937,81.671 289.968,73.135 289.920 C 63.819 289.868,64.663 290.278,65.581 286.250 L 65.957 284.600 65.425 284.600 C 63.028 284.600,51.625 286.301,48.611 287.107 C 16.761 295.635,183.864 301.780,298.400 296.294 C 365.722 293.070,374.699 287.046,317.900 283.209 C 308.274 282.559,304.383 282.351,304.255 282.479 C 304.188 282.546,304.288 283.632,304.478 284.893 C 304.827 287.218,304.743 287.995,304.143 288.003 C 288.239 288.214,286.949 288.125,286.392 286.781 C 285.944 285.700,286.294 285.366,288.524 284.741 C 290.615 284.155,292.607 283.307,293.663 282.555 L 294.300 282.100 293.400 281.969 C 292.905 281.897,290.958 281.771,289.073 281.690 L 285.645 281.542 285.307 282.721 C 284.450 285.707,282.311 287.910,279.382 288.821 C 278.208 289.186,277.022 289.200,246.532 289.196 L 214.900 289.192 213.509 288.701 C 210.226 287.542,207.747 284.921,206.784 281.587 L 206.325 280.000 193.613 280.042 C 186.621 280.065,179.987 280.113,178.872 280.149 " stroke="none" fill="#eaf2fb" fill-rule="evenodd"></path><path id="path2" d="M146.900 5.195 C 145.262 5.617,144.119 6.487,143.242 7.977 L 142.700 8.900 142.644 20.279 C 142.581 32.938,142.568 32.789,143.907 34.354 C 145.156 35.813,146.266 36.200,149.208 36.200 L 151.737 36.200 151.042 39.106 C 150.227 42.509,150.168 42.361,152.178 41.929 C 155.323 41.253,158.635 39.432,160.508 37.349 L 161.451 36.300 182.775 36.200 L 204.100 36.100 204.900 35.668 C 207.803 34.098,207.791 34.163,207.794 20.700 L 207.796 9.300 207.328 8.300 C 206.789 7.148,205.282 5.670,204.462 5.490 C 204.153 5.422,203.643 5.286,203.329 5.187 C 202.631 4.966,147.755 4.974,146.900 5.195 M209.600 17.200 L 209.600 20.600 210.100 20.600 L 210.600 20.600 210.600 17.200 L 210.600 13.800 210.100 13.800 L 209.600 13.800 209.600 17.200 M240.293 57.700 C 240.293 63.420,240.319 65.731,240.350 62.836 C 240.381 59.941,240.381 55.261,240.350 52.436 C 240.319 49.611,240.293 51.980,240.293 57.700 M312.150 68.541 C 312.398 68.589,312.803 68.589,313.050 68.541 C 313.298 68.493,313.095 68.454,312.600 68.454 C 312.105 68.454,311.903 68.493,312.150 68.541 M238.589 71.550 L 237.900 72.300 238.650 71.611 C 239.063 71.232,239.400 70.894,239.400 70.861 C 239.400 70.708,239.231 70.852,238.589 71.550 M94.733 119.486 C 94.660 119.677,94.600 120.298,94.600 120.866 L 94.600 121.900 102.400 121.900 C 106.690 121.900,110.200 121.842,110.200 121.771 C 110.200 121.410,108.670 120.374,107.749 120.112 C 105.054 119.345,94.973 118.860,94.733 119.486 M292.150 143.541 C 292.397 143.589,292.803 143.589,293.050 143.541 C 293.298 143.493,293.095 143.454,292.600 143.454 C 292.105 143.454,291.903 143.493,292.150 143.541 M296.950 143.549 C 298.188 143.584,300.213 143.584,301.450 143.549 C 302.688 143.514,301.675 143.486,299.200 143.486 C 296.725 143.486,295.713 143.514,296.950 143.549 M307.150 143.549 C 308.388 143.584,310.413 143.584,311.650 143.549 C 312.888 143.514,311.875 143.486,309.400 143.486 C 306.925 143.486,305.913 143.514,307.150 143.549 M315.546 143.544 C 315.901 143.589,316.531 143.589,316.946 143.546 C 317.360 143.503,317.070 143.467,316.300 143.466 C 315.530 143.465,315.190 143.500,315.546 143.544 M133.112 148.025 C 132.049 148.274,132.057 148.206,132.894 149.740 C 133.664 151.152,134.399 152.035,135.609 153.002 L 136.318 153.569 136.064 151.080 C 135.708 147.608,135.557 147.452,133.112 148.025 M126.266 155.750 C 126.331 156.273,126.705 160.030,127.097 164.100 C 128.096 174.455,127.471 173.552,132.848 172.402 C 138.597 171.172,138.153 171.792,137.555 165.842 L 137.117 161.489 135.609 161.032 C 132.153 159.984,128.252 157.561,126.923 155.636 C 126.191 154.576,126.122 154.588,126.266 155.750 M92.900 174.546 C 107.487 174.684,118.953 174.686,118.869 174.550 C 118.818 174.468,111.694 174.421,103.038 174.447 C 94.382 174.472,89.820 174.517,92.900 174.546 M134.670 225.000 C 134.670 225.935,134.704 226.318,134.746 225.850 C 134.789 225.382,134.789 224.618,134.746 224.150 C 134.704 223.683,134.670 224.065,134.670 225.000 M111.250 225.100 C 111.253 225.540,111.294 225.696,111.341 225.448 C 111.389 225.199,111.387 224.839,111.337 224.648 C 111.287 224.456,111.248 224.660,111.250 225.100 M117.467 226.600 C 117.467 227.425,117.503 227.763,117.546 227.350 C 117.589 226.938,117.589 226.263,117.546 225.850 C 117.503 225.438,117.467 225.775,117.467 226.600 M113.646 258.000 C 113.646 258.385,113.688 258.543,113.738 258.350 C 113.788 258.157,113.788 257.843,113.738 257.650 C 113.688 257.457,113.646 257.615,113.646 258.000 M113.457 263.300 C 113.459 263.850,113.498 264.051,113.544 263.747 C 113.589 263.443,113.588 262.993,113.541 262.747 C 113.493 262.501,113.456 262.750,113.457 263.300 M67.623 273.140 C 66.960 275.686,66.851 276.208,66.969 276.275 C 67.041 276.317,67.820 276.509,68.700 276.702 C 70.292 277.052,74.164 278.041,76.973 278.815 C 77.783 279.038,78.470 279.194,78.500 279.161 C 78.773 278.855,80.397 275.330,80.306 275.239 C 80.241 275.174,77.600 274.566,74.439 273.888 C 71.277 273.210,68.494 272.593,68.255 272.518 C 67.879 272.398,67.794 272.482,67.623 273.140 M112.480 274.250 C 112.538 274.718,112.639 275.528,112.705 276.050 C 112.771 276.572,112.886 277.001,112.962 277.003 C 113.160 277.007,123.198 278.778,123.822 278.918 C 124.332 279.033,124.347 279.007,124.483 277.768 C 124.559 277.071,124.673 276.163,124.736 275.750 C 124.845 275.043,124.821 275.000,124.319 275.000 C 124.019 275.000,123.735 274.862,123.666 274.683 C 123.599 274.509,123.489 274.450,123.422 274.552 C 123.350 274.662,121.266 274.468,118.300 274.075 C 111.840 273.219,112.351 273.204,112.480 274.250 M74.419 281.550 C 73.153 282.593,73.775 283.903,75.297 283.401 C 75.832 283.225,76.097 283.217,76.255 283.375 C 76.539 283.659,76.370 283.811,75.560 284.003 L 74.900 284.159 75.505 284.180 C 75.839 284.191,76.311 284.060,76.556 283.888 C 77.169 283.459,76.831 282.800,75.998 282.800 C 75.447 282.800,75.418 282.761,75.534 282.180 C 75.619 281.756,75.569 281.503,75.379 281.383 C 74.991 281.137,74.902 281.152,74.419 281.550 M122.079 281.431 C 121.557 281.684,120.903 282.983,121.165 283.245 C 121.281 283.361,121.494 283.140,121.726 282.666 C 121.932 282.245,122.258 281.871,122.450 281.835 C 122.976 281.738,122.873 282.096,122.176 282.794 C 121.379 283.591,121.535 283.727,122.875 283.406 C 123.468 283.264,124.063 283.215,124.198 283.299 C 124.584 283.537,124.030 283.792,123.100 283.804 C 122.330 283.814,122.318 283.824,122.774 284.077 C 123.693 284.587,125.047 283.932,124.738 283.127 C 124.651 282.899,124.368 282.800,123.806 282.800 C 122.935 282.800,122.898 282.764,123.200 282.201 C 123.558 281.530,122.861 281.052,122.079 281.431 M75.022 282.150 C 74.564 282.982,74.166 283.348,74.314 282.800 C 74.471 282.219,74.771 281.800,75.032 281.800 C 75.138 281.800,75.134 281.946,75.022 282.150 " stroke="none" fill="#2c84eb" fill-rule="evenodd"></path><path id="path3" d="M231.250 42.148 C 231.993 42.187,233.207 42.187,233.950 42.148 C 234.693 42.110,234.085 42.078,232.600 42.078 C 231.115 42.078,230.507 42.110,231.250 42.148 M131.286 86.148 C 135.783 86.205,135.977 86.223,136.063 86.607 C 136.137 86.933,136.148 86.923,136.127 86.553 L 136.100 86.100 131.350 86.094 L 126.600 86.089 131.286 86.148 M141.275 86.293 C 141.213 86.455,141.209 86.702,141.265 86.843 C 141.322 86.985,141.376 86.901,141.384 86.658 C 141.399 86.248,141.511 86.212,142.950 86.149 L 144.500 86.080 142.944 86.040 C 141.734 86.009,141.362 86.065,141.275 86.293 M121.840 88.949 C 122.797 88.985,124.417 88.986,125.440 88.949 C 126.463 88.913,125.680 88.883,123.700 88.883 C 121.720 88.882,120.883 88.912,121.840 88.949 M175.850 88.949 C 176.813 88.986,178.388 88.986,179.350 88.949 C 180.313 88.912,179.525 88.882,177.600 88.882 C 175.675 88.882,174.888 88.912,175.850 88.949 M257.640 88.949 C 258.597 88.985,260.217 88.986,261.240 88.949 C 262.263 88.913,261.480 88.883,259.500 88.883 C 257.520 88.882,256.683 88.912,257.640 88.949 M181.046 101.400 C 181.046 101.785,181.088 101.942,181.138 101.750 C 181.188 101.558,181.188 101.243,181.138 101.050 C 181.088 100.858,181.046 101.015,181.046 101.400 M298.095 103.341 C 296.714 103.518,295.734 106.119,296.495 107.590 C 296.963 108.495,299.581 110.517,299.863 110.191 C 300.363 109.614,301.757 107.292,301.679 107.166 C 301.623 107.075,301.289 106.998,300.938 106.996 C 298.700 106.980,297.725 105.240,299.115 103.740 L 299.616 103.200 299.158 103.232 C 298.906 103.250,298.428 103.299,298.095 103.341 M310.807 103.783 C 310.134 105.408,307.799 106.686,304.754 107.096 L 303.807 107.223 304.627 108.862 C 305.078 109.763,305.470 110.526,305.498 110.558 C 305.526 110.590,306.151 110.389,306.888 110.112 C 311.203 108.487,313.800 106.231,313.800 104.106 L 313.800 103.400 312.850 103.397 C 312.328 103.396,311.711 103.344,311.481 103.282 C 311.151 103.194,311.007 103.301,310.807 103.783 M119.093 118.318 C 116.793 119.135,114.719 122.758,116.350 123.111 C 121.841 124.300,124.874 127.837,129.460 138.400 C 131.002 141.951,130.968 141.706,129.997 142.201 C 129.544 142.432,129.202 142.684,129.237 142.761 C 130.186 144.857,132.098 148.205,132.301 148.127 C 134.811 147.164,135.980 147.677,136.024 149.761 C 136.040 150.547,136.086 150.735,136.174 150.366 C 136.243 150.073,136.725 149.460,137.244 149.005 C 139.518 147.010,142.264 142.319,143.831 137.751 C 144.539 135.689,144.918 135.366,145.817 136.056 C 147.314 137.205,147.060 142.532,145.304 146.839 C 145.183 147.134,145.381 147.111,146.833 146.657 C 152.390 144.918,154.526 146.533,154.466 152.428 L 154.431 155.755 155.708 155.837 C 157.385 155.943,157.327 155.774,156.850 159.128 C 156.388 162.378,156.429 162.311,154.773 162.503 L 153.620 162.637 153.298 163.606 C 152.851 164.953,151.617 166.794,150.649 167.561 C 149.146 168.751,148.874 168.800,143.656 168.803 C 137.865 168.806,138.000 168.779,138.000 169.923 C 138.000 171.122,137.582 171.476,135.676 171.892 C 134.809 172.081,132.935 172.492,131.512 172.804 C 127.729 173.636,127.979 173.987,127.268 166.850 L 126.732 161.465 126.124 161.768 C 125.239 162.210,122.740 162.187,121.538 161.726 C 120.356 161.273,120.475 161.114,120.218 163.500 C 120.100 164.600,119.765 167.486,119.475 169.913 L 118.947 174.326 119.967 177.613 C 120.911 180.654,125.082 193.168,125.586 194.472 C 125.756 194.912,125.867 194.993,126.069 194.826 C 126.252 194.674,131.673 194.592,144.115 194.554 L 161.900 194.500 162.719 194.062 C 163.679 193.548,164.733 192.408,165.133 191.453 C 165.595 190.346,170.311 122.384,170.007 121.204 C 169.685 119.949,168.920 119.038,167.723 118.480 L 166.700 118.004 143.300 118.018 C 123.517 118.029,119.775 118.076,119.093 118.318 M94.462 120.900 C 94.463 121.560,94.500 121.806,94.545 121.446 C 94.589 121.087,94.589 120.547,94.543 120.246 C 94.497 119.946,94.461 120.240,94.462 120.900 M101.150 121.949 C 102.388 121.984,104.413 121.984,105.650 121.949 C 106.888 121.914,105.875 121.886,103.400 121.886 C 100.925 121.886,99.913 121.914,101.150 121.949 M109.800 122.000 L 109.300 122.160 109.850 122.180 C 110.153 122.191,110.400 122.110,110.400 122.000 C 110.400 121.890,110.378 121.809,110.350 121.820 C 110.322 121.831,110.075 121.912,109.800 122.000 M95.152 122.141 C 95.401 122.189,95.761 122.187,95.952 122.137 C 96.144 122.087,95.940 122.048,95.500 122.050 C 95.060 122.053,94.904 122.094,95.152 122.141 M87.147 135.000 C 86.980 135.405,85.400 144.795,85.400 145.384 C 85.400 146.362,86.418 148.220,86.879 148.083 C 88.015 147.746,88.153 147.513,88.078 146.062 C 87.699 138.679,87.348 134.512,87.147 135.000 M317.050 139.700 C 317.053 140.140,317.094 140.296,317.141 140.048 C 317.189 139.799,317.187 139.439,317.137 139.248 C 317.087 139.056,317.048 139.260,317.050 139.700 M293.308 141.450 C 293.370 141.917,293.465 142.593,293.520 142.950 L 293.618 143.600 292.709 143.600 C 292.056 143.600,291.800 143.680,291.800 143.885 C 291.800 144.041,291.531 146.944,291.203 150.335 C 290.436 158.261,289.320 171.525,288.808 178.800 C 288.587 181.935,288.313 185.535,288.198 186.800 C 287.173 198.065,287.258 213.078,288.402 223.000 C 288.510 223.935,288.691 225.690,288.804 226.900 C 289.400 233.267,291.818 251.828,293.975 266.599 C 294.450 269.858,294.560 270.306,294.900 270.372 C 295.112 270.412,297.123 270.380,299.370 270.300 L 303.455 270.154 303.330 265.227 C 302.902 248.234,302.807 241.723,302.794 228.400 C 302.781 213.960,302.900 209.369,303.498 201.422 L 303.775 197.741 303.100 194.920 C 300.048 182.170,299.125 170.821,300.432 162.107 C 300.746 160.008,300.775 160.129,301.800 167.900 C 302.250 171.310,303.066 177.090,303.612 180.745 C 304.159 184.400,304.645 187.820,304.693 188.345 C 304.903 190.673,307.503 203.740,308.523 207.600 C 310.850 216.401,319.251 227.900,333.006 241.109 C 337.192 245.128,342.084 249.616,342.666 249.969 C 343.185 250.283,343.736 249.833,349.377 244.489 L 349.853 244.038 346.845 240.269 C 322.052 209.210,320.913 206.231,320.399 171.100 C 320.154 154.388,319.841 150.619,318.262 145.350 L 317.737 143.600 316.390 143.600 C 314.934 143.600,314.800 143.499,314.800 142.409 C 314.800 141.148,314.575 140.600,314.058 140.600 C 313.566 140.600,313.566 140.602,313.706 142.100 L 313.847 143.600 309.348 143.600 L 304.850 143.600 304.725 142.975 C 304.656 142.631,304.600 142.099,304.600 141.791 C 304.600 140.930,304.401 140.600,303.881 140.600 C 303.411 140.600,303.407 140.618,303.532 142.100 L 303.659 143.600 299.157 143.600 L 294.654 143.600 294.527 142.672 C 294.457 142.162,294.400 141.487,294.400 141.172 C 294.400 140.669,294.327 140.600,293.798 140.600 C 293.205 140.600,293.197 140.613,293.308 141.450 M119.549 147.523 L 117.797 148.406 119.419 150.753 L 121.040 153.100 120.945 154.850 C 120.834 156.905,120.804 156.892,122.613 155.577 C 123.386 155.014,124.418 154.403,124.905 154.218 L 125.792 153.881 125.297 153.153 C 125.025 152.752,124.027 151.137,123.080 149.562 C 122.133 147.988,121.345 146.687,121.329 146.670 C 121.313 146.654,120.512 147.038,119.549 147.523 M85.476 187.500 C 85.477 188.820,85.509 189.334,85.548 188.642 C 85.587 187.950,85.587 186.870,85.548 186.242 C 85.508 185.614,85.476 186.180,85.476 187.500 M130.600 208.140 C 130.600 208.216,131.145 209.712,131.812 211.464 C 134.030 217.291,134.952 221.923,134.742 226.178 C 134.621 228.625,134.404 229.605,132.727 235.280 C 132.210 237.030,131.380 240.045,130.881 241.980 C 130.382 243.916,129.929 245.657,129.874 245.850 C 129.779 246.179,130.249 246.200,137.777 246.200 L 145.780 246.200 147.198 247.598 C 148.748 249.127,151.020 250.396,152.942 250.807 C 154.825 251.210,154.793 251.263,154.299 248.550 L 153.871 246.200 155.599 246.200 C 158.597 246.200,160.308 245.357,161.306 243.388 C 162.142 241.739,164.154 212.032,163.531 210.544 C 163.164 209.669,161.795 208.473,160.864 208.214 C 160.003 207.975,130.600 207.903,130.600 208.140 M109.505 212.721 C 112.200 225.122,111.826 231.494,108.051 237.477 C 107.261 238.729,107.264 242.699,108.055 244.045 C 108.932 245.536,110.032 246.071,112.422 246.167 L 114.356 246.245 114.494 244.972 C 114.880 241.424,115.498 237.539,116.193 234.300 C 118.088 225.459,117.943 224.280,114.361 219.366 C 113.212 217.790,111.704 215.645,111.009 214.600 C 109.547 212.400,109.393 212.207,109.505 212.721 M348.808 256.386 C 348.526 256.912,348.744 257.378,349.342 257.528 L 349.840 257.653 349.321 258.077 C 348.292 258.915,349.376 260.055,350.501 259.317 C 350.776 259.138,351.000 258.894,351.000 258.776 C 351.000 258.658,351.191 258.293,351.425 257.965 C 351.748 257.512,351.793 257.313,351.616 257.136 C 351.439 256.959,351.334 256.975,351.179 257.202 C 351.020 257.433,351.001 257.401,351.097 257.060 C 351.335 256.211,349.233 255.591,348.808 256.386 M350.512 256.894 C 350.895 257.183,350.895 257.187,350.500 257.191 C 349.894 257.196,349.200 256.975,349.200 256.777 C 349.200 256.494,350.088 256.573,350.512 256.894 M350.683 258.383 C 350.130 259.004,349.720 259.156,349.510 258.816 C 349.409 258.652,351.001 257.597,351.167 257.718 C 351.203 257.744,350.986 258.044,350.683 258.383 M113.450 260.300 C 113.453 260.740,113.494 260.896,113.541 260.648 C 113.589 260.399,113.587 260.039,113.537 259.848 C 113.487 259.656,113.448 259.860,113.450 260.300 M113.270 268.000 C 113.270 268.935,113.304 269.318,113.346 268.850 C 113.389 268.382,113.389 267.618,113.346 267.150 C 113.304 266.683,113.270 267.065,113.270 268.000 M293.943 279.124 C 293.726 279.341,293.772 280.092,294.017 280.337 C 294.174 280.494,293.981 280.526,293.327 280.453 C 292.468 280.356,292.413 280.379,292.281 280.906 C 292.067 281.756,292.736 282.097,294.500 282.041 C 295.849 281.998,296.124 281.812,296.081 280.972 C 296.013 279.635,294.628 278.438,293.943 279.124 M295.500 280.532 C 295.665 280.926,295.800 281.283,295.800 281.325 C 295.800 281.367,295.485 281.052,295.100 280.626 C 294.304 279.745,294.162 279.258,294.800 279.600 C 295.021 279.718,295.336 280.137,295.500 280.532 M294.344 281.245 C 295.702 281.561,295.706 281.812,294.350 281.674 C 293.044 281.540,292.800 281.466,292.800 281.206 C 292.800 280.940,293.058 280.946,294.344 281.245 " stroke="none" fill="#9cc4fb" fill-rule="evenodd"></path><path id="path4" d="M293.819 78.362 C 293.497 78.994,292.800 81.259,292.800 81.675 C 292.800 81.739,293.027 81.688,293.305 81.561 C 293.978 81.255,294.525 81.702,293.928 82.071 C 292.498 82.953,292.532 82.867,292.663 85.287 C 293.075 92.859,296.079 97.145,301.127 97.366 L 302.977 97.447 303.107 98.484 C 303.363 100.532,302.085 102.730,300.426 103.094 C 298.110 103.603,297.832 106.100,300.019 106.759 C 304.583 108.133,312.148 105.255,310.405 102.807 C 308.550 100.201,308.722 90.715,310.666 88.404 C 312.083 86.720,311.723 84.061,310.034 83.738 C 308.922 83.526,307.600 84.600,307.600 85.716 C 307.600 86.186,306.372 85.970,304.284 85.132 C 300.869 83.763,297.506 81.355,295.458 78.815 C 294.314 77.397,294.312 77.396,293.819 78.362 M300.550 84.051 C 300.905 84.332,300.860 85.301,300.477 85.619 C 300.098 85.934,299.400 85.255,299.400 84.572 C 299.400 84.360,299.265 84.136,299.100 84.072 C 298.935 84.009,298.800 83.873,298.800 83.770 C 298.800 83.543,300.192 83.767,300.550 84.051 M295.158 85.446 C 295.350 85.850,295.362 86.098,295.202 86.396 C 294.795 87.156,293.950 86.685,293.950 85.699 C 293.950 85.420,293.834 85.200,293.687 85.200 C 293.542 85.200,293.365 85.104,293.292 84.988 C 293.205 84.847,293.454 84.796,294.029 84.838 C 294.747 84.889,294.942 84.994,295.158 85.446 M302.800 88.999 C 302.800 89.729,299.903 91.770,299.476 91.342 C 299.280 91.147,299.604 90.800,299.982 90.800 C 300.484 90.800,301.939 89.706,302.096 89.211 C 302.227 88.798,302.800 88.626,302.800 88.999 M110.080 102.014 C 109.703 103.356,109.697 103.361,109.057 102.760 C 106.848 100.684,105.201 104.255,106.847 107.551 C 108.234 110.329,102.232 114.155,99.019 112.542 C 98.645 112.354,98.319 112.200,98.294 112.200 C 98.270 112.200,98.244 113.258,98.236 114.550 C 98.229 115.843,98.136 117.349,98.029 117.897 C 97.771 119.219,97.530 119.123,101.443 119.263 C 103.344 119.330,105.095 119.443,105.333 119.512 C 105.755 119.635,105.759 119.619,105.492 118.869 C 105.022 117.553,105.072 117.462,106.350 117.303 C 109.507 116.909,112.385 114.599,113.229 111.780 C 113.460 111.010,113.476 111.000,114.453 111.000 C 115.318 111.000,115.424 110.956,115.296 110.650 C 114.365 108.432,114.359 108.400,114.566 106.105 C 114.675 104.892,114.704 103.450,114.632 102.900 L 114.500 101.901 113.343 101.757 C 112.707 101.678,111.787 101.436,111.300 101.220 L 110.413 100.828 110.080 102.014 M323.086 117.229 C 321.664 118.239,320.482 119.076,320.461 119.089 C 320.439 119.102,320.915 120.639,321.518 122.506 C 323.155 127.575,324.677 134.000,324.241 134.000 C 323.846 134.000,320.071 132.338,317.196 130.898 L 314.233 129.414 313.284 126.413 L 312.336 123.412 310.135 121.957 C 308.924 121.156,307.901 120.591,307.861 120.701 C 307.822 120.810,307.262 121.845,306.617 123.000 L 305.445 125.100 307.373 127.105 C 308.433 128.208,309.550 129.445,309.857 129.853 C 310.163 130.261,311.558 131.512,312.957 132.634 C 324.600 141.967,330.876 142.413,330.187 133.859 C 329.798 129.019,326.846 116.655,325.815 115.546 C 325.737 115.461,324.508 116.219,323.086 117.229 M286.018 120.163 C 285.169 125.461,283.427 132.112,282.106 135.100 C 281.572 136.309,279.872 137.939,277.580 139.439 L 275.959 140.500 276.095 143.099 C 276.170 144.529,276.260 145.727,276.295 145.761 C 276.440 145.906,280.852 143.548,282.508 142.440 C 285.777 140.253,286.904 138.738,288.701 134.117 C 290.144 130.405,290.103 130.808,289.520 126.194 C 289.235 123.942,288.944 121.411,288.873 120.570 L 288.745 119.040 287.601 118.233 L 286.457 117.427 286.018 120.163 M125.138 144.718 L 121.376 146.614 121.763 147.257 C 121.976 147.611,122.972 149.239,123.975 150.877 C 126.116 154.368,125.969 153.914,125.050 154.212 C 124.638 154.345,123.687 154.897,122.938 155.438 C 122.189 155.979,121.450 156.470,121.296 156.529 C 120.915 156.675,120.850 156.979,120.695 159.313 L 120.562 161.325 121.766 161.690 C 122.643 161.955,123.369 162.029,124.437 161.960 C 126.883 161.803,126.778 162.017,126.363 158.065 C 125.934 153.978,125.901 154.098,127.042 155.567 C 129.838 159.167,135.399 161.575,142.400 162.215 C 143.812 162.345,145.378 162.615,146.000 162.838 C 147.813 163.487,149.368 163.512,152.200 162.938 C 153.575 162.659,155.068 162.373,155.518 162.303 L 156.337 162.176 156.767 159.154 C 157.004 157.491,157.176 156.109,157.148 156.081 C 157.120 156.054,155.658 156.010,153.899 155.985 L 150.700 155.939 148.324 156.901 L 145.949 157.862 144.524 157.405 C 136.867 154.945,134.541 153.118,131.411 147.103 C 130.179 144.736,129.110 142.805,129.036 142.811 C 128.961 142.816,127.207 143.675,125.138 144.718 M351.370 247.740 C 351.332 247.828,350.310 248.747,349.100 249.782 C 347.890 250.817,346.900 251.723,346.900 251.796 C 346.900 251.969,351.394 256.000,351.587 256.000 C 351.724 256.000,354.989 252.360,355.542 251.591 C 355.752 251.300,355.516 251.016,353.778 249.477 C 351.679 247.619,351.484 247.478,351.370 247.740 M296.445 277.250 L 296.500 280.700 299.658 280.755 L 302.815 280.810 302.785 277.305 L 302.756 273.800 299.573 273.800 L 296.391 273.800 296.445 277.250 M68.498 279.850 C 67.869 281.418,67.310 282.813,67.256 282.950 C 67.180 283.143,67.855 283.200,70.242 283.200 L 73.328 283.200 74.262 280.858 C 74.775 279.570,75.129 278.457,75.048 278.386 C 74.927 278.280,70.013 277.000,69.726 277.000 C 69.679 277.000,69.127 278.282,68.498 279.850 M115.185 278.050 C 115.176 278.298,115.144 278.635,115.114 278.800 C 115.083 278.965,114.997 279.730,114.923 280.500 C 114.849 281.270,114.736 282.193,114.672 282.550 L 114.555 283.200 117.478 283.200 C 119.085 283.200,120.400 283.158,120.400 283.107 C 120.400 283.056,120.540 282.011,120.711 280.784 C 120.882 279.558,120.994 278.531,120.961 278.501 C 120.873 278.424,115.901 277.600,115.520 277.600 C 115.326 277.600,115.194 277.777,115.185 278.050 " stroke="none" fill="#fb8c7c" fill-rule="evenodd"></path><path id="path5" d="M318.650 73.300 C 318.653 73.740,318.694 73.896,318.741 73.648 C 318.789 73.399,318.787 73.039,318.737 72.848 C 318.687 72.656,318.648 72.860,318.650 73.300 M138.835 88.950 C 145.289 88.979,155.909 88.979,162.435 88.950 C 168.961 88.921,163.680 88.897,150.700 88.897 C 137.720 88.897,132.381 88.921,138.835 88.950 M231.650 88.949 C 232.613 88.986,234.188 88.986,235.150 88.949 C 236.113 88.912,235.325 88.882,233.400 88.882 C 231.475 88.882,230.688 88.912,231.650 88.949 M312.487 106.850 L 311.900 107.500 312.550 106.913 C 313.156 106.365,313.292 106.200,313.137 106.200 C 313.103 106.200,312.810 106.493,312.487 106.850 M100.650 119.338 C 100.843 119.388,101.158 119.388,101.350 119.338 C 101.543 119.288,101.385 119.246,101.000 119.246 C 100.615 119.246,100.458 119.288,100.650 119.338 M97.750 121.941 C 97.998 121.989,98.403 121.989,98.650 121.941 C 98.898 121.893,98.695 121.854,98.200 121.854 C 97.705 121.854,97.502 121.893,97.750 121.941 M303.800 140.538 C 304.075 140.594,304.374 140.744,304.465 140.870 C 304.576 141.024,304.604 141.001,304.550 140.800 C 304.504 140.631,304.214 140.486,303.885 140.468 C 303.381 140.441,303.369 140.451,303.800 140.538 M313.522 140.564 C 313.467 140.654,313.686 140.689,314.011 140.641 C 314.335 140.594,314.600 140.520,314.600 140.477 C 314.600 140.325,313.621 140.403,313.522 140.564 M127.200 156.063 C 127.200 156.097,127.493 156.390,127.850 156.713 L 128.500 157.300 127.913 156.650 C 127.365 156.044,127.200 155.908,127.200 156.063 M300.420 162.148 C 299.126 170.993,300.271 184.189,303.366 196.100 L 303.729 197.500 303.858 196.700 C 303.929 196.260,304.083 194.865,304.200 193.600 C 304.317 192.335,304.485 190.627,304.573 189.804 C 304.692 188.694,304.640 187.689,304.372 185.904 C 303.466 179.878,302.145 170.650,301.514 165.927 C 301.133 163.083,300.783 160.716,300.735 160.668 C 300.688 160.621,300.546 161.287,300.420 162.148 M126.846 162.600 C 126.846 162.985,126.888 163.143,126.938 162.950 C 126.988 162.758,126.988 162.442,126.938 162.250 C 126.888 162.058,126.846 162.215,126.846 162.600 M127.046 164.600 C 127.046 164.985,127.088 165.143,127.138 164.950 C 127.188 164.758,127.188 164.442,127.138 164.250 C 127.088 164.058,127.046 164.215,127.046 164.600 M127.246 166.600 C 127.246 166.985,127.288 167.143,127.338 166.950 C 127.388 166.758,127.388 166.442,127.338 166.250 C 127.288 166.058,127.246 166.215,127.246 166.600 M127.446 168.600 C 127.446 168.985,127.488 169.143,127.538 168.950 C 127.588 168.758,127.588 168.442,127.538 168.250 C 127.488 168.058,127.446 168.215,127.446 168.600 M127.646 170.600 C 127.646 170.985,127.688 171.143,127.738 170.950 C 127.788 170.758,127.788 170.442,127.738 170.250 C 127.688 170.058,127.646 170.215,127.646 170.600 M349.967 243.785 C 349.177 244.714,343.628 249.860,342.550 250.662 C 341.575 251.388,341.563 251.360,343.272 252.350 C 345.131 253.426,344.852 253.491,347.033 251.478 C 348.655 249.981,350.267 248.637,352.489 246.927 L 353.078 246.474 352.103 244.737 C 350.993 242.759,350.881 242.709,349.967 243.785 M113.450 261.700 C 113.453 262.140,113.494 262.296,113.541 262.048 C 113.589 261.799,113.587 261.439,113.537 261.248 C 113.487 261.056,113.448 261.260,113.450 261.700 M113.273 271.500 C 113.274 272.600,113.307 273.024,113.348 272.443 C 113.388 271.862,113.388 270.962,113.347 270.443 C 113.306 269.924,113.273 270.400,113.273 271.500 M301.200 270.208 C 299.935 270.285,297.707 270.359,296.250 270.374 C 294.793 270.388,293.600 270.465,293.600 270.545 C 293.600 270.625,293.745 271.368,293.923 272.195 L 294.247 273.700 299.303 273.700 L 304.360 273.700 304.488 272.500 C 304.558 271.840,304.667 271.007,304.730 270.650 C 304.861 269.906,305.296 269.961,301.200 270.208 " stroke="none" fill="#75acf0" fill-rule="evenodd"></path><path id="path6" d="M296.500 80.000 C 297.153 80.660,297.732 81.200,297.787 81.200 C 297.842 81.200,297.353 80.660,296.700 80.000 C 296.047 79.340,295.468 78.800,295.413 78.800 C 295.358 78.800,295.847 79.340,296.500 80.000 M107.000 88.463 C 107.000 88.497,107.293 88.790,107.650 89.113 L 108.300 89.700 107.713 89.050 C 107.165 88.444,107.000 88.308,107.000 88.463 M302.350 107.141 C 302.598 107.189,303.002 107.189,303.250 107.141 C 303.498 107.093,303.295 107.054,302.800 107.054 C 302.305 107.054,302.103 107.093,302.350 107.141 M308.100 128.000 C 308.642 128.550,309.130 129.000,309.185 129.000 C 309.240 129.000,308.842 128.550,308.300 128.000 C 307.758 127.450,307.270 127.000,307.215 127.000 C 307.160 127.000,307.558 127.450,308.100 128.000 M309.800 130.063 C 309.800 130.097,310.093 130.390,310.450 130.713 L 311.100 131.300 310.513 130.650 C 309.965 130.044,309.800 129.908,309.800 130.063 M275.846 141.200 C 275.846 141.585,275.888 141.743,275.938 141.550 C 275.988 141.358,275.988 141.042,275.938 140.850 C 275.888 140.657,275.846 140.815,275.846 141.200 M276.050 144.100 C 276.053 144.540,276.094 144.696,276.141 144.448 C 276.189 144.199,276.187 143.839,276.137 143.648 C 276.087 143.456,276.048 143.660,276.050 144.100 M297.959 273.749 C 298.872 273.786,300.312 273.786,301.159 273.748 C 302.007 273.711,301.260 273.681,299.500 273.681 C 297.740 273.681,297.047 273.712,297.959 273.749 M298.150 280.949 C 299.058 280.986,300.543 280.986,301.450 280.949 C 302.358 280.912,301.615 280.881,299.800 280.881 C 297.985 280.881,297.243 280.912,298.150 280.949 " stroke="none" fill="#af6e77" fill-rule="evenodd"></path><path id="path7" d="M325.856 72.947 C 326.382 72.989,327.192 72.988,327.656 72.946 C 328.120 72.904,327.690 72.870,326.700 72.871 C 325.710 72.872,325.330 72.906,325.856 72.947 M290.654 77.000 C 290.654 77.495,290.693 77.698,290.741 77.450 C 290.789 77.203,290.789 76.797,290.741 76.550 C 290.693 76.302,290.654 76.505,290.654 77.000 M317.860 83.000 C 317.860 83.605,317.897 83.853,317.943 83.550 C 317.989 83.248,317.989 82.752,317.943 82.450 C 317.897 82.148,317.860 82.395,317.860 83.000 M117.250 85.338 C 117.442 85.388,117.758 85.388,117.950 85.338 C 118.142 85.288,117.985 85.246,117.600 85.246 C 117.215 85.246,117.058 85.288,117.250 85.338 M241.550 88.950 C 244.218 88.981,248.582 88.981,251.250 88.950 C 253.918 88.918,251.735 88.893,246.400 88.893 C 241.065 88.893,238.882 88.918,241.550 88.950 M93.352 92.141 C 93.601 92.189,93.961 92.187,94.152 92.137 C 94.344 92.087,94.140 92.048,93.700 92.050 C 93.260 92.053,93.104 92.094,93.352 92.141 M92.850 98.700 C 92.853 99.140,92.894 99.296,92.941 99.048 C 92.989 98.799,92.987 98.439,92.937 98.248 C 92.887 98.056,92.848 98.260,92.850 98.700 M101.950 119.341 C 102.198 119.389,102.603 119.389,102.850 119.341 C 103.097 119.293,102.895 119.254,102.400 119.254 C 101.905 119.254,101.703 119.293,101.950 119.341 M126.023 154.950 C 126.038 155.293,126.081 155.367,126.138 155.148 C 126.192 154.942,126.328 154.854,126.465 154.936 C 126.596 155.015,126.579 154.927,126.426 154.738 C 126.053 154.279,125.996 154.309,126.023 154.950 M154.954 155.945 C 155.313 155.989,155.853 155.989,156.154 155.943 C 156.454 155.897,156.160 155.861,155.500 155.862 C 154.840 155.863,154.594 155.900,154.954 155.945 M123.552 162.141 C 123.801 162.189,124.161 162.187,124.352 162.137 C 124.544 162.087,124.340 162.048,123.900 162.050 C 123.460 162.053,123.304 162.094,123.552 162.141 M295.650 287.949 C 296.502 287.986,297.897 287.986,298.750 287.949 C 299.603 287.911,298.905 287.880,297.200 287.880 C 295.495 287.880,294.798 287.911,295.650 287.949 M288.750 288.145 C 289.108 288.189,289.693 288.189,290.050 288.145 C 290.407 288.100,290.115 288.064,289.400 288.064 C 288.685 288.064,288.393 288.100,288.750 288.145 M66.850 289.946 C 67.263 289.989,67.938 289.989,68.350 289.946 C 68.763 289.903,68.425 289.867,67.600 289.867 C 66.775 289.867,66.438 289.903,66.850 289.946 M76.256 289.947 C 76.782 289.989,77.592 289.988,78.056 289.946 C 78.520 289.904,78.090 289.870,77.100 289.871 C 76.110 289.872,75.730 289.906,76.256 289.947 M114.557 289.948 C 115.138 289.988,116.038 289.988,116.557 289.947 C 117.076 289.906,116.600 289.873,115.500 289.873 C 114.400 289.874,113.976 289.907,114.557 289.948 M126.950 289.947 C 127.528 289.988,128.472 289.988,129.050 289.947 C 129.628 289.907,129.155 289.874,128.000 289.874 C 126.845 289.874,126.373 289.907,126.950 289.947 " stroke="none" fill="#afa2b9" fill-rule="evenodd"></path><path id="path8" d="M309.069 96.900 C 309.069 97.780,309.104 98.115,309.147 97.645 C 309.189 97.174,309.188 96.454,309.145 96.045 C 309.102 95.635,309.068 96.020,309.069 96.900 M301.050 97.538 C 301.243 97.588,301.558 97.588,301.750 97.538 C 301.943 97.488,301.785 97.446,301.400 97.446 C 301.015 97.446,300.858 97.488,301.050 97.538 M303.054 99.200 C 303.054 99.695,303.093 99.898,303.141 99.650 C 303.189 99.403,303.189 98.998,303.141 98.750 C 303.093 98.502,303.054 98.705,303.054 99.200 M113.400 111.155 C 113.400 111.241,113.760 111.276,114.200 111.234 C 114.640 111.192,115.000 111.122,115.000 111.079 C 115.000 111.036,114.640 111.000,114.200 111.000 C 113.760 111.000,113.400 111.070,113.400 111.155 M324.200 133.483 C 324.200 133.639,324.088 133.812,323.950 133.868 C 323.801 133.928,323.841 133.975,324.050 133.984 C 324.272 133.994,324.400 133.854,324.400 133.600 C 324.400 133.380,324.355 133.200,324.300 133.200 C 324.245 133.200,324.200 133.328,324.200 133.483 M330.257 134.500 C 330.259 135.050,330.298 135.251,330.344 134.947 C 330.389 134.643,330.388 134.193,330.341 133.947 C 330.293 133.701,330.256 133.950,330.257 134.500 M285.291 140.250 L 284.500 141.100 285.350 140.309 C 286.140 139.574,286.292 139.400,286.141 139.400 C 286.108 139.400,285.725 139.782,285.291 140.250 M152.346 155.944 C 152.701 155.989,153.331 155.989,153.746 155.946 C 154.160 155.903,153.870 155.867,153.100 155.866 C 152.330 155.865,151.990 155.900,152.346 155.944 M120.646 158.800 C 120.646 159.185,120.688 159.343,120.738 159.150 C 120.788 158.958,120.788 158.643,120.738 158.450 C 120.688 158.258,120.646 158.415,120.646 158.800 " stroke="none" fill="#fabeb8" fill-rule="evenodd"></path></g></svg>