<svg id="svg" version="1.1" xmlns="http://www.w3.org/2000/svg" xmlns:xlink="http://www.w3.org/1999/xlink" width="400" height="210.30713170223842" viewBox="0, 0, 400,210.30713170223842"><g id="svgg"><path id="path0" d="M118.980 11.970 C 112.841 13.306,110.317 17.258,110.195 25.727 L 110.120 30.943 111.437 30.862 C 114.568 30.669,114.940 31.541,114.940 39.065 L 114.940 44.924 116.450 46.356 C 118.130 47.949,120.304 49.164,122.332 49.643 C 123.970 50.030,133.339 50.280,134.914 49.978 C 139.194 49.161,142.000 45.658,142.007 41.124 L 142.009 39.667 141.563 40.569 C 140.893 41.922,139.791 42.560,137.968 42.651 L 136.491 42.724 135.763 41.612 C 133.130 37.595,127.010 37.848,124.829 42.064 L 124.508 42.686 122.132 42.686 C 117.130 42.686,116.617 41.901,116.611 34.230 L 116.606 29.002 117.728 28.886 C 120.170 28.634,121.990 26.927,122.404 24.499 L 122.552 23.634 130.667 23.580 L 138.782 23.527 139.198 24.309 C 140.627 26.992,145.336 26.195,145.340 23.269 C 145.341 22.726,145.290 22.697,144.373 22.697 L 143.404 22.697 144.217 22.108 C 147.123 20.000,148.486 15.984,147.462 12.546 L 147.199 11.661 133.724 11.677 C 123.357 11.690,119.957 11.757,118.980 11.970 M200.312 30.969 L 200.312 32.580 201.077 31.816 L 201.841 31.051 201.077 30.205 L 200.312 29.359 200.312 30.969 M204.463 30.835 L 203.790 31.685 204.550 32.445 L 205.310 33.205 206.070 32.445 L 206.830 31.685 206.156 30.835 C 205.786 30.367,205.405 29.984,205.310 29.984 C 205.214 29.984,204.833 30.367,204.463 30.835 M208.786 31.451 L 208.012 32.355 208.680 33.044 C 209.510 33.900,209.647 33.899,210.482 33.038 L 211.154 32.344 210.357 31.446 L 209.559 30.547 208.786 31.451 M110.153 38.341 C 110.156 40.522,111.114 42.103,113.032 43.093 C 113.743 43.461,113.747 43.328,113.071 41.735 C 112.734 40.941,112.342 39.612,112.201 38.782 C 111.980 37.483,111.884 37.272,111.516 37.269 C 111.281 37.268,110.877 37.210,110.619 37.141 C 110.169 37.020,110.151 37.068,110.153 38.341 M121.935 52.585 L 121.329 53.426 117.041 53.418 C 108.781 53.402,103.828 56.488,101.455 63.127 C 100.729 65.157,100.503 72.859,101.092 75.504 C 102.126 80.154,106.289 84.722,110.567 85.903 L 111.088 86.046 110.526 85.449 C 109.539 84.399,109.318 83.544,109.318 80.773 C 109.318 78.259,109.314 78.239,108.693 77.532 C 107.148 75.772,106.611 73.852,106.611 70.086 C 106.611 64.985,107.883 62.197,110.979 60.512 L 112.025 59.943 112.025 67.268 L 112.025 74.593 112.493 74.462 C 114.034 74.030,114.689 74.067,115.236 74.613 C 116.302 75.680,115.862 76.867,114.223 77.343 C 112.979 77.705,112.533 78.084,113.353 78.084 C 117.355 78.084,118.117 85.347,114.218 86.326 C 113.591 86.484,113.651 87.037,114.446 88.432 L 114.944 89.306 78.994 121.052 L 43.044 152.798 37.399 152.892 C 30.837 153.002,29.629 153.216,26.132 154.897 C 9.422 162.926,11.211 187.137,28.943 192.942 L 30.713 193.521 41.254 193.603 C 51.481 193.682,55.492 193.534,56.352 193.046 C 56.566 192.925,57.525 192.531,58.483 192.172 C 61.417 191.071,63.052 189.734,82.807 172.286 C 93.322 162.998,102.461 154.940,103.114 154.378 C 104.492 153.195,114.643 144.249,115.877 143.131 C 117.259 141.879,125.385 134.672,126.420 133.782 C 126.950 133.325,129.715 130.889,132.563 128.369 C 135.411 125.848,138.252 123.365,138.876 122.851 C 139.501 122.336,140.297 121.618,140.646 121.255 C 140.995 120.891,143.389 118.764,145.966 116.527 C 151.255 111.936,150.555 112.553,156.748 107.014 L 161.387 102.863 168.512 102.863 C 179.074 102.862,182.266 102.259,186.465 99.475 C 187.153 99.020,187.959 98.420,188.257 98.143 C 188.752 97.682,189.235 97.586,193.879 97.027 C 200.207 96.265,200.402 96.265,208.641 97.043 C 216.752 97.809,216.420 97.755,216.142 98.274 C 215.383 99.692,216.278 100.989,218.015 100.989 C 220.385 100.989,220.700 97.794,218.373 97.354 C 218.003 97.283,214.490 96.320,210.567 95.213 L 203.436 93.201 203.436 90.848 L 203.436 88.496 200.104 88.496 L 196.773 88.496 196.773 90.845 L 196.773 93.194 194.326 93.997 C 192.980 94.439,191.747 94.850,191.585 94.911 C 191.422 94.972,191.584 94.594,191.943 94.072 C 199.840 82.594,193.669 66.427,179.906 62.538 C 178.514 62.144,152.098 61.927,150.112 62.293 C 149.379 62.428,149.356 62.411,148.837 61.356 C 146.094 55.782,140.516 52.903,133.420 53.398 L 131.182 53.554 131.174 64.414 L 131.166 75.273 129.420 76.783 C 127.967 78.039,127.551 78.293,126.942 78.293 C 126.273 78.293,126.205 78.349,126.145 78.953 C 126.051 79.908,125.560 79.980,125.560 79.039 L 125.560 78.293 124.104 78.293 L 122.648 78.293 122.594 65.018 L 122.540 51.744 121.935 52.585 M140.967 61.113 C 142.007 61.877,142.759 62.750,143.329 63.858 L 143.670 64.519 142.892 65.000 C 142.464 65.264,141.623 65.880,141.023 66.369 C 140.424 66.857,139.885 67.257,139.826 67.257 C 139.767 67.257,139.719 65.711,139.719 63.821 C 139.719 61.931,139.777 60.385,139.847 60.385 C 139.918 60.385,140.422 60.713,140.967 61.113 M178.288 65.261 C 194.248 68.315,197.767 89.592,183.654 97.699 C 180.114 99.733,178.697 99.948,168.821 99.948 C 161.416 99.948,160.585 99.982,160.119 100.306 C 159.836 100.503,157.262 102.733,154.399 105.261 C 151.536 107.790,146.288 112.411,142.738 115.532 C 139.188 118.652,135.580 121.840,134.721 122.615 C 133.319 123.881,126.335 130.054,104.737 149.117 C 95.822 156.986,89.480 162.588,74.132 176.148 C 56.269 191.930,58.237 191.034,41.729 190.893 C 31.177 190.802,30.773 190.751,27.381 189.085 C 14.360 182.688,14.202 164.210,27.113 157.708 C 30.267 156.120,31.479 155.909,38.257 155.772 L 44.343 155.648 79.357 124.727 C 98.615 107.720,115.089 93.196,115.966 92.452 C 117.263 91.350,127.945 81.943,130.765 79.418 C 132.701 77.685,140.762 70.541,142.079 69.390 C 144.237 67.505,147.645 65.849,150.755 65.173 C 152.199 64.859,176.594 64.937,178.288 65.261 M198.490 83.025 L 196.773 83.099 196.773 84.235 L 196.773 85.372 200.115 85.372 L 203.456 85.372 203.394 84.175 L 203.332 82.978 201.770 82.964 C 200.911 82.957,199.435 82.984,198.490 83.025 M356.222 90.329 C 353.301 93.375,353.896 98.003,357.562 100.756 C 358.259 101.279,360.403 101.570,364.498 101.697 C 366.788 101.768,369.904 101.885,371.421 101.956 L 374.180 102.086 374.180 102.639 C 374.180 104.216,375.930 106.120,377.603 106.364 L 378.585 106.507 378.621 109.735 L 378.657 112.962 379.175 112.962 C 379.768 112.962,379.944 112.454,379.986 110.623 C 380.024 108.930,380.799 108.170,382.478 108.180 L 383.729 108.187 383.869 106.496 C 384.354 100.678,383.626 97.496,381.314 95.334 C 378.911 93.086,377.591 92.750,370.432 92.558 C 361.303 92.314,360.041 92.085,357.828 90.271 L 356.960 89.560 356.222 90.329 M382.690 113.213 C 382.208 113.287,382.114 113.439,381.907 114.483 C 381.778 115.135,381.443 116.161,381.163 116.763 L 380.654 117.856 381.217 117.562 C 381.932 117.189,382.781 116.277,383.214 115.419 C 383.552 114.748,383.685 113.039,383.394 113.097 C 383.308 113.114,382.991 113.166,382.690 113.213 M344.196 121.999 C 344.196 122.101,343.587 122.918,342.842 123.813 C 342.098 124.709,341.489 125.510,341.489 125.595 C 341.489 125.925,349.498 132.372,350.814 133.102 C 353.034 134.332,356.008 134.809,358.475 134.330 L 359.325 134.166 359.242 136.266 C 358.856 146.001,358.857 146.798,359.259 146.925 C 359.533 147.012,359.608 147.175,359.522 147.495 C 359.456 147.742,359.400 148.272,359.398 148.673 L 359.395 149.401 357.782 149.457 C 353.242 149.613,347.611 152.513,343.372 156.879 L 342.443 157.834 343.724 157.834 C 345.427 157.834,346.164 158.401,346.164 159.708 C 346.164 161.318,345.587 161.583,342.073 161.583 C 339.526 161.583,339.103 161.630,338.859 161.947 C 338.704 162.147,338.014 163.124,337.326 164.117 L 336.075 165.922 336.082 169.530 C 336.088 173.103,336.093 173.143,336.591 173.505 C 337.014 173.812,337.120 173.824,337.261 173.576 C 337.955 172.356,340.152 170.142,340.567 170.246 C 340.946 170.341,341.266 170.030,342.552 168.314 C 347.072 162.278,353.122 157.557,358.235 156.075 C 360.855 155.316,365.334 155.277,365.478 156.012 C 367.911 168.477,371.414 184.487,371.708 184.487 C 372.023 184.487,372.306 184.882,372.306 185.322 C 372.306 185.418,371.720 185.489,371.005 185.479 C 368.112 185.438,366.419 187.611,367.188 190.378 C 367.374 191.046,367.475 191.674,367.414 191.773 C 367.049 192.364,368.417 192.047,373.787 190.296 C 379.219 188.526,380.613 187.916,379.827 187.654 C 379.713 187.616,379.367 186.817,379.058 185.880 C 378.397 183.872,378.283 183.699,377.549 183.615 C 376.927 183.543,376.578 182.613,377.173 182.613 C 377.784 182.613,377.712 182.090,375.333 169.243 C 374.011 162.109,372.931 156.166,372.931 156.035 C 372.931 155.877,373.438 155.803,374.440 155.815 C 376.004 155.832,376.916 155.528,377.849 154.676 C 378.290 154.273,378.291 154.274,378.190 154.799 C 378.111 155.217,380.550 169.215,380.745 169.454 C 380.806 169.529,398.874 166.183,399.311 166.015 C 400.013 165.746,399.965 165.014,398.844 158.966 C 398.230 155.652,397.672 152.635,397.604 152.260 C 397.274 150.437,395.824 149.726,393.389 150.193 C 392.218 150.417,391.879 150.425,391.879 150.228 C 391.879 149.584,391.256 149.444,391.133 150.060 C 391.014 150.658,390.981 150.671,388.363 151.135 C 386.906 151.394,385.498 151.662,385.233 151.731 C 384.771 151.852,384.758 151.821,384.891 150.941 L 385.028 150.026 384.498 150.610 C 384.206 150.932,383.967 151.368,383.967 151.580 C 383.967 151.905,383.646 152.022,381.936 152.321 C 380.820 152.517,379.689 152.813,379.423 152.980 C 378.962 153.269,378.950 153.262,379.170 152.851 C 379.297 152.614,379.459 151.342,379.529 150.025 L 379.658 147.631 380.234 147.631 C 380.998 147.631,381.001 147.605,381.168 141.058 C 381.244 138.073,381.373 135.075,381.455 134.395 L 381.603 133.160 382.140 134.270 C 382.506 135.030,382.991 137.020,383.674 140.570 C 384.625 145.509,384.694 145.753,385.101 145.623 C 385.336 145.547,386.349 145.328,387.352 145.134 C 388.355 144.941,389.212 144.745,389.257 144.698 C 389.415 144.532,387.329 134.182,386.920 133.107 C 385.206 128.595,381.021 125.768,376.055 125.768 C 374.281 125.768,374.268 125.764,373.890 125.124 C 373.263 124.064,373.210 124.505,372.956 132.847 C 372.821 137.257,372.654 141.871,372.583 143.103 L 372.455 145.341 371.339 145.341 C 370.242 145.341,370.224 145.351,370.224 145.958 C 370.224 146.816,369.676 147.060,368.140 146.886 C 366.754 146.729,366.367 146.428,366.561 145.656 C 366.668 145.227,366.617 145.133,366.272 145.133 C 365.747 145.133,365.741 144.523,366.155 133.476 C 366.316 129.183,366.418 125.641,366.382 125.605 C 366.346 125.569,365.665 125.485,364.869 125.418 C 362.471 125.217,360.939 126.040,359.903 128.086 C 359.277 129.320,357.906 129.846,355.767 129.672 C 353.865 129.518,353.000 128.992,348.491 125.248 C 344.231 121.711,344.196 121.684,344.196 121.999 M367.205 145.341 C 367.134 145.455,367.269 145.549,367.505 145.549 C 367.740 145.549,367.933 145.643,367.933 145.757 C 367.933 145.872,367.746 145.966,367.517 145.966 C 367.288 145.966,367.100 146.059,367.100 146.174 C 367.100 146.290,367.656 146.382,368.350 146.382 C 369.525 146.382,369.599 146.353,369.599 145.889 C 369.599 145.265,367.542 144.794,367.205 145.341 " stroke="none" fill="#433632" fill-rule="evenodd"></path><path id="path1" d="M184.516 10.301 C 184.203 11.519,183.010 12.790,181.964 13.020 L 181.292 13.167 182.365 13.677 C 183.569 14.250,184.107 14.886,184.502 16.206 L 184.771 17.108 185.017 16.142 C 185.304 15.009,186.327 13.855,187.340 13.521 L 188.037 13.291 186.999 12.773 C 185.856 12.204,185.114 11.224,184.909 10.012 L 184.782 9.266 184.516 10.301 M176.709 18.707 C 176.395 20.660,174.835 22.493,173.087 22.962 C 172.600 23.092,172.202 23.254,172.202 23.321 C 172.202 23.388,172.600 23.550,173.087 23.681 C 174.835 24.150,176.395 25.983,176.709 27.935 L 176.854 28.839 177.094 27.798 C 177.567 25.738,178.957 24.145,180.687 23.681 C 181.174 23.550,181.572 23.388,181.572 23.321 C 181.572 23.254,181.174 23.092,180.687 22.962 C 178.957 22.497,177.567 20.905,177.094 18.844 L 176.854 17.803 176.709 18.707 M187.996 36.264 C 185.226 36.475,183.694 37.287,182.749 39.042 C 182.308 39.862,182.300 40.053,182.241 51.561 L 182.181 63.246 183.738 63.986 C 190.734 67.309,195.523 74.671,195.523 82.108 L 195.523 82.978 208.902 82.978 C 225.719 82.978,223.842 83.701,223.842 77.221 C 223.842 71.596,223.801 71.530,220.177 71.274 L 218.428 71.151 218.428 56.019 C 218.428 39.385,218.433 39.462,217.171 38.024 C 216.338 37.075,214.739 36.425,212.933 36.301 C 210.609 36.142,190.002 36.111,187.996 36.264 M129.016 53.410 L 128.008 55.000 128.591 55.609 L 129.175 56.218 128.736 56.688 L 128.297 57.158 129.098 65.487 L 129.899 73.816 129.031 75.213 C 127.969 76.921,128.089 76.918,127.003 75.251 L 126.107 73.876 126.902 65.455 L 127.697 57.035 127.252 56.561 L 126.807 56.087 127.322 55.603 C 127.605 55.337,127.793 55.047,127.739 54.960 C 127.626 54.777,123.200 52.264,122.991 52.264 C 122.915 52.264,122.853 58.074,122.853 65.174 L 122.853 78.084 124.402 78.084 C 125.254 78.084,126.009 77.991,126.080 77.876 C 126.151 77.762,126.649 77.668,127.187 77.668 C 128.088 77.668,128.284 77.565,129.667 76.366 L 131.168 75.065 131.169 64.133 L 131.170 53.201 130.597 52.510 L 130.023 51.819 129.016 53.410 M152.108 65.104 C 151.765 65.146,151.202 65.226,150.859 65.281 L 150.234 65.382 150.227 70.120 C 150.213 78.823,147.005 83.887,140.162 86.004 C 139.089 86.336,139.011 86.408,138.636 87.414 C 138.418 87.997,137.823 88.938,137.312 89.506 L 136.385 90.538 136.438 105.738 L 136.491 120.939 138.261 119.356 L 140.031 117.773 140.135 115.160 L 140.239 112.546 143.178 112.488 L 146.117 112.430 149.165 109.725 L 152.212 107.019 152.212 104.525 L 152.212 102.030 155.040 102.030 L 157.867 102.030 159.048 101.005 L 160.229 99.979 168.974 99.891 C 178.793 99.792,180.056 99.645,181.095 98.479 C 181.475 98.052,181.954 97.818,182.795 97.649 C 184.823 97.242,187.645 94.901,189.492 92.096 C 196.625 81.257,190.056 66.956,177.132 65.189 C 175.635 64.984,153.708 64.910,152.108 65.104 M143.646 68.247 C 143.344 68.447,142.340 69.266,141.414 70.068 L 139.731 71.525 139.725 73.241 C 139.719 74.877,139.752 75.001,140.429 75.887 C 140.819 76.398,141.250 77.157,141.388 77.572 L 141.637 78.328 142.254 77.738 C 143.866 76.194,144.676 72.497,144.266 68.559 L 144.196 67.884 143.646 68.247 M124.102 108.173 L 124.102 124.935 123.581 124.935 C 123.133 124.935,123.061 125.029,123.061 125.612 L 123.061 126.288 124.485 126.288 C 125.721 126.288,126.048 126.375,126.968 126.947 C 127.831 127.483,128.050 127.548,128.147 127.294 C 128.213 127.123,128.267 118.979,128.267 109.197 L 128.267 91.411 126.184 91.411 L 124.102 91.411 124.102 108.173 M80.093 124.227 C 60.526 141.508,44.362 155.712,44.174 155.790 C 43.986 155.867,41.415 155.938,38.461 155.946 C 30.161 155.968,27.022 156.940,23.055 160.714 C 13.445 169.859,17.072 185.644,29.776 189.958 L 31.754 190.630 42.686 190.630 C 52.704 190.630,53.735 190.597,55.023 190.242 L 56.429 189.855 56.429 187.067 L 56.429 184.279 60.591 184.279 L 64.752 184.279 66.521 182.706 L 68.289 181.133 68.345 177.240 L 68.402 173.347 72.848 173.291 L 77.293 173.235 78.834 171.850 L 80.375 170.466 80.375 166.857 L 80.375 163.248 84.487 163.241 L 88.600 163.233 90.420 161.627 L 92.239 160.021 92.242 157.158 L 92.244 154.295 95.490 154.295 L 98.736 154.295 101.513 151.848 L 104.289 149.401 104.305 146.642 L 104.321 143.883 107.403 143.883 L 110.484 143.883 113.337 141.369 L 116.189 138.854 116.189 136.163 C 116.189 133.669,116.161 133.472,115.799 133.472 C 115.262 133.472,114.914 133.017,115.157 132.632 C 115.263 132.464,115.352 131.419,115.353 130.310 C 115.357 127.918,115.559 127.270,116.400 126.953 C 117.353 126.593,117.352 124.935,116.399 124.935 L 115.776 124.935 115.722 108.870 L 115.669 92.805 80.093 124.227 M183.550 101.197 C 183.207 101.289,182.383 101.563,181.721 101.806 C 179.089 102.770,178.044 102.863,169.834 102.863 L 162.080 102.863 157.509 106.871 C 154.994 109.076,152.516 111.207,152.002 111.607 C 151.488 112.007,151.037 112.403,151.000 112.486 C 150.934 112.634,142.383 120.192,140.192 122.039 C 139.594 122.544,134.206 127.267,128.219 132.535 C 122.232 137.803,116.898 142.488,116.364 142.946 C 115.831 143.404,113.161 145.748,110.430 148.155 C 107.700 150.561,105.033 152.904,104.505 153.360 C 103.976 153.817,101.262 156.205,98.473 158.667 C 95.684 161.130,93.014 163.472,92.540 163.873 C 92.066 164.274,89.206 166.791,86.183 169.467 C 83.160 172.143,80.078 174.869,79.334 175.523 C 68.827 184.764,63.156 189.736,61.247 191.380 L 58.925 193.380 55.855 193.555 C 52.463 193.748,38.264 193.743,23.269 193.544 L 13.535 193.415 13.535 196.655 L 13.535 199.896 6.767 199.896 L 0.000 199.896 0.000 205.102 L 0.000 210.307 198.230 210.307 L 396.460 210.307 396.460 205.102 L 396.460 199.896 390.109 199.896 L 383.758 199.896 383.758 196.668 L 383.758 193.441 361.114 193.435 L 338.470 193.428 334.148 189.627 C 331.770 187.536,329.680 185.618,329.503 185.365 C 329.325 185.111,329.086 184.904,328.970 184.904 C 328.714 184.904,318.728 176.184,317.855 175.198 C 317.512 174.810,317.155 174.492,317.064 174.492 C 316.824 174.492,306.764 165.659,305.831 164.630 C 305.402 164.156,305.050 163.841,305.050 163.928 C 305.050 164.054,295.547 155.840,294.222 154.569 C 293.950 154.309,294.683 154.278,299.896 154.334 L 305.883 154.399 305.883 153.834 L 305.882 153.268 299.342 153.290 L 292.801 153.311 287.469 148.649 L 282.137 143.988 288.075 143.932 L 294.014 143.877 294.014 143.360 L 294.014 142.842 287.437 142.842 L 280.860 142.842 275.572 138.209 L 270.285 133.576 276.111 133.521 L 281.936 133.466 281.936 132.948 L 281.936 132.431 275.462 132.431 L 268.988 132.431 263.708 127.798 L 258.429 123.165 264.248 123.110 L 270.068 123.054 270.068 122.444 L 270.068 121.834 263.505 121.848 L 256.943 121.862 251.793 117.342 C 248.960 114.856,246.609 112.730,246.568 112.617 C 246.520 112.484,248.523 112.435,252.242 112.478 L 257.991 112.546 257.991 111.946 L 257.991 111.347 254.399 111.409 C 252.423 111.443,249.495 111.451,247.892 111.427 L 244.977 111.382 239.840 106.862 C 237.015 104.377,234.627 102.265,234.533 102.171 C 234.439 102.077,237.008 102.030,240.242 102.067 L 246.122 102.134 246.122 101.574 L 246.122 101.014 215.148 101.022 C 198.113 101.026,183.894 101.105,183.550 101.197 M277.237 156.016 L 327.405 199.792 263.026 199.844 C 227.617 199.873,169.695 199.873,134.310 199.844 L 69.973 199.792 120.099 156.029 L 170.224 112.267 198.647 112.253 L 227.069 112.239 277.237 156.016 M366.951 124.785 C 366.558 125.219,366.518 125.711,366.293 132.847 C 366.162 137.028,365.997 141.448,365.927 142.671 L 365.800 144.894 367.773 144.776 C 369.140 144.695,369.792 144.732,369.894 144.896 C 369.976 145.028,370.567 145.133,371.236 145.133 L 372.433 145.133 372.784 134.997 C 372.977 129.423,373.098 124.824,373.051 124.778 C 373.004 124.731,372.062 125.180,370.958 125.776 L 368.949 126.859 369.375 127.313 C 369.758 127.720,369.769 127.799,369.483 128.086 C 369.196 128.372,369.206 129.082,369.578 135.051 L 369.992 141.697 369.250 142.790 C 368.333 144.140,368.319 144.140,367.523 142.749 L 366.874 141.615 367.740 135.024 C 368.532 128.984,368.577 128.404,368.272 128.099 C 367.967 127.795,367.978 127.726,368.400 127.276 L 368.862 126.785 368.241 125.633 C 367.481 124.223,367.468 124.214,366.951 124.785 M305.049 162.796 L 305.050 163.352 311.505 163.352 L 317.959 163.352 317.959 162.793 L 317.959 162.233 311.504 162.236 L 305.049 162.239 305.049 162.796 M316.990 172.523 C 316.721 173.225,317.000 173.259,323.428 173.303 L 329.828 173.347 329.828 172.789 L 329.828 172.230 323.465 172.231 C 318.218 172.232,317.082 172.284,316.990 172.523 M328.995 183.758 L 328.995 184.279 335.450 184.279 L 341.905 184.279 341.905 183.758 L 341.905 183.238 335.450 183.238 L 328.995 183.238 328.995 183.758 " stroke="none" fill="#efebeb" fill-rule="evenodd"></path><path id="path2" d="M200.101 0.440 C 200.091 2.169,201.441 15.537,201.639 15.666 C 201.768 15.750,202.690 15.820,203.687 15.822 L 205.499 15.825 205.607 15.148 C 205.667 14.776,205.953 11.801,206.243 8.537 C 206.534 5.273,206.824 2.176,206.887 1.654 L 207.004 0.704 204.647 0.456 C 203.351 0.319,201.799 0.147,201.197 0.075 C 200.147 -0.053,200.104 -0.038,200.101 0.440 M217.866 10.152 C 216.584 14.246,215.506 17.762,215.472 17.967 C 215.411 18.325,218.587 19.995,219.311 19.986 C 219.601 19.983,227.516 6.937,227.338 6.758 C 227.220 6.641,220.331 2.706,220.247 2.708 C 220.220 2.709,219.149 6.058,217.866 10.152 M232.589 19.662 C 229.902 22.919,227.682 25.660,227.656 25.754 C 227.630 25.847,228.144 26.512,228.797 27.230 L 229.984 28.536 236.231 24.041 C 239.667 21.568,242.562 19.462,242.665 19.361 C 242.821 19.209,238.067 13.977,237.608 13.794 C 237.534 13.765,235.276 16.405,232.589 19.662 M198.525 22.813 L 196.841 26.047 194.186 23.122 C 192.725 21.514,191.463 20.198,191.380 20.198 C 191.298 20.198,191.067 21.624,190.867 23.367 C 190.667 25.110,190.468 26.572,190.424 26.616 C 190.380 26.659,189.144 25.651,187.676 24.376 L 185.008 22.056 184.945 22.984 C 184.891 23.784,185.242 24.747,187.469 29.916 L 190.056 35.919 200.095 36.102 C 208.534 36.256,210.178 36.239,210.408 35.998 C 211.154 35.214,215.740 23.859,215.679 22.947 L 215.617 22.030 212.947 24.361 C 211.478 25.643,210.237 26.652,210.188 26.603 C 210.140 26.555,209.939 25.094,209.743 23.356 C 209.546 21.619,209.317 20.198,209.233 20.198 C 209.149 20.198,207.888 21.514,206.431 23.124 L 203.781 26.049 202.258 23.176 C 201.421 21.595,200.681 20.138,200.614 19.938 C 200.400 19.297,200.240 19.518,198.525 22.813 M126.535 23.685 C 128.732 23.719,132.386 23.719,134.656 23.685 C 136.925 23.652,135.128 23.624,130.661 23.624 C 126.195 23.624,124.338 23.652,126.535 23.685 M116.700 29.208 C 116.644 29.353,116.625 31.672,116.658 34.361 L 116.718 39.250 116.766 34.215 L 116.814 29.179 117.387 29.092 L 117.959 29.006 117.380 28.974 C 117.062 28.957,116.755 29.062,116.700 29.208 M201.253 30.196 L 202.069 31.032 201.212 31.889 L 200.355 32.746 199.449 31.899 L 198.542 31.051 199.366 30.205 C 200.367 29.177,200.258 29.177,201.253 30.196 M206.252 30.788 L 207.065 31.696 206.295 32.402 C 205.334 33.282,205.143 33.281,204.282 32.393 L 203.590 31.679 204.398 30.735 C 205.339 29.634,205.216 29.631,206.252 30.788 M196.210 30.775 L 196.982 31.565 196.148 32.378 L 195.315 33.192 194.482 32.378 L 193.648 31.565 194.420 30.775 C 194.844 30.340,195.247 29.984,195.315 29.984 C 195.383 29.984,195.786 30.340,196.210 30.775 M191.879 31.442 L 192.693 32.275 191.876 33.111 L 191.059 33.947 190.236 33.124 L 189.413 32.301 190.125 31.473 C 191.010 30.445,190.907 30.446,191.879 31.442 M210.520 31.474 L 211.264 32.338 210.430 33.116 L 209.596 33.894 208.731 33.142 L 207.866 32.390 208.610 31.499 C 209.526 30.403,209.597 30.402,210.520 31.474 M114.775 39.811 C 114.751 42.638,114.802 44.996,114.888 45.049 C 114.974 45.102,115.020 43.585,114.991 41.678 C 114.892 35.274,114.818 34.633,114.775 39.811 M111.544 37.213 C 111.804 37.261,112.042 37.493,112.098 37.753 C 112.181 38.133,112.192 38.123,112.163 37.689 C 112.137 37.287,112.010 37.164,111.609 37.148 C 111.182 37.132,111.170 37.143,111.544 37.213 M129.884 38.673 C 130.258 38.719,130.820 38.718,131.133 38.670 C 131.446 38.623,131.140 38.585,130.453 38.586 C 129.766 38.587,129.510 38.626,129.884 38.673 M136.366 42.541 C 136.459 42.633,137.087 42.679,137.762 42.643 L 138.990 42.577 137.594 42.475 C 136.826 42.419,136.274 42.449,136.366 42.541 M120.935 42.632 C 121.655 42.673,122.779 42.673,123.433 42.632 C 124.087 42.590,123.498 42.557,122.124 42.557 C 120.750 42.558,120.214 42.591,120.935 42.632 M224.388 45.801 C 224.218 46.862,223.064 48.189,222.008 48.538 L 221.242 48.790 222.074 49.149 C 223.225 49.647,224.064 50.609,224.359 51.769 L 224.608 52.750 224.843 51.814 C 225.165 50.538,225.803 49.796,227.052 49.244 L 228.105 48.779 227.452 48.636 C 226.404 48.406,225.317 47.310,224.895 46.059 L 224.523 44.955 224.388 45.801 M233.346 47.859 C 233.038 49.779,231.656 51.453,229.792 52.165 L 228.807 52.542 229.742 52.897 C 231.644 53.619,232.731 54.868,233.320 57.007 C 233.556 57.862,233.594 57.907,233.610 57.355 C 233.659 55.680,235.169 53.772,237.052 53.007 L 238.242 52.523 237.260 52.188 C 235.306 51.522,234.134 50.170,233.720 48.103 L 233.491 46.955 233.346 47.859 M122.644 50.522 L 122.644 51.223 126.288 51.223 L 129.932 51.223 129.932 50.703 L 129.932 50.182 127.173 50.173 C 125.656 50.168,124.016 50.087,123.529 49.993 L 122.644 49.822 122.644 50.522 M229.319 65.802 C 228.651 66.070,228.150 67.161,228.308 68.002 C 228.530 69.183,229.236 69.547,231.314 69.548 L 233.108 69.550 235.971 72.050 L 238.834 74.551 238.834 87.770 L 238.834 100.989 239.665 100.989 L 240.496 100.989 240.550 88.532 L 240.604 76.074 245.651 80.463 L 250.697 84.852 250.700 98.126 L 250.703 111.400 251.534 111.400 L 252.365 111.400 252.419 98.907 L 252.473 86.414 257.522 90.809 L 262.572 95.205 262.572 108.508 L 262.572 121.812 263.509 121.812 L 264.446 121.812 264.446 109.405 C 264.446 102.581,264.526 97.029,264.624 97.067 C 264.722 97.106,267.014 99.058,269.718 101.406 L 274.634 105.674 274.641 119.053 L 274.649 132.431 275.480 132.431 L 276.311 132.431 276.365 119.847 L 276.419 107.264 281.468 111.657 L 286.517 116.051 286.517 129.447 L 286.517 142.842 287.453 142.842 L 288.388 142.842 288.442 130.310 L 288.496 117.778 293.532 122.137 L 298.569 126.497 298.582 139.875 L 298.594 153.254 299.426 153.254 L 300.257 153.254 300.311 140.682 L 300.364 128.111 305.414 132.506 L 310.463 136.900 310.463 149.554 L 310.463 162.207 311.294 162.207 L 312.126 162.207 312.179 150.328 L 312.233 138.450 317.335 142.895 L 322.436 147.341 322.490 159.772 L 322.544 172.202 323.373 172.202 L 324.203 172.202 324.256 160.577 L 324.310 148.951 329.308 153.309 L 334.305 157.667 334.442 163.113 C 334.517 166.108,334.526 171.861,334.462 175.898 L 334.344 183.238 335.208 183.238 L 336.072 183.238 336.125 171.281 L 336.179 159.324 337.495 160.453 L 338.810 161.583 341.829 161.583 C 345.730 161.583,346.792 160.925,345.990 159.005 C 345.588 158.044,345.499 158.009,342.757 157.744 L 340.344 157.511 287.814 111.764 C 258.923 86.603,235.106 65.921,234.887 65.804 C 234.404 65.545,229.959 65.543,229.319 65.802 M126.132 77.893 C 125.881 78.039,125.768 78.364,125.768 78.940 C 125.768 79.443,125.850 79.724,125.976 79.646 C 126.091 79.575,126.184 79.242,126.184 78.905 C 126.184 78.354,126.252 78.292,126.861 78.286 C 127.233 78.282,127.720 78.142,127.942 77.974 C 128.440 77.597,126.768 77.522,126.132 77.893 M109.385 82.041 C 109.385 82.785,109.423 83.090,109.469 82.717 C 109.515 82.345,109.515 81.736,109.469 81.364 C 109.423 80.992,109.385 81.296,109.385 82.041 M116.670 82.353 C 116.672 83.040,116.710 83.296,116.757 82.922 C 116.803 82.548,116.802 81.985,116.755 81.672 C 116.707 81.360,116.669 81.666,116.670 82.353 M361.322 101.765 C 361.752 101.810,362.454 101.810,362.884 101.765 C 363.313 101.721,362.962 101.684,362.103 101.684 C 361.244 101.684,360.893 101.721,361.322 101.765 M367.361 101.974 C 367.790 102.019,368.493 102.019,368.922 101.974 C 369.352 101.929,369.001 101.892,368.142 101.892 C 367.283 101.892,366.931 101.929,367.361 101.974 M373.334 102.147 C 373.671 102.211,373.989 102.400,374.042 102.567 C 374.103 102.761,374.126 102.737,374.105 102.503 C 374.082 102.245,373.870 102.119,373.398 102.082 C 372.754 102.033,372.751 102.036,373.334 102.147 M378.415 109.943 C 378.415 110.802,378.451 111.153,378.496 110.724 C 378.541 110.294,378.541 109.591,378.496 109.162 C 378.451 108.732,378.415 109.084,378.415 109.943 M381.956 113.387 C 381.888 113.564,381.891 113.767,381.963 113.839 C 382.034 113.910,382.093 113.819,382.093 113.636 C 382.093 113.453,382.303 113.263,382.561 113.213 L 383.030 113.123 382.555 113.094 C 382.293 113.079,382.024 113.211,381.956 113.387 M367.517 123.274 C 367.517 123.736,368.428 123.889,371.213 123.892 C 373.288 123.894,373.347 123.881,373.347 123.425 C 373.346 122.963,373.309 122.957,370.431 122.937 C 367.809 122.919,367.517 122.952,367.517 123.274 M123.581 126.375 C 121.924 126.790,120.537 128.073,120.131 129.564 C 119.999 130.053,119.857 130.570,119.816 130.713 C 119.767 130.887,119.292 130.973,118.382 130.973 L 117.022 130.973 117.022 128.891 C 117.022 126.672,116.966 126.570,116.113 127.241 C 115.578 127.662,115.565 127.730,115.565 130.039 C 115.565 131.393,115.476 132.462,115.357 132.535 C 114.438 133.103,115.208 133.264,118.844 133.263 L 122.540 133.262 125.417 130.740 L 128.294 128.219 127.812 127.702 C 126.824 126.644,124.907 126.042,123.581 126.375 M366.930 144.883 C 366.759 145.000,366.680 145.379,366.722 145.883 L 366.788 146.694 368.346 146.694 L 369.904 146.694 370.030 145.923 C 370.124 145.344,370.077 145.121,369.842 145.031 C 369.241 144.800,367.202 144.696,366.930 144.883 M369.703 145.862 C 369.703 146.611,367.656 146.947,367.108 146.287 C 366.879 146.011,366.920 145.966,367.400 145.966 C 367.719 145.966,367.903 145.876,367.829 145.757 C 367.758 145.643,367.513 145.549,367.284 145.549 C 367.047 145.549,366.926 145.455,367.002 145.332 C 367.365 144.745,369.703 145.204,369.703 145.862 " stroke="none" fill="#d3a34f" fill-rule="evenodd"></path><path id="path3" d="M123.529 78.236 C 123.959 78.281,124.662 78.281,125.091 78.236 C 125.521 78.191,125.169 78.154,124.310 78.154 C 123.451 78.154,123.100 78.191,123.529 78.236 M195.372 82.041 C 195.372 82.556,195.412 82.767,195.462 82.509 C 195.512 82.251,195.512 81.830,195.462 81.572 C 195.412 81.314,195.372 81.525,195.372 82.041 M141.650 82.249 C 141.650 82.764,141.690 82.975,141.740 82.717 C 141.790 82.460,141.790 82.038,141.740 81.780 C 141.690 81.523,141.650 81.733,141.650 82.249 M234.992 102.413 C 235.101 102.509,237.158 104.305,239.563 106.405 C 241.968 108.504,244.240 110.506,244.612 110.852 L 245.289 111.482 245.289 106.860 L 245.289 102.238 240.042 102.238 C 237.156 102.238,234.883 102.317,234.992 102.413 M156.942 106.898 C 152.748 110.613,151.256 111.990,152.317 111.172 C 152.623 110.936,159.493 104.965,161.676 103.038 C 161.801 102.927,161.801 102.866,161.676 102.872 C 161.567 102.877,159.437 104.689,156.942 106.898 M251.067 111.547 C 251.325 111.597,251.746 111.597,252.004 111.547 C 252.262 111.498,252.051 111.457,251.536 111.457 C 251.020 111.457,250.809 111.498,251.067 111.547 M148.048 114.749 C 146.616 116.011,145.164 117.335,144.820 117.690 C 144.477 118.046,145.672 117.044,147.475 115.465 C 150.371 112.930,150.912 112.424,150.703 112.447 C 150.674 112.451,149.479 113.486,148.048 114.749 M246.966 112.917 C 247.449 113.296,255.699 120.531,256.481 121.261 L 257.158 121.893 257.158 117.271 L 257.158 112.650 251.900 112.656 C 247.728 112.662,246.709 112.715,246.966 112.917 M143.248 119.053 L 142.530 119.833 143.311 119.116 C 144.038 118.448,144.187 118.272,144.028 118.272 C 143.994 118.272,143.642 118.623,143.248 119.053 M141.582 120.510 L 140.864 121.291 141.645 120.573 C 142.372 119.906,142.522 119.729,142.363 119.729 C 142.328 119.729,141.976 120.081,141.582 120.510 M263.147 121.959 C 263.406 122.009,263.780 122.007,263.980 121.955 C 264.179 121.903,263.967 121.862,263.509 121.864 C 263.050 121.866,262.888 121.909,263.147 121.959 M129.672 123.007 C 130.502 123.047,131.861 123.047,132.691 123.007 C 133.522 122.968,132.842 122.935,131.182 122.935 C 129.521 122.935,128.842 122.968,129.672 123.007 M137.936 123.738 L 137.324 124.414 138.001 123.803 C 138.373 123.466,138.678 123.162,138.678 123.126 C 138.678 122.965,138.506 123.107,137.936 123.738 M258.730 123.243 C 258.839 123.343,260.942 125.183,263.404 127.331 C 265.867 129.480,268.186 131.525,268.558 131.875 L 269.235 132.513 269.235 127.787 L 269.235 123.061 263.883 123.061 C 260.815 123.061,258.616 123.139,258.730 123.243 M136.270 125.195 L 135.659 125.872 136.335 125.260 C 136.707 124.924,137.012 124.619,137.012 124.584 C 137.012 124.423,136.840 124.564,136.270 125.195 M134.604 126.653 L 133.993 127.330 134.669 126.718 C 135.300 126.148,135.442 125.976,135.281 125.976 C 135.245 125.976,134.941 126.281,134.604 126.653 M115.434 130.349 C 115.434 131.551,115.468 132.043,115.510 131.442 C 115.552 130.841,115.552 129.857,115.510 129.256 C 115.468 128.654,115.434 129.146,115.434 130.349 M270.599 133.653 C 270.707 133.753,272.811 135.594,275.273 137.745 C 277.736 139.896,280.055 141.941,280.427 142.290 L 281.104 142.924 281.104 138.198 L 281.104 133.472 275.752 133.472 C 272.706 133.472,270.486 133.550,270.599 133.653 M282.569 144.164 C 284.188 145.652,292.955 153.254,293.053 153.254 C 293.123 153.254,293.181 151.145,293.181 148.568 L 293.181 143.883 287.722 143.883 C 283.135 143.883,282.312 143.928,282.569 144.164 M370.484 145.276 C 370.685 145.329,371.012 145.329,371.213 145.276 C 371.413 145.224,371.249 145.181,370.849 145.181 C 370.448 145.181,370.284 145.224,370.484 145.276 M294.545 154.679 C 294.653 154.776,297.041 156.872,299.851 159.336 L 304.959 163.816 305.022 159.160 L 305.084 154.503 299.715 154.503 C 296.763 154.503,294.436 154.582,294.545 154.679 M36.920 155.908 C 38.272 155.944,40.427 155.944,41.709 155.908 C 42.991 155.871,41.884 155.841,39.250 155.841 C 36.616 155.842,35.567 155.871,36.920 155.908 M311.038 162.354 C 311.297 162.404,311.672 162.402,311.871 162.350 C 312.070 162.298,311.858 162.257,311.400 162.260 C 310.942 162.262,310.779 162.305,311.038 162.354 M305.674 163.944 C 305.674 164.344,316.538 174.284,316.976 174.284 C 317.016 174.284,317.072 171.848,317.101 168.870 L 317.154 163.457 311.414 163.457 L 305.674 163.457 305.674 163.944 M322.905 172.349 C 323.162 172.399,323.584 172.399,323.842 172.349 C 324.099 172.299,323.889 172.259,323.373 172.259 C 322.858 172.259,322.647 172.299,322.905 172.349 M317.751 174.242 C 317.751 175.015,317.870 175.137,323.340 179.939 L 328.929 184.846 328.975 179.149 L 329.022 173.451 323.387 173.451 L 317.751 173.451 317.751 174.242 M329.659 184.910 C 329.714 185.441,330.436 186.169,334.201 189.483 L 338.678 193.424 339.875 193.432 L 341.072 193.441 341.072 188.860 L 341.072 184.279 335.333 184.279 L 329.594 184.279 329.659 184.910 M60.489 191.366 C 59.917 191.702,58.769 192.226,57.939 192.529 C 56.141 193.185,56.032 193.441,57.548 193.441 C 58.696 193.441,58.980 193.260,61.520 190.917 C 61.856 190.607,61.573 190.730,60.489 191.366 M38.365 193.805 C 40.856 193.838,44.932 193.838,47.423 193.805 C 49.914 193.772,47.876 193.745,42.894 193.745 C 37.913 193.745,35.875 193.772,38.365 193.805 " stroke="none" fill="#a7a0a0" fill-rule="evenodd"></path><path id="path4" d="M122.496 24.778 C 121.976 26.968,120.336 28.499,117.983 28.992 L 116.814 29.237 116.814 34.438 C 116.814 41.918,117.172 42.478,121.955 42.478 L 124.456 42.478 125.086 41.465 C 127.473 37.625,133.440 37.636,135.832 41.485 L 136.474 42.518 138.061 42.446 C 141.620 42.284,141.887 41.631,141.970 32.876 L 142.035 26.085 141.195 25.951 C 140.310 25.810,138.886 24.633,138.886 24.043 C 138.886 23.780,137.769 23.738,130.815 23.738 L 122.743 23.738 122.496 24.778 M110.672 31.003 C 110.442 31.101,110.200 31.150,110.132 31.112 C 109.666 30.847,108.611 32.547,108.528 33.697 C 108.382 35.715,109.150 36.746,110.996 37.010 C 112.000 37.154,112.135 37.232,112.181 37.691 C 112.367 39.527,113.675 43.466,114.387 44.333 C 114.902 44.959,114.950 33.797,114.437 32.702 C 113.755 31.247,111.976 30.444,110.672 31.003 M192.556 36.178 C 193.959 36.214,196.255 36.214,197.657 36.178 C 199.060 36.142,197.913 36.113,195.107 36.113 C 192.301 36.113,191.153 36.142,192.556 36.178 M122.644 51.616 C 122.644 51.933,126.182 54.175,127.871 54.928 C 128.081 55.022,129.932 52.035,129.932 51.603 C 129.932 51.250,129.676 51.223,126.288 51.223 C 122.857 51.223,122.644 51.246,122.644 51.616 M112.138 74.667 C 109.973 75.460,109.446 76.662,109.507 80.670 C 109.557 83.979,109.838 85.079,110.760 85.572 C 110.980 85.690,111.316 85.943,111.508 86.134 C 111.990 86.616,113.369 86.577,114.561 86.049 C 117.922 84.559,117.223 78.785,113.608 78.174 L 112.772 78.033 113.254 77.642 C 113.520 77.427,113.965 77.251,114.244 77.251 C 114.848 77.251,115.773 76.392,115.773 75.831 C 115.773 74.501,114.076 73.958,112.138 74.667 M139.719 77.948 C 139.719 80.652,139.699 80.791,139.302 80.791 C 138.907 80.791,138.886 80.930,138.886 83.608 L 138.886 86.424 139.459 86.125 C 141.195 85.218,141.593 84.210,141.593 80.714 C 141.593 77.779,141.228 76.470,140.131 75.477 C 139.722 75.108,139.719 75.128,139.719 77.948 M358.431 106.956 C 358.056 118.580,358.143 119.215,360.366 121.173 C 362.857 123.365,372.422 123.837,376.262 121.957 C 379.125 120.555,381.374 117.411,381.815 114.194 C 381.956 113.166,381.982 113.144,383.238 112.981 C 383.696 112.922,384.096 112.870,384.126 112.866 C 384.156 112.861,384.367 112.553,384.594 112.181 C 385.456 110.768,384.874 108.677,383.546 108.411 C 381.128 107.928,380.200 108.660,380.055 111.165 C 379.945 113.064,379.620 113.526,378.730 113.049 C 378.293 112.816,378.285 112.732,378.408 109.737 L 378.534 106.663 377.696 106.551 C 376.022 106.326,374.629 104.980,374.151 103.123 C 374.025 102.637,373.910 102.231,373.895 102.222 C 373.880 102.213,370.682 102.077,366.788 101.919 C 362.894 101.761,359.462 101.572,359.160 101.499 L 358.612 101.366 358.431 106.956 M338.312 119.892 C 336.602 121.958,336.388 122.355,336.659 122.951 C 336.962 123.616,339.972 125.977,340.512 125.973 C 340.922 125.970,341.819 125.570,341.432 125.563 C 341.344 125.561,341.976 124.713,342.838 123.678 C 344.864 121.243,344.879 121.403,342.451 119.434 C 340.391 117.762,340.042 117.801,338.312 119.892 M367.517 123.997 C 367.517 124.277,368.513 126.291,368.892 126.780 C 369.037 126.965,373.347 124.464,373.347 124.195 C 373.347 123.952,372.934 123.893,371.213 123.892 C 370.039 123.890,368.727 123.831,368.298 123.760 C 367.642 123.652,367.517 123.690,367.517 123.997 M388.131 145.050 C 387.387 145.210,386.297 145.439,385.710 145.559 C 384.268 145.853,383.319 147.236,383.177 149.253 C 383.054 150.988,383.581 151.781,384.191 150.778 C 384.393 150.447,384.652 150.117,384.768 150.046 C 385.058 149.866,385.298 150.717,385.044 151.025 C 384.702 151.441,386.270 151.415,388.589 150.965 C 389.743 150.741,390.703 150.532,390.722 150.500 C 390.741 150.468,390.908 150.199,391.094 149.900 C 391.352 149.487,391.391 149.166,391.257 148.547 C 391.161 148.101,390.974 147.197,390.842 146.538 C 390.602 145.349,390.200 144.697,389.730 144.737 C 389.595 144.749,388.876 144.889,388.131 145.050 " stroke="none" fill="#fbc47c" fill-rule="evenodd"></path><path id="path5" d="M199.375 30.193 L 198.542 31.051 199.449 31.899 L 200.355 32.746 201.215 31.886 L 202.076 31.026 201.250 30.245 L 200.424 29.464 201.138 30.245 L 201.852 31.026 201.134 31.768 L 200.416 32.510 200.312 30.923 L 200.208 29.336 199.375 30.193 M194.420 30.775 L 193.648 31.565 194.482 32.378 L 195.315 33.192 196.148 32.378 L 196.982 31.565 196.210 30.775 C 195.786 30.340,195.383 29.984,195.315 29.984 C 195.247 29.984,194.844 30.340,194.420 30.775 M190.125 31.473 L 189.413 32.301 190.236 33.124 L 191.059 33.947 191.876 33.111 L 192.693 32.275 191.879 31.442 C 190.907 30.446,191.010 30.445,190.125 31.473 M203.949 31.242 C 203.571 31.660,203.578 31.681,204.381 32.440 L 205.198 33.212 204.488 32.436 C 203.796 31.677,203.788 31.650,204.160 31.238 C 204.370 31.007,204.495 30.817,204.437 30.817 C 204.380 30.817,204.160 31.009,203.949 31.242 M206.446 31.185 C 206.835 31.653,206.832 31.664,206.235 32.331 L 205.632 33.004 206.351 32.328 L 207.070 31.652 206.562 31.183 L 206.054 30.713 206.446 31.185 M140.937 45.613 C 140.637 46.177,140.476 46.585,140.579 46.522 C 140.802 46.383,141.652 44.758,141.553 44.659 C 141.515 44.621,141.238 45.050,140.937 45.613 M115.973 46.070 C 116.483 46.614,116.928 47.059,116.962 47.059 C 117.118 47.059,116.953 46.872,116.033 46.009 L 115.044 45.081 115.973 46.070 M139.397 47.736 L 138.574 48.621 139.459 47.797 C 140.282 47.032,140.439 46.851,140.282 46.851 C 140.248 46.851,139.849 47.249,139.397 47.736 M117.741 47.668 C 117.886 47.902,119.738 48.993,119.832 48.899 C 119.870 48.860,119.390 48.526,118.764 48.156 C 118.139 47.786,117.679 47.566,117.741 47.668 M125.508 50.129 C 126.338 50.168,127.697 50.168,128.527 50.129 C 129.357 50.089,128.678 50.057,127.017 50.057 C 125.357 50.057,124.677 50.089,125.508 50.129 M125.612 79.021 C 125.614 79.479,125.657 79.642,125.707 79.383 C 125.757 79.124,125.755 78.749,125.703 78.550 C 125.651 78.351,125.610 78.563,125.612 79.021 M363.927 101.761 C 364.186 101.811,364.561 101.809,364.760 101.757 C 364.959 101.705,364.748 101.664,364.289 101.666 C 363.831 101.669,363.668 101.711,363.927 101.761 M369.966 101.969 C 370.225 102.019,370.600 102.017,370.799 101.965 C 370.998 101.913,370.786 101.872,370.328 101.874 C 369.870 101.877,369.707 101.919,369.966 101.969 M378.393 112.025 C 378.393 112.426,378.436 112.590,378.488 112.389 C 378.541 112.189,378.541 111.861,378.488 111.661 C 378.436 111.460,378.393 111.624,378.393 112.025 M368.503 127.370 C 368.199 127.674,368.191 127.768,368.441 128.047 C 368.692 128.325,368.620 129.213,367.924 134.409 C 366.957 141.629,366.958 141.588,367.641 142.753 C 368.312 143.898,368.386 143.897,369.194 142.722 L 369.850 141.769 369.475 135.131 C 369.122 128.876,369.121 128.471,369.456 128.102 C 369.791 127.732,369.789 127.690,369.428 127.363 C 368.956 126.936,368.937 126.936,368.503 127.370 M369.235 145.264 C 370.190 145.546,369.650 146.358,368.453 146.441 L 367.307 146.520 368.505 146.503 C 369.777 146.485,370.474 145.322,369.287 145.200 C 368.963 145.166,368.952 145.181,369.235 145.264 M369.999 146.018 C 369.937 146.465,369.969 146.720,370.074 146.615 C 370.174 146.515,370.223 146.164,370.182 145.835 C 370.113 145.284,370.099 145.299,369.999 146.018 M368.610 146.942 C 368.811 146.994,369.138 146.994,369.339 146.942 C 369.539 146.890,369.375 146.847,368.974 146.847 C 368.574 146.847,368.410 146.890,368.610 146.942 M330.927 166.680 C 330.092 167.043,328.242 168.922,328.337 169.311 C 328.400 169.568,333.963 174.078,334.429 174.250 C 334.537 174.289,334.617 172.753,334.617 170.647 L 334.617 166.975 333.895 166.673 C 332.993 166.297,331.803 166.299,330.927 166.680 M338.011 172.607 C 337.127 173.711,336.984 173.813,336.687 173.544 C 336.504 173.379,336.292 173.243,336.215 173.243 C 335.967 173.243,336.066 175.650,336.325 175.908 C 336.664 176.248,337.324 176.225,337.324 175.874 C 337.324 175.717,337.839 174.944,338.468 174.156 C 339.586 172.756,339.746 172.370,339.488 171.698 C 339.283 171.163,339.055 171.303,338.011 172.607 " stroke="none" fill="#b34227" fill-rule="evenodd"></path><path id="path6" d="M119.781 53.455 C 120.096 53.502,120.612 53.502,120.927 53.455 C 121.242 53.407,120.984 53.368,120.354 53.368 C 119.724 53.368,119.466 53.407,119.781 53.455 M131.650 53.455 C 131.965 53.502,132.480 53.502,132.795 53.455 C 133.110 53.407,132.853 53.368,132.223 53.368 C 131.593 53.368,131.335 53.407,131.650 53.455 M127.434 55.700 L 126.945 56.221 127.377 56.689 L 127.810 57.158 127.011 65.486 L 126.212 73.815 127.059 75.169 C 127.526 75.913,127.930 76.550,127.958 76.585 C 127.986 76.619,128.407 76.015,128.895 75.243 L 129.781 73.840 128.988 65.447 L 128.194 57.053 128.648 56.570 L 129.102 56.087 128.619 55.633 C 128.018 55.069,128.027 55.069,127.434 55.700 M148.777 65.712 C 147.975 65.981,146.687 66.503,145.914 66.873 L 144.508 67.545 144.508 69.966 C 144.508 73.892,143.977 75.766,142.274 77.844 L 141.533 78.748 141.665 80.759 C 141.819 83.111,141.609 84.107,140.724 85.226 L 140.099 86.018 140.898 85.676 C 141.337 85.488,141.838 85.280,142.009 85.213 C 144.247 84.340,147.393 81.245,148.651 78.678 C 150.065 75.793,150.233 74.855,150.234 69.859 C 150.234 67.186,150.315 65.427,150.442 65.334 C 150.779 65.086,150.357 65.182,148.777 65.712 M135.548 75.198 C 133.318 77.160,130.838 79.348,130.036 80.060 C 128.144 81.741,117.539 91.105,116.539 91.978 L 115.770 92.650 115.824 108.740 L 115.877 124.831 116.450 124.897 L 117.022 124.963 117.022 127.968 L 117.022 130.973 118.382 130.973 C 119.292 130.973,119.767 130.887,119.816 130.713 C 119.857 130.570,120.001 130.046,120.136 129.548 C 120.416 128.519,121.817 126.868,122.570 126.679 C 122.981 126.576,123.061 126.423,123.061 125.745 C 123.061 125.074,123.132 124.935,123.477 124.935 C 123.890 124.935,123.894 124.796,123.894 108.173 L 123.894 91.411 126.080 91.411 L 128.267 91.411 128.267 107.126 L 128.267 122.841 131.234 122.899 L 134.201 122.957 135.294 122.032 L 136.387 121.107 136.387 105.732 L 136.387 90.356 137.115 89.628 C 138.572 88.171,138.768 87.522,138.849 83.863 C 138.918 80.798,138.949 80.583,139.321 80.583 C 139.700 80.583,139.719 80.376,139.719 76.106 C 139.719 73.644,139.692 71.629,139.660 71.629 C 139.628 71.629,137.777 73.235,135.548 75.198 M109.383 79.646 C 109.384 80.333,109.423 80.589,109.469 80.215 C 109.515 79.841,109.514 79.278,109.467 78.966 C 109.419 78.653,109.381 78.959,109.383 79.646 M197.767 83.026 C 198.257 83.070,199.006 83.070,199.433 83.025 C 199.859 82.980,199.459 82.944,198.542 82.945 C 197.626 82.946,197.277 82.982,197.767 83.026 M199.063 86.934 L 199.063 88.496 200.208 88.496 L 201.353 88.496 201.353 86.934 L 201.353 85.372 200.208 85.372 L 199.063 85.372 199.063 86.934 M182.207 97.869 C 181.572 98.019,180.821 98.642,181.028 98.848 C 181.130 98.950,183.446 97.920,183.446 97.773 C 183.446 97.628,183.124 97.653,182.207 97.869 M366.320 128.162 C 366.322 128.621,366.365 128.783,366.415 128.524 C 366.465 128.265,366.463 127.891,366.411 127.691 C 366.359 127.492,366.318 127.704,366.320 128.162 M372.983 130.036 C 372.986 130.495,373.028 130.657,373.078 130.398 C 373.128 130.139,373.126 129.765,373.074 129.566 C 373.022 129.366,372.981 129.578,372.983 130.036 M122.735 133.108 L 122.124 133.784 122.801 133.173 C 123.173 132.837,123.477 132.532,123.477 132.496 C 123.477 132.335,123.306 132.477,122.735 133.108 M366.112 134.201 C 366.114 134.659,366.157 134.822,366.207 134.563 C 366.256 134.304,366.255 133.929,366.202 133.730 C 366.150 133.531,366.110 133.743,366.112 134.201 M372.775 135.867 C 372.777 136.325,372.820 136.488,372.870 136.229 C 372.920 135.970,372.918 135.595,372.866 135.396 C 372.813 135.197,372.773 135.409,372.775 135.867 M365.904 140.031 C 365.906 140.489,365.949 140.652,365.998 140.393 C 366.048 140.134,366.046 139.759,365.994 139.560 C 365.942 139.361,365.901 139.573,365.904 140.031 M372.567 141.905 C 372.569 142.363,372.612 142.526,372.662 142.267 C 372.711 142.008,372.709 141.633,372.657 141.434 C 372.605 141.235,372.565 141.447,372.567 141.905 M22.592 185.737 C 23.156 186.309,23.665 186.778,23.722 186.778 C 23.779 186.778,23.365 186.309,22.801 185.737 C 22.237 185.164,21.728 184.695,21.671 184.695 C 21.614 184.695,22.028 185.164,22.592 185.737 M38.261 190.890 C 40.809 190.923,44.979 190.923,47.527 190.890 C 50.075 190.857,47.991 190.830,42.894 190.830 C 37.798 190.830,35.713 190.857,38.261 190.890 " stroke="none" fill="#6f7685" fill-rule="evenodd"></path><path id="path7" d="M144.380 70.172 C 144.380 71.603,144.413 72.189,144.454 71.473 C 144.495 70.757,144.495 69.586,144.454 68.870 C 144.413 68.155,144.380 68.740,144.380 70.172 M123.993 108.069 C 123.993 117.288,124.019 121.059,124.050 116.450 C 124.081 111.840,124.081 104.297,124.050 99.688 C 124.019 95.078,123.993 98.850,123.993 108.069 M187.285 94.794 L 186.674 95.471 187.350 94.860 C 187.723 94.523,188.027 94.219,188.027 94.183 C 188.027 94.022,187.855 94.164,187.285 94.794 " stroke="none" fill="#abacaf" fill-rule="evenodd"></path><path id="path8" d="M122.742 65.070 C 122.742 72.285,122.769 75.207,122.801 71.562 C 122.832 67.918,122.832 62.015,122.800 58.444 C 122.769 54.873,122.742 57.855,122.742 65.070 M127.316 55.648 L 126.705 56.325 127.382 55.713 C 127.754 55.377,128.058 55.072,128.058 55.037 C 128.058 54.876,127.886 55.017,127.316 55.648 M239.201 101.136 C 239.460 101.186,239.835 101.184,240.034 101.132 C 240.233 101.080,240.021 101.039,239.563 101.042 C 239.105 101.044,238.942 101.087,239.201 101.136 M152.172 104.596 L 152.108 107.161 154.919 104.667 C 156.465 103.295,157.769 102.140,157.817 102.101 C 157.865 102.062,156.629 102.030,155.070 102.030 L 152.236 102.030 152.172 104.596 M234.774 102.447 C 235.208 102.926,235.473 103.017,235.089 102.554 C 234.864 102.283,235.475 102.238,240.113 102.186 L 245.393 102.127 239.895 102.079 C 234.408 102.030,234.397 102.031,234.774 102.447 M140.226 112.714 C 140.168 112.865,140.148 114.027,140.180 115.298 L 140.239 117.608 142.925 115.244 C 144.402 113.944,145.709 112.781,145.830 112.661 C 145.983 112.507,145.191 112.441,143.190 112.441 C 141.023 112.441,140.305 112.508,140.226 112.714 M246.538 112.624 C 246.538 112.725,246.702 112.935,246.903 113.093 C 247.232 113.351,247.240 113.344,246.984 113.018 C 246.718 112.678,247.008 112.653,251.982 112.597 L 257.262 112.538 251.900 112.490 C 248.926 112.463,246.538 112.523,246.538 112.624 M128.228 125.259 C 128.133 128.442,127.997 128.424,131.137 125.657 C 132.650 124.322,133.889 123.193,133.889 123.146 C 133.889 123.099,132.630 123.061,131.091 123.061 L 128.293 123.061 128.228 125.259 M372.983 128.371 C 372.986 128.829,373.028 128.992,373.078 128.733 C 373.128 128.474,373.126 128.099,373.074 127.900 C 373.022 127.701,372.981 127.913,372.983 128.371 M366.320 129.828 C 366.322 130.286,366.365 130.449,366.415 130.190 C 366.465 129.931,366.463 129.556,366.411 129.357 C 366.359 129.158,366.318 129.370,366.320 129.828 M115.721 133.411 C 116.177 133.499,116.189 133.571,116.189 136.089 C 116.189 137.513,116.241 138.678,116.303 138.678 C 116.389 138.678,119.959 135.572,122.322 133.442 C 122.432 133.343,120.915 133.276,118.886 133.292 C 116.888 133.308,115.463 133.361,115.721 133.411 M372.775 134.409 C 372.777 134.867,372.820 135.030,372.870 134.771 C 372.920 134.512,372.918 134.137,372.866 133.938 C 372.813 133.739,372.773 133.951,372.775 134.409 M366.112 135.659 C 366.114 136.117,366.157 136.279,366.207 136.020 C 366.256 135.761,366.255 135.387,366.202 135.188 C 366.150 134.988,366.110 135.200,366.112 135.659 M372.567 140.239 C 372.569 140.698,372.612 140.860,372.662 140.601 C 372.711 140.342,372.709 139.968,372.657 139.769 C 372.605 139.569,372.565 139.781,372.567 140.239 M365.904 141.697 C 365.906 142.155,365.949 142.318,365.998 142.059 C 366.048 141.800,366.046 141.425,365.994 141.226 C 365.942 141.027,365.901 141.239,365.904 141.697 M104.321 146.615 L 104.321 149.346 105.102 148.644 C 105.531 148.257,106.890 147.058,108.121 145.979 C 109.352 144.899,110.359 143.986,110.359 143.950 C 110.359 143.913,109.001 143.883,107.340 143.883 L 104.321 143.883 104.321 146.615 M298.959 153.400 C 299.217 153.450,299.638 153.450,299.896 153.400 C 300.154 153.351,299.943 153.310,299.427 153.310 C 298.912 153.310,298.701 153.351,298.959 153.400 M92.244 157.142 L 92.244 159.989 92.712 159.572 C 92.970 159.342,94.375 158.099,95.836 156.810 C 97.296 155.521,98.490 154.428,98.490 154.381 C 98.490 154.333,97.085 154.295,95.367 154.295 L 92.244 154.295 92.244 157.142 M294.326 154.711 C 294.760 155.191,295.025 155.281,294.641 154.819 C 294.416 154.547,295.039 154.503,299.769 154.451 L 305.154 154.391 299.551 154.343 C 293.961 154.295,293.950 154.296,294.326 154.711 M80.375 166.800 C 80.375 169.587,80.431 170.319,80.635 170.196 C 80.778 170.109,82.535 168.589,84.539 166.818 C 86.543 165.047,88.272 163.519,88.381 163.423 C 88.490 163.327,86.733 163.248,84.477 163.248 L 80.375 163.248 80.375 166.800 M308.654 163.404 C 310.235 163.439,312.765 163.439,314.276 163.404 C 315.786 163.368,314.492 163.339,311.400 163.339 C 308.308 163.340,307.072 163.369,308.654 163.404 M68.437 173.382 C 68.360 173.458,68.298 175.240,68.298 177.341 L 68.298 181.162 72.670 177.284 C 75.075 175.151,77.043 173.369,77.043 173.324 C 77.043 173.181,68.581 173.238,68.437 173.382 M320.523 173.399 C 322.104 173.434,324.634 173.434,326.145 173.399 C 327.655 173.363,326.361 173.334,323.269 173.334 C 320.177 173.334,318.941 173.363,320.523 173.399 M56.429 186.986 C 56.429 189.045,56.493 189.693,56.695 189.693 C 57.714 189.693,61.248 187.443,63.509 185.356 L 64.654 184.298 60.541 184.288 L 56.429 184.279 56.429 186.986 " stroke="none" fill="#bcb8b8" fill-rule="evenodd"></path></g></svg>