<?xml version="1.0" encoding="utf-8"?>
<!-- Generator: Adobe Illustrator 23.0.5, SVG Export Plug-In . SVG Version: 6.00 Build 0)  -->
<svg version="1.1" id="Layer_1" xmlns="http://www.w3.org/2000/svg" xmlns:xlink="http://www.w3.org/1999/xlink" x="0px" y="0px"
	 viewBox="0 0 283.46 283.46" style="enable-background:new 0 0 283.46 283.46;" xml:space="preserve">
<style type="text/css">
	.st0{fill:#E3E7E4;}
	.st1{fill:#FCC111;}
	.st2{display:none;}
	.st3{display:inline;}
	.st4{fill:#334047;}
	.st5{fill:#BACAD3;}
	.st6{fill:#293339;}
	.st7{fill:#FFFFFF;}
	.st8{fill:#BFC3C3;}
	.st9{font-family:'NexaBold';}
	.st10{font-size:27px;}
	.st11{font-family:'ArialMT';}
	.st12{font-size:14px;}
</style>
<g>
	<path class="st0" d="M159.2,116.4c-0.18-1.84-1.84-3.34-3.68-3.34h-3.05c-1.84,0-4.86,0-6.71,0h-3.73h-3.73c-1.84,0-4.86,0-6.71,0
		h-3.05c-1.84,0-3.5,1.5-3.68,3.34l-1.25,12.84c-0.18,1.84,1.18,3.34,3.03,3.34h4.42v3.68c0,1.84,0,4.86,0,6.71v5.22h8.39v-8.3
		c0-1.84,1.16-2.55,2.58-2.55c1.42,0,2.58,0.71,2.58,2.55v8.3h8.38v-5.22c0-1.84,0-4.86,0-6.71v-3.68h4.42
		c1.84,0,3.21-1.5,3.03-3.34L159.2,116.4z"/>
	<g>
		<g>
			<path class="st1" d="M116.42,97.8c-0.37-0.19-0.98-0.19-1.35,0l-1.75,0.92c-0.37,0.2-0.62,0.02-0.55-0.4l0.33-1.95
				c0.07-0.42-0.12-0.99-0.42-1.29l-1.41-1.38c-0.3-0.29-0.21-0.58,0.21-0.64l1.96-0.28c0.42-0.06,0.91-0.42,1.1-0.8l0.87-1.77
				c0.19-0.38,0.49-0.38,0.68,0l0.88,1.77c0.18,0.38,0.68,0.73,1.09,0.8l1.95,0.28c0.42,0.06,0.51,0.35,0.21,0.64l-1.41,1.38
				c-0.3,0.29-0.49,0.87-0.42,1.29l0.33,1.95c0.07,0.41-0.18,0.59-0.55,0.4L116.42,97.8z"/>
		</g>
	</g>
	<g class="st2">
		<g class="st3">
			<path class="st1" d="M159.24,87.63c-0.37-0.19-0.98-0.19-1.35,0l-1.75,0.92c-0.37,0.19-0.62,0.02-0.55-0.4l0.33-1.95
				c0.07-0.42-0.12-0.99-0.42-1.29l-1.41-1.38c-0.3-0.29-0.21-0.58,0.21-0.64l1.96-0.28c0.42-0.06,0.91-0.42,1.1-0.8l0.87-1.77
				c0.19-0.38,0.49-0.38,0.68,0l0.88,1.77c0.18,0.38,0.68,0.74,1.09,0.8l1.95,0.28c0.42,0.06,0.51,0.35,0.21,0.64l-1.41,1.38
				c-0.3,0.29-0.49,0.87-0.42,1.29l0.33,1.95c0.07,0.41-0.17,0.59-0.55,0.4L159.24,87.63z"/>
		</g>
	</g>
	<g>
		<g>
			<path class="st1" d="M129.58,82.58c-0.67-0.35-1.77-0.35-2.44,0l-3.15,1.65c-0.67,0.35-1.12,0.03-0.99-0.72l0.6-3.5
				c0.13-0.75-0.21-1.79-0.75-2.32l-2.55-2.48c-0.54-0.53-0.37-1.05,0.38-1.16l3.52-0.51c0.75-0.11,1.64-0.76,1.98-1.44l1.57-3.19
				c0.33-0.68,0.88-0.68,1.22,0l1.58,3.19c0.33,0.68,1.23,1.33,1.98,1.43l3.52,0.51c0.75,0.11,0.92,0.63,0.38,1.16l-2.55,2.48
				c-0.54,0.53-0.88,1.57-0.75,2.32l0.6,3.5c0.13,0.75-0.31,1.07-0.99,0.72L129.58,82.58z"/>
		</g>
	</g>
	<circle class="st4" cx="142.04" cy="102.58" r="13"/>
	<g>
		<path class="st5" d="M133.57,98.39c-0.15,0-0.29-0.04-0.43-0.12c-0.4-0.24-0.53-0.75-0.29-1.15c1.92-3.23,5.44-5.23,9.19-5.23
			c0.46,0,0.84,0.38,0.84,0.84c0,0.46-0.38,0.84-0.84,0.84c-3.16,0-6.13,1.69-7.75,4.41C134.13,98.25,133.86,98.39,133.57,98.39z"/>
	</g>
	<g>
		<path class="st6" d="M149.37,91.85c1.43,2.09,2.26,4.61,2.26,7.33c0,7.18-5.82,13-13,13c-2.72,0-5.24-0.84-7.32-2.26
			c2.34,3.42,6.27,5.67,10.73,5.67c7.18,0,13-5.82,13-13C155.04,98.12,152.79,94.19,149.37,91.85z"/>
	</g>
	<path class="st4" d="M154.88,150.06c0-1.04-0.84-1.87-1.87-1.87h-8.38v4.59h10.26V150.06z"/>
	<path class="st4" d="M129.2,150.06c0-1.04,0.84-1.87,1.87-1.87h8.39v4.59H129.2V150.06z"/>
	<rect x="136.65" y="120.75" class="st7" width="10.79" height="6.43"/>
	<g>
		<path class="st8" d="M147.35,142.2h2.93c0.46,0,0.84-0.38,0.84-0.84c0-0.46-0.38-0.84-0.84-0.84h-2.93
			c-0.46,0-0.84,0.38-0.84,0.84C146.51,141.82,146.89,142.2,147.35,142.2z"/>
		<path class="st8" d="M150.28,142.69h-2.93c-0.46,0-0.84,0.38-0.84,0.84c0,0.46,0.38,0.84,0.84,0.84h2.93
			c0.46,0,0.84-0.38,0.84-0.84C151.12,143.06,150.75,142.69,150.28,142.69z"/>
	</g>
	<g>
		<path class="st8" d="M129.29,124.46h-2.93c-0.46,0-0.84,0.37-0.84,0.84c0,0.46,0.38,0.84,0.84,0.84h2.93
			c0.46,0,0.84-0.37,0.84-0.84C130.13,124.83,129.76,124.46,129.29,124.46z"/>
		<path class="st8" d="M126.36,123.97h2.93c0.46,0,0.84-0.38,0.84-0.84c0-0.46-0.38-0.84-0.84-0.84h-2.93
			c-0.46,0-0.84,0.38-0.84,0.84C125.52,123.59,125.9,123.97,126.36,123.97z"/>
	</g>
	<g>
		<path class="st8" d="M133.8,142.2h2.93c0.46,0,0.84-0.38,0.84-0.84c0-0.46-0.38-0.84-0.84-0.84h-2.93c-0.46,0-0.84,0.38-0.84,0.84
			C132.96,141.82,133.34,142.2,133.8,142.2z"/>
		<path class="st8" d="M136.73,142.69h-2.93c-0.46,0-0.84,0.38-0.84,0.84c0,0.46,0.38,0.84,0.84,0.84h2.93
			c0.46,0,0.84-0.38,0.84-0.84C137.57,143.06,137.19,142.69,136.73,142.69z"/>
	</g>
	<g>
		<path class="st4" d="M142.98,123.97c0,0.52-0.42,0.94-0.94,0.94c-0.52,0-0.94-0.42-0.94-0.94s0.42-0.94,0.94-0.94
			C142.56,123.02,142.98,123.45,142.98,123.97z"/>
	</g>
	<g>
		<path class="st4" d="M145.34,123.97c0,0.52-0.42,0.94-0.94,0.94c-0.52,0-0.94-0.42-0.94-0.94s0.42-0.94,0.94-0.94
			C144.92,123.02,145.34,123.45,145.34,123.97z"/>
	</g>
	<g>
		<path class="st4" d="M140.63,123.97c0,0.52-0.42,0.94-0.94,0.94c-0.52,0-0.94-0.42-0.94-0.94s0.42-0.94,0.94-0.94
			C140.2,123.02,140.63,123.45,140.63,123.97z"/>
	</g>
	<path class="st6" d="M148.73,123.13h-0.45v-2.38c0-0.46-0.38-0.84-0.84-0.84h-10.79c-0.46,0-0.84,0.38-0.84,0.84v2.38h-0.46
		c-0.46,0-0.84,0.37-0.84,0.84c0,0.46,0.38,0.84,0.84,0.84h0.46v2.38c0,0.46,0.38,0.84,0.84,0.84h10.79c0.46,0,0.84-0.37,0.84-0.84
		v-2.38h0.45c0.46,0,0.84-0.37,0.84-0.84C149.57,123.5,149.19,123.13,148.73,123.13z M146.6,126.34h-9.11v-4.75h9.11V126.34z"/>
	<g>
		<path class="st8" d="M154.79,124.46h2.93c0.46,0,0.84,0.37,0.84,0.84c0,0.46-0.38,0.84-0.84,0.84h-2.93
			c-0.46,0-0.84-0.37-0.84-0.84C153.95,124.83,154.33,124.46,154.79,124.46z"/>
		<path class="st8" d="M157.72,123.97h-2.93c-0.46,0-0.84-0.38-0.84-0.84c0-0.46,0.38-0.84,0.84-0.84h2.93
			c0.46,0,0.84,0.38,0.84,0.84C158.56,123.59,158.18,123.97,157.72,123.97z"/>
	</g>
	<path class="st4" d="M129.2,137.17h1.87v-4.59h-5.13l0,1.33C125.94,135.71,127.4,137.17,129.2,137.17z"/>
	<path class="st4" d="M154.88,137.17h-1.87v-4.59h5.13l0,1.33C158.14,135.71,156.68,137.17,154.88,137.17z"/>
	<path class="st6" d="M161.29,129.16l-1.25-12.84c-0.22-2.26-2.25-4.09-4.51-4.09h-3.59c2.43-2.49,3.93-5.89,3.93-9.64
		c0-7.35-5.76-13.35-13-13.79v-1.57c0.47-0.29,0.8-0.78,0.8-1.38c0-0.91-0.74-1.64-1.64-1.64c-0.91,0-1.64,0.74-1.64,1.64
		c0,0.59,0.33,1.09,0.8,1.38v1.57c-7.24,0.44-13,6.45-13,13.79c0,0.73,0.07,1.45,0.18,2.15c-3.8,1.04-6.62,4.47-6.62,8.59
		c0,2.13,0.76,4.08,2.01,5.61l-1,10.22c-0.11,1.12,0.23,2.19,0.97,3c0.38,0.42,0.84,0.73,1.35,0.95l0,0.8c0,2.26,1.84,4.1,4.1,4.1
		h1.03v9.49c-1.08,0.36-1.87,1.37-1.87,2.57v2.72c0,0.46,0.38,0.84,0.84,0.84h10.26c0.46,0,0.84-0.38,0.84-0.84v-4.59v-8.3
		c0-1.36,0.8-1.89,1.74-1.89c0.95,0,1.74,0.52,1.74,1.89v8.3v4.59c0,0.46,0.38,0.84,0.84,0.84h10.26c0.46,0,0.84-0.38,0.84-0.84
		v-2.72c0-1.2-0.79-2.21-1.87-2.57v-9.49h1.03c2.26,0,4.1-1.84,4.1-4.1v-0.8c0.51-0.21,0.97-0.53,1.34-0.95
		C161.06,131.35,161.4,130.28,161.29,129.16z M142.04,90.42c6.7,0,12.16,5.45,12.16,12.16c0,6.7-5.45,12.16-12.16,12.16
		s-12.16-5.45-12.16-12.16C129.88,95.88,135.34,90.42,142.04,90.42z M129,107.17c0.67,1.91,1.75,3.63,3.14,5.06h-3.59
		c-1.73,0-3.32,1.08-4.07,2.6c-0.12-0.48-0.19-0.98-0.19-1.49C124.29,110.38,126.3,107.93,129,107.17z M129.2,136.33
		c-1.34,0-2.42-1.09-2.42-2.42l0-0.49h3.45v1.88v1.03H129.2z M138.62,151.95h-8.58v-1.88c0-0.57,0.46-1.04,1.04-1.04h7.55V151.95z
		 M154.04,150.06v1.88h-8.58v-2.92h7.55C153.58,149.03,154.04,149.49,154.04,150.06z M154.88,136.33h-1.03v-1.03v-1.88h3.45v0.49
		C157.3,135.24,156.21,136.33,154.88,136.33z M159.08,131.03c-0.41,0.46-1,0.71-1.65,0.71h-3.58v-4.07c0-0.46-0.37-0.84-0.84-0.84
		c-0.46,0-0.84,0.38-0.84,0.84v19.69h-6.71v-7.46c0-0.86-0.21-1.58-0.58-2.14c0.95-0.17,1.86-0.41,2.71-0.74
		c0.43-0.17,0.65-0.65,0.48-1.09c-0.17-0.43-0.65-0.64-1.08-0.48c-2.97,1.15-6.92,1.15-9.89,0c-0.43-0.16-0.92,0.05-1.08,0.48
		c-0.17,0.43,0.05,0.92,0.48,1.09c0.85,0.33,1.76,0.58,2.71,0.74c-0.37,0.56-0.58,1.27-0.58,2.14v7.46h-6.71v-19.69
		c0-0.46-0.38-0.84-0.84-0.84c-0.46,0-0.84,0.38-0.84,0.84v4.07h-3.58c-0.65,0-1.24-0.25-1.65-0.71c-0.41-0.46-0.6-1.06-0.54-1.71
		l1.25-12.84c0.14-1.4,1.44-2.58,2.85-2.58h5.56c2.25,1.58,4.98,2.51,7.93,2.51c2.95,0,5.68-0.94,7.93-2.51h5.56
		c1.41,0,2.71,1.18,2.84,2.58l1.25,12.84C159.69,129.97,159.49,130.58,159.08,131.03z"/>
</g>
<text transform="matrix(1 0 0 1 78.416 187.1895)" class="st4 st9 st10">dreamjob</text>
<text transform="matrix(1 0 0 1 111.0059 203.167)" class="st4 st11 st12">tag tag</text>
</svg>
