<svg id="svg" version="1.1" xmlns="http://www.w3.org/2000/svg" xmlns:xlink="http://www.w3.org/1999/xlink" width="400" height="321.9543555126969" viewBox="0, 0, 400,321.9543555126969"><g id="svgg"><path id="path0" d="M175.506 106.489 C 175.388 106.708,175.333 118.371,175.333 142.994 L 175.333 179.177 173.625 177.712 C 144.593 152.817,101.601 154.388,74.661 181.327 C 50.320 205.668,46.407 243.510,65.232 272.497 L 66.583 274.577 66.628 269.872 L 66.672 265.167 70.669 265.167 C 74.341 265.167,75.050 265.090,74.500 264.750 C 74.166 264.543,74.356 264.335,75.500 263.655 C 76.142 263.274,76.667 262.923,76.667 262.875 C 76.667 262.581,76.257 261.500,76.146 261.500 C 76.072 261.500,75.439 261.848,74.738 262.273 C 73.713 262.896,73.435 263.001,73.310 262.815 C 69.789 257.562,66.048 245.387,65.583 237.667 C 65.530 236.796,65.452 235.802,65.408 235.458 L 65.329 234.833 69.165 234.833 L 73.000 234.833 73.000 232.750 L 73.000 230.667 69.186 230.667 L 65.372 230.667 65.441 229.542 C 65.964 220.988,68.015 213.133,71.610 205.917 C 72.204 204.725,72.741 203.699,72.803 203.636 C 72.866 203.574,74.079 204.189,75.500 205.003 C 78.505 206.726,78.315 206.676,78.777 205.866 L 79.137 205.235 76.402 203.689 C 74.898 202.838,73.667 202.110,73.667 202.069 C 73.667 201.040,79.674 193.309,83.243 189.746 C 86.678 186.317,93.995 180.601,94.410 181.022 C 94.443 181.056,95.162 182.246,96.006 183.667 C 96.851 185.088,97.561 186.272,97.583 186.298 C 97.670 186.400,98.833 185.625,98.833 185.466 C 98.833 185.374,98.158 184.177,97.333 182.806 C 95.521 179.796,95.496 180.238,97.542 179.136 C 104.641 175.313,113.679 172.674,121.135 172.246 C 122.023 172.195,123.031 172.118,123.375 172.075 L 124.000 171.996 124.000 175.165 L 124.000 178.333 126.083 178.333 L 128.167 178.333 128.167 175.165 L 128.167 171.996 128.792 172.075 C 129.135 172.119,130.187 172.198,131.128 172.252 C 137.836 172.633,146.353 175.005,153.037 178.352 L 155.324 179.498 154.766 180.457 C 154.459 180.985,153.754 182.219,153.199 183.199 L 152.191 184.982 152.772 185.324 C 153.593 185.809,153.502 185.891,154.919 183.375 C 155.629 182.115,156.317 180.910,156.448 180.699 L 156.687 180.314 157.469 180.766 C 163.298 184.144,170.128 190.291,174.469 196.067 L 175.333 197.216 175.333 199.900 L 175.332 202.583 173.916 203.394 C 172.309 204.314,172.389 204.198,172.847 204.939 C 173.269 205.622,173.295 205.623,174.308 205.000 C 174.755 204.725,175.168 204.500,175.227 204.500 C 175.285 204.500,175.333 216.922,175.333 232.104 C 175.333 256.072,175.302 259.681,175.094 259.509 C 174.962 259.400,174.807 259.091,174.748 258.824 C 174.589 258.100,174.465 258.104,173.309 258.874 C 169.393 261.483,167.888 265.374,169.076 269.816 C 169.379 270.951,169.575 271.184,165.953 266.094 L 162.878 261.771 163.814 261.165 C 166.836 259.208,168.142 255.931,167.265 252.509 C 166.925 251.182,166.960 251.213,166.240 251.598 C 163.031 253.314,161.264 257.713,162.495 260.917 C 162.765 261.618,162.610 261.426,160.454 258.388 C 158.878 256.167,158.521 255.552,158.422 254.893 C 158.121 252.885,156.561 251.261,154.458 250.768 C 154.006 250.662,154.000 250.671,154.000 251.478 C 154.000 253.456,154.976 254.981,156.846 255.923 C 157.788 256.397,158.101 256.668,158.653 257.480 L 159.321 258.463 158.492 258.148 C 157.004 257.583,155.360 257.859,153.807 258.935 C 152.985 259.504,153.030 259.621,154.343 260.327 C 155.940 261.186,157.444 261.171,159.062 260.281 C 159.691 259.935,160.222 259.673,160.240 259.701 C 160.258 259.728,161.345 261.242,162.654 263.066 C 163.963 264.890,164.933 266.338,164.809 266.284 C 162.446 265.253,162.453 265.255,160.750 265.253 C 158.758 265.251,157.850 265.557,156.002 266.855 L 154.798 267.700 155.558 268.241 C 158.591 270.397,161.917 270.459,164.853 268.416 C 165.436 268.010,165.960 267.732,166.018 267.798 C 166.386 268.210,170.333 273.985,170.333 274.111 C 170.333 274.196,170.049 274.544,169.701 274.883 L 169.068 275.501 168.076 275.316 C 165.685 274.871,162.491 275.895,160.358 277.791 L 159.750 278.331 160.250 278.750 C 160.525 278.980,161.346 279.479,162.075 279.860 L 163.399 280.551 162.825 281.034 C 161.353 282.273,157.785 284.525,157.643 284.305 C 157.563 284.183,156.846 282.977,156.049 281.625 C 155.252 280.273,154.544 279.167,154.476 279.167 C 153.918 279.167,153.168 279.895,153.381 280.228 C 155.307 283.246,156.355 285.216,156.145 285.421 C 155.320 286.227,148.628 289.205,144.890 290.429 C 140.072 292.007,132.926 293.315,129.042 293.330 L 128.167 293.333 128.167 290.250 L 128.167 287.167 126.083 287.167 L 124.000 287.167 124.000 290.271 L 124.000 293.375 122.583 293.301 C 121.804 293.260,121.164 293.232,121.160 293.238 C 121.156 293.245,120.607 295.875,119.940 299.083 L 118.726 304.917 119.155 305.051 C 119.941 305.297,128.765 305.390,131.500 305.180 C 144.398 304.194,156.828 299.819,167.384 292.550 L 169.186 291.310 170.395 291.814 C 171.826 292.409,173.490 292.707,174.562 292.560 L 175.333 292.455 175.331 295.602 L 175.329 298.750 174.456 299.028 C 173.976 299.181,173.214 299.465,172.763 299.660 L 171.942 300.013 172.763 300.847 C 173.214 301.306,173.977 301.953,174.458 302.285 L 175.333 302.889 175.333 306.205 C 175.333 308.173,175.404 309.653,175.506 309.844 C 175.676 310.162,176.354 310.167,220.256 310.167 C 261.424 310.167,264.833 310.188,264.833 310.439 C 264.833 310.589,264.681 311.658,264.495 312.814 C 264.309 313.971,264.044 315.667,263.905 316.583 C 263.766 317.500,263.625 318.381,263.592 318.542 C 263.535 318.817,264.199 318.833,275.724 318.832 L 287.917 318.831 288.703 316.790 C 291.349 309.927,297.125 303.153,306.150 296.328 C 308.170 294.800,308.701 294.203,308.913 293.223 C 308.949 293.054,309.495 291.642,310.126 290.083 C 310.757 288.525,311.681 286.101,312.178 284.698 L 313.083 282.146 313.667 282.238 C 313.987 282.288,314.975 282.330,315.862 282.331 L 317.473 282.333 317.580 283.458 C 317.723 284.960,318.176 288.398,318.240 288.462 C 318.316 288.539,323.822 285.599,323.828 285.478 C 323.831 285.420,322.478 284.692,320.822 283.859 C 318.215 282.549,317.873 282.333,318.280 282.255 C 322.414 281.458,325.471 279.689,328.027 276.618 C 329.054 275.384,329.106 275.500,327.208 274.798 C 323.006 273.244,318.733 273.171,315.958 274.605 C 315.706 274.735,315.500 274.814,315.500 274.780 C 315.500 274.745,315.867 273.375,316.316 271.734 C 316.765 270.093,317.109 268.725,317.081 268.695 C 317.052 268.665,316.074 268.872,314.906 269.156 C 313.739 269.440,312.758 269.647,312.727 269.616 C 312.614 269.503,315.167 262.336,315.431 262.023 C 315.459 261.989,315.731 262.116,316.035 262.304 C 321.797 265.865,329.677 265.120,334.981 260.512 L 335.544 260.022 334.397 259.283 C 327.988 255.154,322.087 255.386,317.164 259.959 C 316.432 260.639,315.833 261.152,315.833 261.099 C 315.833 260.100,321.462 249.491,324.262 245.213 L 325.486 243.343 326.868 244.383 C 332.508 248.628,338.598 249.181,344.809 246.013 C 345.710 245.553,345.714 245.563,344.208 244.168 C 338.604 238.972,332.875 238.272,327.010 242.065 L 325.789 242.856 326.429 241.969 C 329.387 237.876,333.910 232.391,335.793 230.615 L 336.290 230.146 337.270 231.173 C 341.127 235.218,346.439 236.564,351.236 234.712 C 352.242 234.324,352.242 234.323,351.256 233.127 C 347.284 228.313,342.806 226.962,337.863 229.089 L 336.917 229.496 339.095 227.373 C 342.995 223.573,344.202 222.672,345.729 222.418 C 348.325 221.986,350.502 219.898,351.599 216.788 C 352.029 215.570,351.981 215.500,350.708 215.502 C 347.147 215.508,344.423 217.541,343.479 220.898 C 343.280 221.608,343.066 221.869,341.826 222.922 L 340.401 224.132 340.713 222.941 C 341.009 221.810,341.038 219.717,340.775 218.563 C 340.555 217.601,338.637 214.833,338.189 214.833 C 337.963 214.833,336.919 216.736,336.548 217.824 C 335.705 220.297,336.267 222.695,338.213 224.917 L 338.797 225.583 335.607 228.836 C 333.852 230.624,331.933 232.666,331.342 233.373 C 330.094 234.865,330.114 234.859,330.460 233.666 C 330.900 232.149,330.839 227.709,330.360 226.418 C 329.733 224.726,328.687 223.158,327.162 221.625 C 325.386 219.840,325.338 219.836,324.578 221.417 C 321.885 227.016,323.074 232.433,327.725 235.750 C 328.871 236.568,328.905 236.305,327.398 238.266 C 325.017 241.363,322.276 245.490,320.259 249.014 L 319.250 250.778 319.241 247.847 C 319.223 241.583,316.992 237.432,312.045 234.459 C 310.104 233.292,310.255 233.268,309.760 234.833 C 307.279 242.686,309.627 248.652,316.569 252.134 L 318.151 252.928 317.726 253.672 C 316.256 256.244,313.412 262.965,311.839 267.581 C 310.772 270.714,310.782 270.708,310.433 268.547 C 309.383 262.035,305.733 257.691,299.762 255.849 C 298.304 255.399,298.309 255.393,298.206 257.722 C 297.911 264.413,300.112 268.730,305.099 271.240 C 306.033 271.710,306.181 271.837,305.912 271.933 C 302.540 273.145,297.454 275.441,294.341 277.156 C 293.166 277.803,292.124 278.333,292.025 278.333 C 291.926 278.333,291.674 278.492,291.464 278.687 C 291.255 278.881,290.333 279.514,289.417 280.094 L 287.750 281.147 287.667 198.714 L 287.583 116.281 285.945 118.004 C 282.918 121.188,280.729 124.485,279.641 127.500 L 279.250 128.583 279.207 206.625 L 279.164 284.667 231.582 284.667 L 184.000 284.667 184.000 203.167 L 184.000 121.667 229.783 121.625 L 275.567 121.583 274.594 120.417 C 270.040 114.957,264.210 110.827,260.420 110.376 L 259.589 110.278 261.091 109.909 C 263.036 109.432,266.742 107.523,268.075 106.311 C 268.164 106.230,247.948 106.167,221.956 106.167 C 176.373 106.167,175.676 106.172,175.506 106.489 M113.167 202.024 C 107.471 202.965,105.018 209.443,107.937 215.833 L 108.356 216.750 108.982 216.019 L 109.607 215.288 109.293 214.685 C 108.584 213.327,109.167 210.750,110.182 210.750 C 110.685 210.750,110.967 211.315,111.255 212.897 L 111.470 214.083 111.486 213.250 C 111.534 210.726,111.720 209.172,111.983 209.097 C 112.130 209.055,113.787 208.938,115.667 208.836 C 117.546 208.734,119.258 208.614,119.470 208.569 C 119.783 208.503,119.894 208.585,120.049 208.994 C 120.443 210.038,121.022 209.230,121.412 207.092 L 121.714 205.434 120.647 204.425 C 118.406 202.307,116.044 201.548,113.167 202.024 M98.954 217.253 C 87.690 221.190,79.862 234.753,76.591 256.000 C 76.442 256.962,76.245 258.228,76.152 258.811 C 76.059 259.395,76.016 259.905,76.057 259.946 C 76.121 260.010,97.508 253.552,98.170 253.269 C 98.340 253.196,98.516 253.316,98.702 253.631 C 101.058 257.618,106.629 258.329,109.884 255.058 C 111.186 253.751,111.556 252.772,112.586 247.917 C 113.092 245.533,113.759 242.458,114.067 241.083 C 114.376 239.708,114.836 237.571,115.090 236.333 C 115.344 235.096,115.983 232.096,116.510 229.667 C 117.037 227.237,117.442 225.223,117.409 225.189 C 117.273 225.049,113.068 224.005,112.897 224.069 C 112.795 224.108,112.672 224.314,112.625 224.528 C 112.577 224.742,111.885 226.792,111.087 229.083 C 110.288 231.375,109.574 233.438,109.500 233.667 C 109.276 234.359,106.376 242.719,106.207 243.162 C 106.012 243.668,105.934 243.208,105.657 239.917 C 105.556 238.725,105.379 236.625,105.263 235.250 L 105.052 232.750 106.762 229.250 C 108.410 225.879,109.333 223.267,109.333 221.977 C 109.333 221.119,106.693 218.459,104.941 217.553 C 103.339 216.724,100.827 216.598,98.954 217.253 M123.852 224.263 C 117.347 226.013,115.158 234.240,119.964 238.873 C 124.933 243.661,133.005 241.317,134.582 234.627 C 136.053 228.391,130.053 222.596,123.852 224.263 M196.112 227.444 C 196.050 227.505,196.000 228.331,196.000 229.278 L 196.000 231.000 216.339 231.000 L 236.678 231.000 236.631 229.208 L 236.583 227.417 216.403 227.374 C 205.305 227.351,196.173 227.382,196.112 227.444 M127.139 229.090 C 131.266 230.316,130.385 236.500,126.083 236.500 C 121.631 236.500,120.915 230.045,125.250 228.989 C 126.015 228.803,126.205 228.813,127.139 229.090 M21.409 238.875 C 19.008 241.502,18.233 245.449,19.324 249.500 C 19.509 250.188,19.662 250.782,19.664 250.821 C 19.665 250.859,19.273 250.447,18.792 249.904 C 17.625 248.588,15.378 246.408,14.726 245.961 C 14.438 245.763,14.083 245.331,13.937 245.000 C 12.879 242.602,10.190 241.438,7.595 242.254 C 6.408 242.627,6.367 242.707,6.936 243.528 C 8.227 245.391,10.003 246.409,12.294 246.600 C 13.557 246.705,13.626 246.734,14.507 247.516 L 15.417 248.323 14.207 248.328 C 12.345 248.336,11.014 249.145,9.533 251.167 L 8.984 251.917 9.617 252.112 C 11.742 252.768,14.624 252.030,16.350 250.386 L 16.949 249.815 18.104 251.199 C 19.686 253.095,20.110 253.653,21.471 255.624 L 22.650 257.330 21.867 256.934 C 18.563 255.261,14.556 256.043,11.612 258.936 L 10.975 259.563 11.362 259.857 C 14.414 262.177,19.336 262.200,22.912 259.913 C 23.993 259.221,23.840 259.153,24.932 260.812 C 26.024 262.470,29.042 268.021,30.057 270.240 L 30.489 271.183 29.847 270.633 C 25.847 267.210,19.724 267.234,15.507 270.690 L 15.098 271.026 15.757 271.598 C 19.986 275.270,24.599 275.852,29.887 273.379 C 30.974 272.871,31.216 272.809,31.343 273.010 C 31.999 274.048,35.541 282.796,35.531 283.355 C 35.527 283.597,35.440 284.103,35.339 284.481 L 35.154 285.167 34.800 284.838 C 32.420 282.620,27.601 282.269,23.424 284.008 C 21.356 284.869,21.376 284.753,23.004 286.373 C 26.076 289.429,29.714 290.658,33.615 289.958 L 34.313 289.833 34.281 292.375 C 34.264 293.773,34.310 295.573,34.384 296.375 L 34.517 297.833 32.908 297.833 C 31.218 297.833,30.047 298.059,28.042 298.771 C 26.635 299.271,26.657 299.215,27.439 300.268 C 29.496 303.037,32.526 304.982,35.268 305.293 L 36.359 305.417 36.821 306.607 C 37.870 309.304,40.403 313.289,42.549 315.618 L 43.209 316.333 54.938 316.333 L 66.667 316.333 66.658 308.875 L 66.649 301.417 64.866 299.795 C 62.563 297.699,59.618 295.362,57.000 293.550 C 54.989 292.159,50.146 289.076,49.779 288.954 C 49.665 288.916,49.730 288.592,49.957 288.063 C 50.669 286.409,51.261 281.711,50.815 281.260 C 50.300 280.740,45.728 282.991,43.968 284.632 L 43.186 285.360 41.552 284.578 C 39.792 283.736,38.777 283.265,37.333 282.622 C 36.424 282.216,36.412 282.202,35.875 280.810 C 35.204 279.072,35.174 279.247,36.205 278.904 C 41.721 277.072,44.356 273.641,44.387 268.250 C 44.409 264.551,44.362 264.492,42.217 265.496 C 37.433 267.738,35.181 271.287,35.109 276.694 C 35.095 277.763,35.075 278.625,35.064 278.610 C 35.053 278.596,34.424 277.158,33.666 275.417 C 32.000 271.589,30.220 267.856,28.945 265.517 C 27.816 263.446,27.833 263.609,28.708 263.274 C 34.197 261.170,36.713 255.838,35.112 249.701 C 34.619 247.813,34.657 247.853,33.790 248.326 C 28.817 251.040,26.413 256.269,27.501 262.004 C 27.593 262.490,27.645 262.910,27.617 262.938 C 27.572 262.984,25.949 260.313,24.793 258.288 C 24.058 257.001,23.236 255.754,21.909 253.911 C 20.428 251.855,20.461 252.162,21.625 251.305 C 25.514 248.440,26.334 244.649,24.047 240.092 C 22.782 237.569,22.656 237.511,21.409 238.875 M389.832 250.141 C 387.968 252.184,387.753 254.320,389.177 256.641 C 389.398 257.002,389.385 257.053,389.007 257.308 C 388.106 257.913,385.516 260.087,384.404 261.171 L 383.224 262.320 383.526 261.118 C 384.353 257.826,383.447 254.543,381.109 252.356 L 380.687 251.961 380.059 252.939 C 377.705 256.605,377.903 260.052,380.626 262.810 L 381.672 263.870 380.530 265.226 C 379.091 266.935,377.023 269.683,375.840 271.456 C 375.340 272.206,374.914 272.803,374.893 272.782 C 374.872 272.761,374.926 272.183,375.012 271.497 C 375.503 267.606,373.801 263.930,370.447 261.636 C 369.229 260.802,369.156 260.836,368.581 262.526 C 366.977 267.240,368.671 271.986,372.708 274.085 C 373.740 274.622,373.803 274.731,373.409 275.293 C 373.268 275.495,372.884 276.131,372.556 276.705 C 372.228 277.280,371.809 278.012,371.626 278.333 C 370.382 280.509,369.833 281.498,369.833 281.564 C 369.833 281.605,369.439 282.339,368.958 283.194 C 368.476 284.050,367.972 284.975,367.838 285.250 C 367.614 285.709,367.584 285.414,367.479 281.667 C 367.354 277.187,367.084 272.731,366.829 270.917 C 366.069 265.517,365.370 261.647,365.106 261.383 C 364.804 261.082,360.442 263.717,358.342 265.469 C 354.255 268.879,350.163 273.849,346.798 279.491 C 345.651 281.413,342.500 287.444,342.500 287.717 C 342.500 287.768,342.248 288.358,341.940 289.029 C 341.633 289.701,341.214 290.700,341.011 291.250 C 340.808 291.800,340.544 292.475,340.425 292.750 C 340.231 293.197,340.000 293.826,338.799 297.167 C 338.618 297.671,338.419 298.220,338.356 298.388 C 338.260 298.643,338.150 298.562,337.675 297.888 C 336.863 296.735,334.928 294.429,333.714 293.167 L 332.672 292.083 332.668 294.667 C 332.659 300.290,331.535 305.372,329.243 310.145 C 328.743 311.188,328.333 312.067,328.333 312.099 C 328.333 312.131,336.640 312.156,346.792 312.155 L 365.250 312.153 366.333 310.665 C 368.510 307.674,370.318 303.940,371.765 299.439 C 372.783 296.271,372.833 296.101,372.833 295.792 C 372.833 295.612,373.122 295.440,373.715 295.267 C 375.202 294.835,376.908 293.837,378.292 292.591 C 379.335 291.651,379.338 291.635,378.542 291.160 C 377.243 290.387,376.882 290.213,375.625 289.757 C 374.146 289.221,374.230 289.451,374.573 286.881 C 374.705 285.892,374.862 284.549,374.921 283.896 L 375.030 282.708 375.806 282.955 C 378.493 283.810,383.269 282.627,385.305 280.602 L 385.694 280.215 384.889 279.631 C 380.906 276.739,377.175 276.499,373.528 278.898 C 372.208 279.767,372.189 279.773,372.450 279.266 C 372.941 278.314,376.143 273.033,376.774 272.137 C 377.117 271.649,377.839 270.630,378.379 269.872 L 379.360 268.495 380.138 269.183 C 383.092 271.792,387.291 272.837,390.750 271.823 C 393.352 271.060,393.267 271.185,392.080 269.873 C 388.724 266.165,384.825 265.215,380.992 267.171 C 380.103 267.624,380.149 267.508,381.483 265.937 C 383.350 263.739,387.500 259.737,387.500 260.135 C 387.500 260.489,389.911 262.856,390.856 263.430 C 393.096 264.791,397.756 265.403,397.403 264.289 C 397.130 263.431,395.841 261.560,394.956 260.738 C 394.048 259.896,393.644 259.649,392.383 259.169 C 391.805 258.950,389.164 259.004,388.583 259.248 C 388.400 259.325,388.662 259.082,389.167 258.709 C 389.671 258.335,390.271 257.884,390.500 257.708 C 392.113 256.466,393.744 255.734,394.966 255.701 C 397.289 255.639,400.911 252.865,399.627 252.132 C 397.805 251.092,394.227 252.388,393.299 254.425 C 393.074 254.919,391.043 256.047,391.245 255.566 C 392.028 253.706,392.030 251.973,391.251 250.434 C 390.691 249.326,390.594 249.306,389.832 250.141 M174.583 269.224 C 173.552 270.614,171.278 273.317,171.131 273.326 C 170.994 273.334,169.666 271.419,169.669 271.217 C 169.670 271.144,170.099 270.821,170.622 270.500 C 172.821 269.152,174.548 266.947,175.040 264.861 C 175.249 263.978,175.250 263.986,175.297 266.085 L 175.344 268.197 174.583 269.224 M373.978 282.244 C 374.316 282.350,374.028 282.542,371.978 283.574 C 369.160 284.993,369.293 285.000,370.137 283.469 C 370.506 282.798,370.972 281.941,371.173 281.564 L 371.538 280.877 372.561 281.498 C 373.123 281.839,373.761 282.175,373.978 282.244 M175.333 286.583 C 175.333 286.924,175.252 287.000,174.888 287.000 L 174.442 287.000 174.833 286.583 C 175.049 286.354,175.249 286.167,175.279 286.167 C 175.309 286.167,175.333 286.354,175.333 286.583 M114.928 301.375 C 114.662 302.681,114.411 303.919,114.370 304.125 C 114.307 304.435,114.368 304.500,114.719 304.500 L 115.143 304.500 114.369 306.292 C 113.943 307.277,113.571 308.117,113.542 308.158 C 113.513 308.199,112.985 307.983,112.370 307.677 C 111.754 307.372,111.014 307.021,110.725 306.899 L 110.200 306.676 109.095 309.190 C 108.438 310.685,108.028 311.827,108.085 312.007 C 108.200 312.368,116.872 317.539,117.523 317.635 C 119.079 317.863,118.368 314.462,116.432 312.417 C 115.463 311.392,114.746 310.500,114.893 310.500 C 114.938 310.500,116.387 311.339,118.112 312.365 C 119.838 313.390,121.610 314.421,122.050 314.656 L 122.851 315.083 123.195 314.667 C 123.976 313.720,123.187 311.233,121.586 309.593 C 120.422 308.401,119.924 307.738,119.259 306.493 C 118.877 305.777,118.683 305.550,118.612 305.735 C 118.528 305.955,118.253 305.871,116.905 305.207 L 115.300 304.417 115.394 301.708 C 115.446 300.219,115.471 299.000,115.450 299.000 C 115.429 299.000,115.194 300.069,114.928 301.375 " stroke="none" fill="#344e54" fill-rule="evenodd"></path><path id="path1" d="M175.333 36.680 C 171.940 38.214,171.752 42.958,175.013 44.745 C 176.310 45.455,178.018 45.459,179.304 44.754 C 183.418 42.498,181.853 36.341,177.167 36.341 C 176.434 36.341,175.841 36.450,175.333 36.680 M326.712 43.154 C 324.952 43.969,324.842 46.382,326.521 47.325 C 328.063 48.192,329.816 47.241,329.959 45.460 C 330.108 43.607,328.381 42.381,326.712 43.154 M66.917 54.676 C 65.485 55.588,65.471 57.773,66.891 58.651 C 68.501 59.646,70.498 58.554,70.499 56.677 C 70.501 54.879,68.422 53.718,66.917 54.676 M296.785 77.339 C 296.315 80.724,290.677 86.674,286.999 87.667 L 286.250 87.870 287.206 88.166 C 288.933 88.701,292.246 91.081,293.331 92.566 C 293.562 92.881,294.107 93.576,294.543 94.111 C 295.522 95.310,296.616 97.375,296.764 98.301 C 296.880 99.027,297.167 99.105,297.167 98.412 C 297.167 95.356,304.005 88.637,307.750 88.012 C 308.236 87.931,308.394 87.864,308.129 87.853 C 304.878 87.713,298.688 82.114,297.419 78.167 C 296.890 76.521,296.897 76.531,296.785 77.339 M279.118 91.833 C 279.067 91.971,278.897 92.496,278.740 93.000 C 276.628 99.759,266.947 108.868,260.583 110.082 L 259.917 110.209 260.917 110.419 C 267.541 111.811,277.112 121.287,279.011 128.333 C 279.225 129.125,279.308 129.282,279.321 128.917 C 279.525 122.999,290.577 111.908,297.750 110.422 L 298.750 110.215 298.083 110.097 C 291.149 108.870,281.278 99.416,279.363 92.167 C 279.266 91.797,279.176 91.675,279.118 91.833 M201.867 96.641 C 200.061 97.604,200.351 100.259,202.327 100.851 C 204.952 101.638,206.256 97.845,203.800 96.567 C 203.203 96.257,202.539 96.282,201.867 96.641 M2.833 104.784 C 1.846 105.143,1.194 106.530,1.492 107.636 C 2.188 110.220,6.010 109.718,6.051 107.037 C 6.077 105.304,4.479 104.185,2.833 104.784 M62.838 109.547 C 61.767 110.088,61.342 111.716,61.993 112.784 C 63.160 114.698,66.165 113.833,66.165 111.583 C 66.165 109.913,64.332 108.791,62.838 109.547 M368.721 123.940 C 365.656 125.026,364.724 129.199,367.032 131.506 C 368.864 133.338,371.984 133.272,373.705 131.363 C 376.885 127.835,373.204 122.351,368.721 123.940 M343.307 132.891 C 340.594 134.096,341.380 138.235,344.322 138.229 C 347.228 138.224,348.229 134.307,345.659 132.996 C 344.945 132.632,343.986 132.589,343.307 132.891 M78.000 156.407 C 68.944 157.714,61.218 163.644,57.984 171.772 C 57.697 172.493,57.407 173.158,57.339 173.250 C 56.428 174.489,55.790 180.584,56.177 184.355 C 56.554 188.033,58.654 193.743,60.249 195.430 C 60.342 195.528,60.786 196.110,61.235 196.721 C 62.239 198.089,62.073 198.132,63.167 196.217 C 70.797 182.859,83.894 171.372,98.083 165.591 C 99.183 165.143,100.115 164.751,100.153 164.721 C 100.385 164.538,97.024 161.589,95.259 160.428 C 90.225 157.115,83.674 155.589,78.000 156.407 M168.250 158.270 C 163.697 158.969,160.834 159.937,157.833 161.791 C 156.387 162.684,154.256 164.274,153.701 164.874 L 153.319 165.287 153.868 165.507 C 160.423 168.130,167.836 172.717,173.708 177.783 L 175.333 179.185 175.333 168.861 L 175.333 158.538 174.792 158.437 C 174.079 158.304,168.892 158.172,168.250 158.270 M124.667 204.333 L 124.667 224.000 125.917 224.000 L 127.167 224.000 127.167 204.333 L 127.167 184.667 125.917 184.667 L 124.667 184.667 124.667 204.333 M134.804 232.500 L 134.859 233.833 151.263 233.833 L 167.667 233.833 167.667 232.500 L 167.667 231.167 151.208 231.166 L 134.750 231.166 134.804 232.500 M66.833 270.248 L 66.833 275.329 65.875 274.891 C 60.733 272.538,49.509 268.768,49.041 269.237 C 48.744 269.534,52.219 280.713,54.330 286.250 C 56.804 292.737,57.262 293.682,58.295 294.417 C 59.990 295.624,63.219 298.249,65.042 299.902 L 66.833 301.526 66.833 308.930 L 66.833 316.333 89.583 316.333 L 112.333 316.333 112.333 315.594 L 112.333 314.855 110.458 313.735 C 107.497 311.967,107.621 312.427,109.150 308.902 L 110.300 306.250 110.485 300.583 C 110.688 294.370,111.077 283.240,111.333 276.333 C 111.423 273.904,111.498 271.341,111.498 270.637 L 111.500 269.357 110.625 269.263 C 110.144 269.211,108.025 269.092,105.917 268.999 C 96.066 268.564,90.317 267.974,86.526 267.007 C 85.824 266.828,84.243 266.486,83.013 266.246 C 81.782 266.006,80.395 265.665,79.930 265.488 C 79.149 265.192,78.605 265.167,72.958 265.167 L 66.833 265.167 66.833 270.248 M330.333 282.544 C 330.104 282.646,329.204 283.045,328.333 283.430 C 326.661 284.169,324.476 285.219,323.917 285.552 C 323.733 285.661,322.104 286.521,320.295 287.462 C 305.920 294.945,294.582 304.895,289.960 314.083 C 289.242 315.510,288.000 318.464,288.000 318.744 C 288.000 318.793,295.969 318.833,305.709 318.833 L 323.418 318.833 324.584 317.411 C 331.606 308.841,334.252 297.459,331.905 285.917 C 331.195 282.421,331.094 282.204,330.333 282.544 M167.241 292.635 C 166.228 293.340,164.653 294.360,163.741 294.902 C 162.829 295.444,161.879 296.009,161.630 296.157 L 161.177 296.427 164.774 302.005 C 169.664 309.588,170.206 310.083,173.607 310.083 C 174.541 310.083,175.330 310.046,175.361 310.000 C 175.392 309.954,175.379 308.330,175.333 306.392 L 175.250 302.867 174.250 302.121 C 173.700 301.711,172.956 301.069,172.597 300.694 L 171.944 300.012 172.764 299.659 C 173.215 299.465,173.976 299.181,174.456 299.028 L 175.329 298.750 175.331 296.515 C 175.333 294.313,175.326 294.268,174.833 293.499 L 174.332 292.718 172.991 292.529 C 172.254 292.424,171.112 292.113,170.453 291.836 C 168.997 291.225,169.421 291.119,167.241 292.635 " stroke="none" fill="#e88d30" fill-rule="evenodd"></path><path id="path2" d="M152.167 0.109 C 150.750 0.197,145.174 0.804,144.000 0.997 C 136.731 2.193,130.387 4.019,124.583 6.585 C 122.965 7.301,119.006 9.307,118.499 9.667 C 118.242 9.850,117.985 10.000,117.929 10.000 C 117.680 10.000,111.854 13.917,111.500 14.322 C 111.454 14.375,110.854 14.866,110.167 15.415 C 108.297 16.907,103.916 21.346,102.350 23.333 C 101.592 24.296,100.875 25.204,100.757 25.352 C 99.425 27.021,96.491 32.115,95.725 34.089 C 94.368 37.585,93.689 40.158,92.923 44.712 C 92.595 46.662,92.308 49.998,92.082 54.500 C 91.280 70.459,91.020 73.222,89.989 76.750 C 87.415 85.561,83.052 90.413,74.782 93.660 C 48.752 103.882,38.265 150.296,56.913 172.749 L 57.328 173.249 57.614 172.499 C 64.095 155.508,85.837 150.701,98.928 163.365 L 100.272 164.666 101.595 164.183 C 117.213 158.483,135.118 158.608,151.452 164.530 L 153.320 165.207 154.350 164.275 C 157.596 161.337,162.503 159.096,167.213 158.401 C 169.068 158.127,173.997 158.144,174.958 158.428 L 175.333 158.539 175.333 132.531 C 175.333 109.110,175.359 106.498,175.595 106.262 C 175.832 106.025,180.294 106.000,222.220 106.000 L 268.583 106.000 270.333 104.441 C 274.604 100.637,278.050 95.768,278.844 92.417 C 279.152 91.120,279.308 90.802,279.322 91.448 C 279.389 94.594,284.246 101.464,289.234 105.468 C 290.608 106.571,292.997 108.235,293.069 108.139 C 293.092 108.108,293.045 107.333,292.965 106.417 C 292.741 103.883,292.753 98.416,292.987 95.275 L 293.197 92.467 292.724 91.961 C 291.222 90.358,288.404 88.515,286.843 88.116 L 285.947 87.886 286.765 87.683 C 288.331 87.293,290.500 85.896,292.695 83.864 L 293.711 82.923 293.598 81.170 C 292.519 64.358,281.260 51.728,258.083 41.331 C 257.625 41.126,256.688 40.696,256.000 40.377 C 255.313 40.058,253.737 39.350,252.500 38.805 C 251.262 38.259,250.025 37.712,249.750 37.590 C 249.475 37.468,248.237 36.940,247.000 36.416 C 228.536 28.611,220.444 24.521,212.917 19.190 C 211.817 18.411,210.879 17.726,210.833 17.669 C 210.592 17.368,206.356 14.241,204.917 13.302 C 199.117 9.517,192.670 6.449,186.083 4.342 C 184.142 3.721,183.244 3.465,180.000 2.609 C 172.820 0.714,160.372 -0.404,152.167 0.109 M179.044 36.632 C 182.709 38.253,182.484 43.785,178.701 45.074 C 175.690 46.100,172.667 43.969,172.667 40.821 C 172.667 37.421,175.951 35.264,179.044 36.632 M203.953 96.612 C 204.724 96.978,205.165 97.726,205.165 98.667 C 205.165 101.267,201.676 101.864,200.744 99.423 C 199.997 97.468,202.021 95.695,203.953 96.612 M64.528 109.338 C 66.226 109.810,66.759 111.908,65.500 113.167 C 63.402 115.265,60.194 112.217,62.204 110.035 C 62.899 109.282,63.584 109.076,64.528 109.338 M291.779 113.052 C 290.914 113.630,289.673 114.549,289.023 115.093 L 287.840 116.083 287.802 145.583 C 287.765 174.184,287.834 280.892,287.889 280.941 C 287.923 280.970,291.143 278.908,291.513 278.621 C 292.525 277.836,299.500 274.426,303.203 272.905 L 305.990 271.761 304.870 271.197 C 300.254 268.873,297.399 263.209,298.077 257.721 C 298.405 255.071,298.235 255.188,300.500 256.051 C 306.245 258.239,309.506 262.273,310.464 268.375 C 310.810 270.580,310.779 270.585,311.550 268.206 C 312.872 264.122,314.840 259.328,316.860 255.270 C 317.494 253.997,317.990 252.939,317.964 252.918 C 317.938 252.897,317.279 252.561,316.500 252.171 C 309.538 248.690,307.179 242.534,309.773 234.618 L 310.199 233.320 311.141 233.847 C 316.858 237.046,319.333 241.312,319.333 247.969 L 319.333 250.400 320.770 247.996 C 322.679 244.801,324.830 241.587,326.919 238.808 L 328.631 236.532 327.357 235.522 C 322.762 231.879,321.822 226.974,324.613 221.208 C 325.303 219.784,325.229 219.804,326.367 220.731 C 330.164 223.824,332.028 229.730,330.487 233.784 C 330.198 234.544,330.421 234.368,331.847 232.714 C 332.617 231.821,334.475 229.834,335.975 228.298 L 338.703 225.506 337.975 224.696 C 336.495 223.051,335.846 221.011,336.180 219.060 C 336.493 217.230,337.760 214.706,338.267 214.900 C 338.413 214.956,338.357 214.761,338.115 214.369 C 334.824 209.031,333.834 202.869,335.255 196.579 C 335.643 194.859,335.864 194.065,336.755 191.167 C 339.424 182.494,339.249 176.654,336.120 169.972 C 333.665 164.728,329.357 159.870,319.583 151.322 C 307.241 140.526,300.673 132.489,297.191 123.917 C 296.893 123.183,296.584 122.433,296.505 122.250 C 296.164 121.464,295.488 119.474,295.091 118.083 C 294.855 117.258,294.593 116.358,294.509 116.083 C 294.367 115.618,293.667 112.299,293.667 112.093 C 293.667 111.858,293.239 112.075,291.779 113.052 M228.089 170.005 C 226.260 170.390,224.633 170.981,224.714 171.231 C 224.747 171.333,225.706 172.429,226.845 173.667 L 228.917 175.917 231.333 175.920 C 238.416 175.931,242.908 180.621,242.914 188.012 L 242.917 190.940 243.387 191.652 C 245.024 194.127,248.407 193.125,249.002 189.990 C 251.211 178.344,239.885 167.520,228.089 170.005 M121.667 184.777 C 95.222 187.369,74.325 204.464,67.600 229.005 L 67.190 230.500 70.095 230.500 L 73.000 230.500 73.000 232.663 L 73.000 234.826 69.625 234.872 L 66.250 234.917 66.046 236.167 C 65.175 241.508,67.671 251.556,72.021 260.227 C 73.561 263.296,73.311 263.164,75.251 261.923 L 76.153 261.347 76.057 260.543 C 75.659 257.178,78.998 242.895,81.776 236.083 C 87.163 222.871,97.847 214.158,104.691 217.396 C 105.851 217.945,105.662 217.980,106.905 216.984 L 107.964 216.136 107.551 215.120 C 105.818 210.854,106.372 206.853,109.081 204.079 C 112.320 200.761,118.463 201.260,121.472 205.086 C 121.920 205.655,121.377 208.721,120.733 209.260 C 120.341 209.589,120.316 209.729,120.166 212.344 C 119.873 217.448,119.106 220.985,118.288 221.005 C 117.748 221.018,118.687 221.299,119.555 221.384 C 122.251 221.647,121.946 222.756,118.887 223.815 C 116.437 224.663,116.316 224.736,116.979 224.968 C 117.266 225.068,117.500 225.196,117.500 225.253 C 117.500 225.311,117.278 226.383,117.007 227.637 C 116.735 228.891,116.132 231.717,115.666 233.917 C 115.200 236.117,114.788 238.006,114.751 238.116 C 114.714 238.226,115.280 237.937,116.009 237.474 C 117.525 236.511,117.347 237.092,117.407 232.917 C 117.468 228.596,119.473 225.706,123.304 224.416 L 124.417 224.041 124.459 204.354 L 124.501 184.667 123.376 184.693 C 122.757 184.708,121.987 184.746,121.667 184.777 M127.333 204.300 L 127.333 223.934 128.535 224.310 C 131.506 225.238,133.763 227.529,134.530 230.396 L 134.736 231.167 151.201 231.167 L 167.667 231.167 167.667 232.500 L 167.667 233.833 151.250 233.833 C 138.243 233.833,134.828 233.877,134.805 234.042 C 134.790 234.156,134.769 235.112,134.758 236.167 C 134.664 245.732,122.356 248.748,118.220 240.219 L 117.558 238.855 115.779 240.035 C 114.752 240.716,113.999 241.328,113.999 241.482 C 113.986 244.139,111.197 253.930,110.173 254.910 L 109.661 255.401 111.206 255.866 C 112.055 256.121,115.337 257.087,118.500 258.011 C 128.043 260.800,127.928 260.650,126.342 268.282 C 125.888 270.465,125.061 274.462,124.503 277.167 C 123.944 279.871,123.306 282.946,123.084 284.000 C 122.037 288.967,121.195 293.083,121.221 293.105 C 121.237 293.119,121.869 293.183,122.625 293.249 L 124.000 293.368 124.000 290.184 L 124.000 287.000 126.083 287.000 L 128.167 287.000 128.167 290.179 L 128.167 293.358 129.708 293.254 C 138.517 292.660,147.242 290.210,154.542 286.279 C 156.101 285.440,156.314 285.275,156.174 285.014 C 156.085 284.848,155.373 283.643,154.590 282.335 C 153.807 281.026,153.167 279.938,153.167 279.917 C 153.167 279.837,154.532 278.977,154.576 279.029 C 154.602 279.059,155.316 280.265,156.164 281.708 C 157.011 283.152,157.762 284.333,157.831 284.333 C 158.069 284.333,162.457 281.350,163.210 280.677 C 163.280 280.614,162.717 280.246,161.960 279.858 C 161.203 279.470,160.358 278.969,160.083 278.743 L 159.583 278.333 160.083 277.918 C 162.689 275.753,166.217 274.659,168.529 275.297 C 169.213 275.486,170.529 274.468,170.241 273.973 C 169.897 273.382,165.969 267.833,165.895 267.833 C 165.848 267.833,165.497 268.048,165.113 268.311 C 161.941 270.486,159.005 270.537,155.812 268.473 L 154.755 267.790 155.503 267.137 C 157.873 265.068,160.784 264.573,163.708 265.744 C 164.235 265.955,164.667 266.102,164.667 266.070 C 164.667 265.566,160.079 259.694,159.848 259.904 C 158.361 261.249,155.836 261.315,153.699 260.062 L 152.971 259.636 153.327 259.256 C 154.441 258.071,156.810 257.510,158.405 258.054 L 159.176 258.316 158.501 257.354 C 157.961 256.585,157.650 256.319,156.949 256.028 C 155.389 255.382,154.396 254.140,154.021 252.367 C 153.618 250.467,153.825 250.308,155.610 251.153 C 157.221 251.915,158.198 253.139,158.435 254.693 C 158.579 255.635,158.600 255.673,160.543 258.411 C 162.028 260.505,162.763 261.465,162.439 260.887 C 161.846 259.832,162.056 256.637,162.819 255.087 C 163.539 253.625,166.528 250.806,166.931 251.209 C 167.521 251.799,167.744 255.506,167.282 257.036 C 166.813 258.586,164.437 261.271,163.154 261.699 C 162.990 261.753,168.278 269.470,168.996 270.223 C 169.070 270.300,169.027 269.925,168.901 269.390 C 167.925 265.241,169.401 261.550,173.066 258.976 C 174.460 257.997,174.561 257.989,174.812 258.826 C 174.920 259.189,175.082 259.531,175.171 259.586 C 175.276 259.651,175.333 250.858,175.333 234.742 L 175.333 209.798 174.210 208.357 C 163.063 194.056,144.872 184.667,128.310 184.667 L 127.333 184.667 127.333 204.300 M59.585 196.459 C 57.996 199.510,54.448 204.970,50.258 210.811 C 47.423 214.762,47.060 215.270,45.764 217.096 C 45.313 217.731,44.713 218.562,44.431 218.944 C 43.533 220.155,43.039 220.852,40.664 224.250 C 37.628 228.596,33.862 234.543,31.957 238.000 C 30.915 239.892,29.491 242.709,28.925 244.000 C 28.584 244.779,28.205 245.642,28.084 245.917 C 26.692 249.079,25.105 254.412,24.752 257.112 C 24.639 257.973,24.641 257.979,26.092 260.362 C 27.339 262.412,27.530 262.656,27.440 262.083 C 26.482 256.000,28.676 251.042,33.472 248.455 L 34.637 247.826 34.903 248.625 C 37.043 255.069,34.958 260.287,29.087 263.177 L 28.034 263.696 28.780 265.056 C 30.314 267.855,33.647 274.935,34.597 277.417 L 34.917 278.250 35.017 276.417 C 35.313 270.990,37.444 267.667,42.000 265.524 C 44.435 264.380,44.300 264.281,44.447 267.333 C 44.729 273.192,42.144 276.905,36.398 278.897 L 35.378 279.250 35.898 280.617 C 36.527 282.275,36.411 282.159,38.250 282.971 C 39.075 283.336,40.537 284.010,41.499 284.470 L 43.248 285.306 44.166 284.440 C 45.728 282.966,48.494 281.525,50.321 281.233 L 51.000 281.124 51.000 282.604 C 50.999 284.426,50.648 286.500,50.116 287.817 L 49.715 288.811 51.560 289.938 C 52.575 290.559,54.282 291.645,55.353 292.353 L 57.300 293.640 56.796 292.528 C 53.790 285.903,48.303 269.165,49.137 269.167 C 50.880 269.173,60.575 272.408,65.067 274.483 C 67.108 275.426,67.105 275.433,65.550 273.096 C 51.193 251.504,49.331 224.015,60.660 200.875 L 62.107 197.919 61.192 196.709 C 60.096 195.260,60.200 195.276,59.585 196.459 M232.437 218.792 C 232.391 218.952,232.302 219.440,232.241 219.875 C 232.149 220.524,231.833 221.029,231.833 220.527 C 231.833 220.304,231.034 220.000,230.450 220.001 C 229.280 220.002,228.179 221.275,228.170 222.638 C 228.161 223.985,230.022 224.688,231.130 223.756 L 231.618 223.344 231.540 223.756 C 231.484 224.049,231.535 224.167,231.719 224.167 C 231.896 224.167,232.031 223.894,232.152 223.292 C 232.326 222.421,233.000 218.657,233.000 218.554 C 233.000 218.349,232.506 218.558,232.437 218.792 M234.117 218.605 C 233.854 218.868,234.010 219.188,234.375 219.137 C 234.581 219.107,234.750 218.972,234.750 218.836 C 234.750 218.571,234.311 218.411,234.117 218.605 M340.940 219.083 C 341.147 219.868,341.054 222.169,340.781 223.042 C 340.469 224.036,340.449 224.040,341.917 222.792 C 343.398 221.532,343.389 221.873,341.985 220.083 C 341.100 218.956,340.840 218.708,340.940 219.083 M215.519 221.125 C 215.309 222.385,215.098 223.585,215.050 223.792 C 214.966 224.155,215.002 224.167,216.232 224.167 C 217.248 224.167,217.500 224.117,217.500 223.917 C 217.500 223.725,217.287 223.667,216.583 223.667 C 215.959 223.667,215.668 223.600,215.671 223.458 C 215.673 223.344,215.851 222.256,216.066 221.042 C 216.422 219.026,216.432 218.833,216.178 218.833 C 215.951 218.833,215.831 219.250,215.519 221.125 M110.698 220.524 C 109.751 221.102,109.341 221.446,109.403 221.608 C 109.712 222.414,108.460 226.065,106.620 229.719 L 105.125 232.688 105.397 235.969 C 105.804 240.897,106.016 243.238,106.059 243.281 C 106.081 243.303,107.022 240.642,108.152 237.368 C 109.281 234.095,110.788 229.729,111.500 227.667 C 113.259 222.572,114.030 221.333,115.442 221.333 C 116.050 221.333,115.768 221.108,114.833 220.846 C 114.421 220.731,113.676 220.418,113.179 220.152 C 112.072 219.558,112.344 219.517,110.698 220.524 M219.543 220.274 C 218.321 220.876,217.870 222.920,218.774 223.758 C 219.734 224.648,221.566 224.125,222.173 222.788 C 223.084 220.780,221.530 219.295,219.543 220.274 M224.224 220.342 C 223.116 221.053,222.757 222.939,223.576 223.758 C 224.103 224.285,225.174 224.313,225.981 223.822 L 226.545 223.478 226.455 223.822 C 226.390 224.070,226.444 224.167,226.647 224.167 C 226.878 224.167,226.987 223.822,227.239 222.292 C 227.409 221.260,227.583 220.323,227.625 220.208 C 227.672 220.083,227.562 220.000,227.351 220.000 C 227.089 220.000,227.000 220.104,227.000 220.409 L 227.000 220.818 226.591 220.409 C 226.067 219.885,224.985 219.855,224.224 220.342 M233.917 220.208 C 233.877 220.323,233.726 221.129,233.582 222.000 C 233.437 222.871,233.279 223.715,233.231 223.875 C 233.170 224.079,233.237 224.167,233.454 224.167 C 233.719 224.167,233.808 223.897,234.073 222.292 C 234.243 221.260,234.416 220.323,234.459 220.208 C 234.501 220.094,234.413 220.000,234.263 220.000 C 234.112 220.000,233.957 220.094,233.917 220.208 M235.667 220.051 C 235.667 220.079,235.517 220.919,235.333 221.917 C 234.938 224.071,234.933 224.167,235.228 224.167 C 235.384 224.167,235.541 223.707,235.721 222.727 C 236.039 220.996,236.402 220.500,237.350 220.500 C 238.499 220.500,238.638 220.856,238.262 222.831 C 238.010 224.152,238.019 224.259,238.378 224.121 C 238.587 224.041,239.004 221.982,239.001 221.042 C 238.998 220.127,237.435 219.631,236.537 220.259 C 236.202 220.494,236.167 220.494,236.167 220.259 C 236.167 220.117,236.054 220.000,235.917 220.000 C 235.779 220.000,235.667 220.023,235.667 220.051 M241.333 220.118 C 239.984 220.611,239.342 222.797,240.273 223.727 C 240.821 224.275,241.827 224.322,242.625 223.835 C 243.225 223.469,243.238 223.487,242.993 224.367 C 242.649 225.608,241.239 226.088,240.402 225.250 C 239.907 224.755,239.667 224.720,239.667 225.141 C 239.667 226.545,242.577 226.401,243.355 224.958 C 243.468 224.748,244.326 220.434,244.333 220.042 C 244.336 219.825,243.831 220.080,243.749 220.336 L 243.643 220.672 243.215 220.336 C 242.804 220.012,241.906 219.908,241.333 220.118 M221.529 220.776 C 222.233 221.414,221.769 223.089,220.753 223.571 C 219.145 224.334,218.110 222.502,219.351 221.089 C 219.944 220.414,220.966 220.267,221.529 220.776 M226.366 220.792 C 227.321 221.904,226.446 223.667,224.937 223.667 C 223.954 223.667,223.575 223.187,223.718 222.121 C 223.895 220.805,225.629 219.934,226.366 220.792 M231.500 220.833 C 232.425 221.759,231.444 223.667,230.042 223.667 C 228.947 223.667,228.474 222.822,228.931 221.680 C 229.399 220.509,230.736 220.069,231.500 220.833 M243.071 220.762 C 244.055 221.745,243.111 223.667,241.644 223.667 C 240.489 223.667,240.052 222.830,240.566 221.600 C 240.987 220.590,242.421 220.111,243.071 220.762 M342.333 224.485 C 341.279 225.397,339.667 226.858,338.750 227.732 L 337.083 229.320 338.128 228.921 C 343.282 226.953,348.145 228.595,351.642 233.483 C 352.331 234.446,352.361 234.392,350.865 234.886 C 345.921 236.520,341.268 235.316,337.397 231.400 L 336.210 230.200 334.455 232.142 C 330.682 236.317,325.477 242.974,326.500 242.315 C 333.062 238.095,338.607 238.724,344.500 244.359 C 345.838 245.639,345.833 245.578,344.670 246.165 C 338.626 249.216,332.415 248.634,326.917 244.503 C 326.183 243.951,325.543 243.500,325.494 243.500 C 325.375 243.500,322.262 248.486,321.071 250.583 C 319.859 252.717,317.390 257.631,316.522 259.634 L 315.851 261.184 316.884 260.155 C 321.679 255.380,327.708 255.011,334.256 259.093 C 335.727 260.009,335.713 259.959,334.708 260.792 C 329.418 265.178,323.130 265.847,316.707 262.706 C 316.041 262.381,315.469 262.145,315.436 262.182 C 315.331 262.299,313.816 266.342,313.237 268.050 C 312.740 269.516,312.715 269.674,312.994 269.585 C 313.742 269.348,316.610 268.670,316.875 268.669 C 317.258 268.666,317.278 268.535,316.417 271.648 C 316.004 273.140,315.667 274.424,315.667 274.502 C 315.667 274.580,316.098 274.468,316.625 274.254 C 319.527 273.077,323.244 273.275,327.541 274.835 C 329.197 275.436,329.178 275.333,327.907 276.812 C 325.474 279.644,322.209 281.619,319.046 282.174 L 317.842 282.385 319.218 282.995 C 319.975 283.331,321.326 284.001,322.220 284.484 L 323.845 285.363 325.798 284.151 C 326.871 283.485,327.938 282.800,328.167 282.629 C 328.396 282.459,329.671 281.559,331.000 280.629 C 355.111 263.763,361.939 242.458,348.140 227.150 C 347.926 226.912,347.048 225.958,346.189 225.031 C 345.330 224.103,344.543 223.228,344.439 223.085 C 344.277 222.865,343.966 223.072,342.333 224.485 M244.733 223.577 C 244.489 223.758,244.462 223.857,244.614 224.011 C 244.858 224.259,245.333 224.097,245.333 223.765 C 245.333 223.394,245.086 223.317,244.733 223.577 M246.208 223.451 C 245.910 223.561,245.950 224.167,246.255 224.167 C 246.557 224.167,246.775 223.703,246.564 223.510 C 246.483 223.436,246.323 223.409,246.208 223.451 M247.529 223.537 C 247.232 223.835,247.295 224.167,247.649 224.167 C 248.039 224.167,248.221 223.753,247.936 223.516 C 247.788 223.393,247.667 223.399,247.529 223.537 M236.667 229.166 L 236.667 231.000 251.922 231.000 L 267.178 231.000 267.131 229.208 L 267.083 227.417 251.875 227.374 L 236.667 227.332 236.667 229.166 M124.159 229.542 C 123.442 229.969,123.153 230.274,122.792 230.988 C 120.857 234.808,125.665 238.351,128.685 235.331 C 131.795 232.221,127.940 227.290,124.159 229.542 M24.337 262.375 C 24.342 265.835,24.729 268.162,25.302 268.171 C 26.011 268.183,28.244 269.347,29.965 270.604 C 30.520 271.009,27.348 264.855,25.208 261.375 C 24.272 259.851,24.333 259.781,24.337 262.375 M75.463 263.718 C 73.768 264.763,74.056 265.066,76.801 265.130 L 78.813 265.177 77.724 264.088 C 77.126 263.490,76.624 263.006,76.610 263.013 C 76.595 263.021,76.079 263.338,75.463 263.718 M175.104 265.000 C 174.580 267.099,171.677 270.398,169.783 271.046 C 169.657 271.089,169.861 271.530,170.333 272.234 L 171.083 273.354 171.727 272.635 C 172.561 271.705,174.696 269.043,175.061 268.479 C 175.293 268.121,175.336 267.709,175.298 266.229 C 175.260 264.794,175.220 264.538,175.104 265.000 M29.917 273.440 C 29.275 273.752,28.357 274.131,27.878 274.283 L 27.005 274.559 27.783 275.988 C 28.210 276.774,28.821 277.792,29.140 278.250 C 29.805 279.205,30.542 280.211,30.666 280.333 C 30.712 280.379,31.085 280.829,31.495 281.333 C 32.431 282.485,34.492 284.631,34.863 284.841 C 35.102 284.976,35.172 284.870,35.339 284.123 C 35.560 283.135,34.871 281.109,32.437 275.594 C 31.101 272.568,31.323 272.758,29.917 273.440 M312.759 283.296 C 312.471 284.218,309.823 291.104,309.268 292.375 C 308.877 293.271,308.894 293.265,313.785 290.823 C 318.019 288.708,318.151 288.627,318.077 288.196 C 317.888 287.083,317.500 283.630,317.499 283.055 L 317.499 282.417 315.278 282.379 L 313.058 282.342 312.759 283.296 M174.917 286.667 C 174.624 286.990,174.626 287.000,174.974 287.000 C 175.222 287.000,175.333 286.897,175.333 286.667 C 175.333 286.483,175.307 286.333,175.276 286.333 C 175.244 286.333,175.083 286.483,174.917 286.667 M174.796 292.636 L 174.343 292.688 174.796 293.376 C 175.246 294.059,175.250 294.061,175.303 293.613 C 175.399 292.793,175.288 292.579,174.796 292.636 M158.446 297.844 C 147.001 303.483,134.876 306.001,122.352 305.338 C 120.482 305.239,118.908 305.203,118.854 305.257 C 118.705 305.406,119.801 307.375,120.596 308.388 L 121.292 309.275 123.521 309.483 C 126.654 309.777,126.672 309.785,124.220 309.811 L 122.023 309.833 122.589 310.675 C 123.269 311.686,123.498 312.440,123.499 313.675 C 123.501 315.513,123.207 315.464,118.859 312.905 C 116.902 311.753,115.268 310.843,115.229 310.883 C 115.189 310.922,115.677 311.513,116.313 312.194 C 118.130 314.140,118.971 316.672,118.091 317.552 C 117.632 318.011,117.581 317.989,113.625 315.622 L 112.333 314.850 112.333 315.591 L 112.333 316.333 77.681 316.333 L 43.029 316.333 42.156 315.292 C 41.676 314.719,40.901 313.702,40.434 313.033 L 39.586 311.815 38.585 311.911 C 38.034 311.964,35.896 312.081,33.833 312.171 C 23.566 312.618,13.000 313.305,8.333 313.829 C 3.636 314.356,2.841 314.480,1.222 314.939 C -0.888 315.536,0.134 316.416,3.500 316.902 C 9.879 317.823,16.357 318.315,33.333 319.170 C 39.815 319.496,55.935 320.065,66.083 320.326 C 89.656 320.931,99.370 321.131,115.667 321.344 C 172.875 322.093,251.387 321.945,296.500 321.003 C 310.182 320.717,329.208 320.235,336.167 319.998 C 344.974 319.697,354.396 319.334,357.667 319.170 C 374.643 318.315,381.121 317.823,387.500 316.902 C 394.710 315.861,390.828 314.434,378.000 313.408 C 365.126 312.379,362.532 312.287,344.750 312.224 L 328.250 312.165 327.455 313.493 C 326.599 314.924,325.126 316.935,324.003 318.208 L 323.305 319.000 293.403 319.000 C 259.428 319.000,263.336 319.190,263.656 317.550 C 263.742 317.110,263.931 315.962,264.076 315.000 C 264.414 312.758,264.666 311.183,264.763 310.708 L 264.840 310.333 220.378 310.331 C 195.924 310.329,175.819 310.266,175.700 310.191 C 175.581 310.115,175.073 310.124,174.572 310.211 C 171.037 310.819,169.702 309.718,164.853 302.191 C 162.893 299.148,161.243 296.633,161.186 296.602 C 161.130 296.570,159.896 297.130,158.446 297.844 M114.189 305.125 C 113.745 306.888,113.812 307.142,114.396 305.917 C 114.702 305.275,114.921 304.694,114.883 304.625 C 114.700 304.295,114.331 304.561,114.189 305.125 " stroke="none" fill="#f7e2ee" fill-rule="evenodd"></path><path id="path3" d="M184.000 203.250 L 184.000 284.667 231.500 284.667 L 279.000 284.667 279.000 206.510 L 279.000 128.353 278.565 127.135 C 278.062 125.724,277.253 124.139,276.370 122.833 L 275.750 121.917 229.875 121.875 L 184.000 121.833 184.000 203.250 M236.249 170.241 C 242.410 172.081,246.734 176.397,248.610 182.583 C 249.144 184.340,249.306 189.621,248.866 190.865 C 247.920 193.531,244.361 193.776,243.050 191.264 C 242.841 190.865,242.817 190.388,242.911 188.597 C 243.222 182.669,240.263 178.149,234.917 176.385 C 230.690 174.990,225.247 176.629,222.602 180.092 L 222.035 180.836 220.559 179.210 C 219.747 178.315,219.046 177.544,219.000 177.497 C 218.954 177.449,218.662 177.134,218.350 176.796 L 217.783 176.183 219.017 174.910 C 223.379 170.408,230.420 168.501,236.249 170.241 M243.190 195.412 C 245.442 196.903,244.726 199.927,241.698 201.707 L 241.204 201.997 240.231 200.873 C 239.695 200.255,238.768 199.235,238.170 198.605 L 237.083 197.460 237.566 197.105 C 237.832 196.910,238.449 196.428,238.939 196.035 C 240.584 194.711,241.850 194.526,243.190 195.412 M233.000 218.576 C 233.000 218.755,232.142 223.609,232.064 223.875 C 231.943 224.283,231.500 224.241,231.500 223.821 L 231.500 223.476 231.061 223.821 C 229.905 224.730,228.166 223.954,228.167 222.529 C 228.168 220.681,230.528 219.194,231.661 220.327 C 232.052 220.719,232.099 220.661,232.255 219.583 C 232.321 219.125,232.408 218.694,232.448 218.625 C 232.525 218.491,233.000 218.449,233.000 218.576 M234.833 218.730 C 234.833 218.856,234.718 219.055,234.576 219.173 C 234.259 219.435,233.905 219.155,234.056 218.761 C 234.179 218.439,234.833 218.413,234.833 218.730 M216.424 219.208 C 216.297 219.788,215.667 223.388,215.667 223.536 C 215.667 223.608,216.079 223.667,216.583 223.667 C 217.287 223.667,217.500 223.725,217.500 223.917 C 217.500 224.117,217.250 224.167,216.250 224.167 C 215.563 224.167,215.001 224.110,215.001 224.042 C 215.002 223.973,215.190 222.837,215.418 221.517 C 215.646 220.197,215.833 219.053,215.833 218.975 C 215.833 218.897,215.985 218.833,216.170 218.833 C 216.432 218.833,216.488 218.916,216.424 219.208 M238.249 220.072 C 238.998 220.385,239.097 220.828,238.831 222.682 C 238.651 223.940,238.571 224.167,238.309 224.167 C 238.139 224.167,238.000 224.137,238.000 224.102 C 238.000 224.066,238.117 223.422,238.259 222.670 C 238.579 220.983,238.389 220.500,237.405 220.500 C 236.568 220.500,236.079 221.053,235.842 222.267 C 235.737 222.808,235.610 223.456,235.562 223.708 C 235.506 223.999,235.367 224.167,235.183 224.167 C 234.903 224.167,235.081 222.480,235.583 220.375 C 235.686 219.947,236.167 219.861,236.167 220.270 C 236.167 220.487,236.215 220.501,236.406 220.342 C 236.538 220.233,236.856 220.080,237.114 220.003 C 237.372 219.925,237.604 219.856,237.630 219.848 C 237.656 219.840,237.935 219.941,238.249 220.072 M221.949 220.403 C 222.892 221.214,222.433 223.262,221.162 223.919 C 219.281 224.892,217.623 223.361,218.473 221.438 C 219.091 220.042,220.903 219.502,221.949 220.403 M226.561 220.345 L 227.000 220.691 227.000 220.345 C 227.000 220.105,227.107 220.000,227.353 220.000 C 227.633 220.000,227.686 220.075,227.611 220.362 C 227.559 220.562,227.389 221.499,227.234 222.446 C 226.987 223.951,226.910 224.167,226.623 224.167 C 226.381 224.167,226.317 224.082,226.378 223.848 C 226.460 223.533,226.453 223.533,225.939 223.847 C 223.949 225.060,222.277 223.108,223.533 221.039 C 224.164 220.001,225.681 219.653,226.561 220.345 M234.448 220.375 C 234.400 220.581,234.229 221.519,234.068 222.458 C 233.814 223.938,233.732 224.167,233.452 224.167 C 233.201 224.167,233.149 224.085,233.223 223.804 C 233.275 223.605,233.444 222.667,233.600 221.721 C 233.846 220.218,233.924 220.000,234.209 220.000 C 234.463 220.000,234.517 220.084,234.448 220.375 M243.209 220.331 C 243.628 220.660,243.629 220.660,243.716 220.331 C 243.796 220.024,244.333 219.845,244.333 220.125 C 244.333 220.686,243.593 224.382,243.381 224.878 C 242.866 226.086,241.092 226.597,240.106 225.821 C 239.622 225.441,239.496 224.667,239.917 224.667 C 240.054 224.667,240.167 224.775,240.167 224.907 C 240.167 225.273,240.840 225.667,241.467 225.667 C 242.110 225.667,243.000 224.908,243.000 224.360 C 243.000 224.177,243.051 223.894,243.114 223.731 C 243.212 223.475,243.157 223.484,242.713 223.800 C 241.412 224.727,239.833 224.053,239.833 222.572 C 239.833 220.606,241.853 219.265,243.209 220.331 M219.703 220.760 C 218.387 221.682,218.608 223.667,220.026 223.667 C 221.425 223.667,222.480 221.637,221.529 220.776 C 221.144 220.428,220.189 220.420,219.703 220.760 M224.536 220.760 C 223.254 221.658,223.470 223.667,224.849 223.667 C 225.950 223.667,226.667 222.885,226.667 221.685 C 226.667 220.609,225.484 220.096,224.536 220.760 M229.737 220.691 C 228.897 221.098,228.514 222.826,229.138 223.391 C 229.812 224.001,231.089 223.622,231.584 222.665 C 232.337 221.209,231.191 219.985,229.737 220.691 M241.128 220.828 C 240.619 221.229,240.259 222.179,240.401 222.747 C 240.798 224.330,243.082 223.808,243.410 222.059 C 243.649 220.786,242.185 219.996,241.128 220.828 M245.304 223.723 C 245.370 224.061,244.882 224.282,244.629 224.029 C 244.498 223.898,244.508 223.774,244.665 223.585 C 244.926 223.271,245.229 223.337,245.304 223.723 M246.620 223.520 C 246.871 223.771,246.701 224.167,246.343 224.167 C 245.928 224.167,245.822 224.000,246.012 223.645 C 246.203 223.287,246.356 223.256,246.620 223.520 M248.083 223.764 C 248.083 223.968,247.948 224.103,247.708 224.137 C 247.294 224.195,247.151 223.601,247.542 223.444 C 247.884 223.307,248.083 223.425,248.083 223.764 M267.131 229.208 L 267.178 231.000 231.589 231.000 L 196.000 231.000 196.000 229.166 L 196.000 227.333 231.542 227.375 L 267.083 227.417 267.131 229.208 M92.500 255.086 C 88.031 256.462,78.851 259.263,77.667 259.611 C 75.819 260.153,75.866 260.071,76.422 261.785 C 77.297 264.479,78.479 265.273,82.966 266.180 C 84.276 266.445,85.788 266.775,86.326 266.915 C 90.487 267.993,96.049 268.533,108.773 269.096 C 110.161 269.157,111.369 269.255,111.457 269.312 C 111.615 269.415,111.600 270.051,111.172 281.917 C 111.076 284.575,110.887 290.012,110.753 294.000 C 110.618 297.987,110.460 302.450,110.401 303.917 L 110.294 306.583 111.894 307.373 C 113.466 308.148,113.496 308.155,113.583 307.789 C 113.632 307.584,114.073 305.467,114.565 303.083 C 115.057 300.700,116.072 295.825,116.821 292.250 C 117.570 288.675,118.821 282.675,119.600 278.917 C 120.378 275.158,121.275 270.840,121.591 269.320 C 122.398 265.446,122.338 264.620,121.151 263.272 C 120.309 262.316,120.517 262.390,109.833 259.243 C 104.654 257.718,99.048 256.064,97.374 255.568 C 93.928 254.547,94.170 254.571,92.500 255.086 M274.216 318.957 C 274.931 318.989,276.056 318.988,276.716 318.957 C 277.376 318.925,276.792 318.900,275.417 318.900 C 274.042 318.900,273.501 318.926,274.216 318.957 " stroke="none" fill="#7cacc4" fill-rule="evenodd"></path><path id="path4" d="M336.330 227.958 L 334.750 229.583 336.375 228.003 C 337.884 226.536,338.076 226.333,337.955 226.333 C 337.930 226.333,337.199 227.065,336.330 227.958 M323.039 227.500 C 323.039 227.821,323.073 227.952,323.115 227.792 C 323.157 227.631,323.157 227.369,323.115 227.208 C 323.073 227.048,323.039 227.179,323.039 227.500 M334.127 239.618 C 334.334 239.658,334.634 239.656,334.794 239.615 C 334.953 239.573,334.783 239.540,334.417 239.542 C 334.050 239.544,333.920 239.578,334.127 239.618 M96.189 253.912 L 94.128 254.604 95.606 255.042 C 96.418 255.282,98.846 256.005,101.000 256.646 C 103.154 257.288,108.238 258.792,112.297 259.988 C 120.416 262.381,120.387 262.371,121.207 263.328 C 122.336 264.647,122.390 265.486,121.591 269.320 C 121.275 270.840,120.378 275.158,119.600 278.917 C 118.821 282.675,117.577 288.671,116.836 292.240 C 115.549 298.436,115.484 298.858,115.393 301.522 L 115.299 304.313 116.837 305.085 C 118.682 306.012,118.494 306.187,119.154 302.917 C 119.449 301.450,120.288 297.325,121.018 293.750 C 121.748 290.175,122.414 286.912,122.498 286.500 C 122.582 286.087,122.919 284.475,123.247 282.917 C 123.574 281.358,124.025 279.183,124.248 278.083 C 124.470 276.983,125.035 274.246,125.503 272.000 C 127.334 263.207,127.229 263.837,127.025 262.846 C 126.586 260.714,125.918 260.284,120.634 258.726 C 118.314 258.043,115.817 257.304,115.083 257.085 C 114.350 256.867,112.826 256.414,111.697 256.079 L 109.644 255.470 109.030 255.892 C 106.632 257.542,103.400 257.576,101.005 255.977 C 100.120 255.386,98.500 253.664,98.500 253.314 C 98.500 253.128,98.618 253.097,96.189 253.912 M346.621 312.120 C 346.917 312.157,347.442 312.158,347.788 312.122 C 348.134 312.086,347.892 312.055,347.250 312.055 C 346.608 312.054,346.325 312.083,346.621 312.120 " stroke="none" fill="#6ba3b3" fill-rule="evenodd"></path><path id="path5" d="M176.792 36.284 C 176.998 36.324,177.335 36.324,177.542 36.284 C 177.748 36.245,177.579 36.212,177.167 36.212 C 176.754 36.212,176.585 36.245,176.792 36.284 M279.120 91.222 C 278.934 91.694,278.965 91.935,279.182 91.718 C 279.283 91.617,279.337 91.396,279.302 91.226 C 279.242 90.928,279.236 90.928,279.120 91.222 M284.833 101.385 C 284.833 101.414,285.077 101.658,285.375 101.927 L 285.917 102.417 285.427 101.875 C 284.971 101.370,284.833 101.257,284.833 101.385 M63.333 163.583 C 62.928 163.996,62.635 164.333,62.681 164.333 C 62.726 164.333,63.095 163.996,63.500 163.583 C 63.905 163.171,64.199 162.833,64.153 162.833 C 64.107 162.833,63.738 163.171,63.333 163.583 M124.581 204.333 C 124.581 215.196,124.601 219.640,124.625 214.208 C 124.649 208.777,124.649 199.890,124.625 194.458 C 124.601 189.027,124.581 193.471,124.581 204.333 M114.917 208.925 C 113.358 209.040,111.990 209.141,111.875 209.150 C 111.727 209.162,111.660 209.591,111.645 210.625 C 111.620 212.308,111.400 214.884,111.360 213.967 C 111.287 212.294,110.702 210.667,110.174 210.667 C 109.215 210.667,108.665 213.110,109.300 214.547 L 109.641 215.319 109.029 216.074 C 108.441 216.800,108.407 216.817,108.167 216.509 C 107.926 216.199,107.880 216.217,106.887 217.016 L 105.858 217.845 107.613 219.585 L 109.368 221.326 110.768 220.470 L 112.168 219.614 113.042 220.093 C 113.523 220.356,114.479 220.739,115.167 220.943 C 116.376 221.303,116.394 221.316,115.700 221.324 C 114.538 221.339,113.000 222.737,113.000 223.780 C 113.000 224.208,116.359 224.827,116.984 224.514 C 117.313 224.348,118.183 224.015,118.917 223.772 C 122.004 222.753,122.206 221.578,119.328 221.372 C 118.418 221.307,117.595 221.000,118.330 221.000 C 119.097 221.000,119.861 217.418,120.160 212.417 C 120.412 208.210,120.831 208.489,114.917 208.925 M173.375 310.282 C 173.535 310.323,173.798 310.323,173.958 310.282 C 174.119 310.240,173.987 310.205,173.667 310.205 C 173.346 310.205,173.215 310.240,173.375 310.282 " stroke="none" fill="#f5a782" fill-rule="evenodd"></path><path id="path6" d="M206.875 121.792 C 219.502 121.815,240.165 121.815,252.792 121.792 C 265.419 121.768,255.088 121.749,229.833 121.749 C 204.579 121.749,194.248 121.768,206.875 121.792 M279.000 206.917 C 279.000 249.710,279.037 284.685,279.083 284.639 C 279.192 284.530,279.193 129.304,279.084 129.195 C 279.038 129.149,279.000 164.124,279.000 206.917 M124.500 182.500 L 124.500 184.667 125.833 184.667 L 127.167 184.667 127.167 182.500 L 127.167 180.333 125.833 180.333 L 124.500 180.333 124.500 182.500 M169.500 190.385 C 169.500 190.414,169.744 190.658,170.042 190.927 L 170.583 191.417 170.094 190.875 C 169.638 190.370,169.500 190.257,169.500 190.385 M114.375 208.948 C 114.535 208.990,114.798 208.990,114.958 208.948 C 115.119 208.906,114.987 208.872,114.667 208.872 C 114.346 208.872,114.215 208.906,114.375 208.948 M106.550 210.167 C 106.550 210.671,106.581 210.877,106.619 210.625 C 106.658 210.373,106.658 209.960,106.619 209.708 C 106.581 209.456,106.550 209.662,106.550 210.167 M111.539 211.833 C 111.539 212.154,111.573 212.285,111.615 212.125 C 111.657 211.965,111.657 211.702,111.615 211.542 C 111.573 211.381,111.539 211.512,111.539 211.833 M101.292 216.784 C 101.498 216.824,101.835 216.824,102.042 216.784 C 102.248 216.745,102.079 216.712,101.667 216.712 C 101.254 216.712,101.085 216.745,101.292 216.784 M90.073 222.875 L 89.583 223.417 90.125 222.927 C 90.423 222.658,90.667 222.414,90.667 222.385 C 90.667 222.257,90.529 222.370,90.073 222.875 M116.250 237.350 C 115.425 237.893,114.727 238.406,114.699 238.489 C 114.671 238.572,114.515 239.197,114.353 239.879 L 114.057 241.118 116.154 239.750 C 117.307 238.998,118.411 238.298,118.608 238.194 L 118.967 238.006 118.525 237.171 C 117.985 236.151,118.080 236.144,116.250 237.350 M66.740 270.000 C 66.740 272.704,66.763 273.810,66.791 272.458 C 66.819 271.106,66.819 268.894,66.791 267.542 C 66.763 266.190,66.740 267.296,66.740 270.000 M125.049 287.124 C 125.671 287.156,126.646 287.156,127.215 287.123 C 127.784 287.091,127.275 287.064,126.083 287.065 C 124.892 287.065,124.426 287.092,125.049 287.124 M65.333 300.219 C 65.333 300.248,65.577 300.491,65.875 300.760 L 66.417 301.250 65.927 300.708 C 65.471 300.203,65.333 300.090,65.333 300.219 M66.743 308.917 C 66.743 313.042,66.765 314.705,66.792 312.614 C 66.818 310.522,66.818 307.147,66.791 305.114 C 66.765 303.080,66.743 304.792,66.743 308.917 M297.995 303.292 L 296.917 304.417 298.042 303.338 C 299.087 302.336,299.243 302.167,299.120 302.167 C 299.095 302.167,298.588 302.673,297.995 303.292 M125.458 305.454 C 125.756 305.491,126.244 305.491,126.542 305.454 C 126.840 305.417,126.596 305.387,126.000 305.387 C 125.404 305.387,125.160 305.417,125.458 305.454 M198.222 310.292 C 210.490 310.315,230.515 310.315,242.722 310.292 C 254.929 310.268,244.892 310.249,220.417 310.249 C 195.942 310.249,185.954 310.268,198.222 310.292 " stroke="none" fill="#8e6088" fill-rule="evenodd"></path><path id="path7" d="M287.748 145.583 C 287.748 161.808,287.768 168.421,287.792 160.278 C 287.816 152.136,287.816 138.861,287.792 130.778 C 287.768 122.696,287.748 129.358,287.748 145.583 M223.409 171.617 C 221.739 172.472,220.423 173.459,219.017 174.910 L 217.783 176.183 218.350 176.796 C 218.662 177.134,218.954 177.449,219.000 177.497 C 219.046 177.544,219.746 178.313,220.556 179.206 L 222.028 180.828 222.653 180.039 C 223.860 178.514,225.764 177.217,227.859 176.491 C 228.587 176.239,229.122 176.007,229.049 175.975 C 228.866 175.895,225.121 171.836,224.815 171.387 L 224.568 171.023 223.409 171.617 M120.083 172.351 C 113.668 173.026,107.452 174.654,101.763 177.149 C 99.538 178.125,96.086 179.893,95.938 180.133 C 95.896 180.200,96.539 181.378,97.366 182.752 C 98.193 184.126,98.901 185.329,98.940 185.425 C 98.998 185.570,97.891 186.333,97.624 186.333 C 97.579 186.333,96.995 185.415,96.326 184.292 C 95.657 183.169,94.935 181.970,94.722 181.629 L 94.334 181.007 93.323 181.660 C 85.909 186.452,79.185 193.260,74.584 200.634 L 73.688 202.070 75.156 202.928 C 75.964 203.400,77.198 204.103,77.900 204.491 L 79.176 205.195 78.784 205.889 C 78.302 206.742,78.576 206.810,75.512 205.069 C 72.568 203.395,72.926 203.353,71.840 205.500 C 68.313 212.475,66.053 220.800,65.570 228.607 L 65.455 230.465 67.186 230.577 C 68.138 230.639,69.854 230.663,71.000 230.631 C 72.882 230.578,72.799 230.569,70.137 230.536 L 67.190 230.500 67.600 229.005 C 74.377 204.270,96.730 186.259,122.542 184.733 L 124.500 184.618 124.500 182.385 L 124.500 180.153 125.865 180.202 L 127.229 180.250 127.232 202.083 L 127.235 223.917 127.285 204.292 L 127.335 184.667 128.311 184.667 C 144.838 184.667,163.186 194.127,174.170 208.311 L 175.250 209.706 175.296 207.163 C 175.351 204.163,175.434 204.333,174.276 205.074 C 173.143 205.799,173.276 205.811,172.790 204.942 L 172.385 204.217 173.859 203.355 L 175.333 202.493 175.333 199.862 L 175.333 197.231 173.551 194.990 C 169.338 189.695,163.735 184.705,158.054 181.189 L 156.692 180.345 155.152 183.074 L 153.612 185.803 152.890 185.451 C 151.995 185.017,151.905 185.381,153.678 182.256 C 155.445 179.141,155.576 179.602,152.508 178.129 C 145.229 174.635,135.626 172.178,129.208 172.168 L 128.167 172.167 128.167 175.250 L 128.167 178.333 126.083 178.333 L 124.000 178.333 124.000 175.250 L 124.000 172.167 122.708 172.188 C 121.998 172.200,120.817 172.273,120.083 172.351 M240.372 195.073 C 240.073 195.209,239.428 195.641,238.939 196.035 C 238.449 196.428,237.832 196.910,237.566 197.105 L 237.083 197.460 238.170 198.605 C 238.768 199.235,239.695 200.255,240.231 200.873 L 241.204 201.997 241.698 201.707 C 242.580 201.188,244.039 199.780,244.272 199.222 C 245.309 196.742,242.735 194.004,240.372 195.073 M287.745 210.750 C 287.745 216.433,287.766 218.782,287.792 215.970 C 287.817 213.158,287.817 208.508,287.792 205.637 C 287.766 202.766,287.745 205.067,287.745 210.750 M336.039 220.167 C 336.039 220.487,336.073 220.619,336.115 220.458 C 336.157 220.298,336.157 220.035,336.115 219.875 C 336.073 219.715,336.039 219.846,336.039 220.167 M287.746 239.583 C 287.746 246.825,287.767 249.763,287.792 246.113 C 287.817 242.462,287.817 236.537,287.792 232.946 C 287.767 229.355,287.746 232.342,287.746 239.583 M342.211 228.120 C 342.464 228.158,342.839 228.157,343.044 228.117 C 343.249 228.078,343.042 228.046,342.583 228.048 C 342.125 228.049,341.957 228.081,342.211 228.120 M65.516 235.875 C 65.540 237.331,65.773 239.034,65.819 238.083 C 65.836 237.717,65.946 236.835,66.063 236.125 L 66.274 234.833 65.887 234.833 C 65.522 234.833,65.501 234.891,65.516 235.875 M134.517 235.103 C 134.508 235.297,134.227 236.001,133.894 236.667 C 131.245 241.962,124.186 243.087,119.866 238.903 L 118.933 238.000 118.291 238.425 C 117.555 238.912,117.558 238.978,118.388 240.583 C 121.364 246.343,129.826 246.740,133.351 241.286 C 134.461 239.568,135.065 236.932,134.696 235.417 C 134.607 235.050,134.526 234.909,134.517 235.103 M117.447 235.232 C 117.285 235.654,117.307 236.500,117.480 236.500 C 117.831 236.500,117.952 236.071,117.758 235.510 C 117.599 235.049,117.538 234.994,117.447 235.232 M346.292 235.618 C 346.498 235.657,346.835 235.657,347.042 235.618 C 347.248 235.578,347.079 235.545,346.667 235.545 C 346.254 235.545,346.085 235.578,346.292 235.618 M314.667 236.385 C 314.667 236.414,314.910 236.658,315.208 236.927 L 315.750 237.417 315.260 236.875 C 314.804 236.370,314.667 236.257,314.667 236.385 M287.746 268.750 C 287.746 275.625,287.766 278.462,287.792 275.054 C 287.817 271.646,287.817 266.021,287.792 262.554 C 287.766 259.087,287.746 261.875,287.746 268.750 M298.048 258.583 C 298.049 259.042,298.081 259.209,298.120 258.956 C 298.158 258.703,298.157 258.328,298.117 258.123 C 298.078 257.918,298.046 258.125,298.048 258.583 M265.885 318.958 C 267.243 318.986,269.418 318.986,270.719 318.958 C 272.019 318.930,270.908 318.907,268.250 318.907 C 265.592 318.907,264.528 318.930,265.885 318.958 M289.112 318.958 C 295.361 318.983,305.636 318.983,311.945 318.958 C 318.255 318.934,313.142 318.914,300.583 318.914 C 288.025 318.914,282.863 318.934,289.112 318.958 " stroke="none" fill="#cab3c2" fill-rule="evenodd"></path><path id="path8" d="M199.042 106.125 C 211.760 106.149,232.573 106.149,245.292 106.125 C 258.010 106.101,247.604 106.082,222.167 106.082 C 196.729 106.082,186.323 106.101,199.042 106.125 M125.870 180.288 L 127.157 180.347 127.211 182.548 L 127.266 184.750 127.258 182.500 L 127.250 180.250 125.917 180.240 L 124.583 180.230 125.870 180.288 M82.994 189.958 L 82.083 190.917 83.042 190.006 C 83.569 189.505,84.000 189.073,84.000 189.047 C 84.000 188.924,83.841 189.068,82.994 189.958 M168.500 189.385 C 168.500 189.414,168.744 189.658,169.042 189.927 L 169.583 190.417 169.094 189.875 C 168.638 189.370,168.500 189.257,168.500 189.385 M65.875 230.619 C 66.127 230.658,66.540 230.658,66.792 230.619 C 67.044 230.581,66.837 230.550,66.333 230.550 C 65.829 230.550,65.623 230.581,65.875 230.619 M111.379 274.500 C 111.379 274.912,111.411 275.081,111.451 274.875 C 111.491 274.669,111.491 274.331,111.451 274.125 C 111.411 273.919,111.379 274.087,111.379 274.500 M315.625 282.451 C 315.831 282.491,316.169 282.491,316.375 282.451 C 316.581 282.411,316.412 282.379,316.000 282.379 C 315.587 282.379,315.419 282.411,315.625 282.451 M110.545 298.333 C 110.545 298.746,110.578 298.915,110.618 298.708 C 110.657 298.502,110.657 298.165,110.618 297.958 C 110.578 297.752,110.545 297.921,110.545 298.333 " stroke="none" fill="#b8a2b1" fill-rule="evenodd"></path></g></svg>