<svg id="svg" version="1.1" xmlns="http://www.w3.org/2000/svg" xmlns:xlink="http://www.w3.org/1999/xlink" width="400" height="338.6160714285714" viewBox="0, 0, 400,338.6160714285714"><g id="svgg"><path id="path0" d="M236.786 28.747 C 223.932 36.201,213.066 42.638,212.640 43.051 L 211.865 43.804 210.564 43.024 C 208.174 41.590,208.290 41.613,207.917 42.504 C 207.508 43.483,207.412 138.711,207.819 139.879 C 208.086 140.644,211.690 142.857,212.669 142.857 C 212.996 142.857,215.859 141.342,219.420 139.286 C 222.820 137.321,225.668 135.714,225.748 135.714 C 225.828 135.714,225.893 137.704,225.893 140.136 C 225.893 143.336,225.970 144.655,226.172 144.910 C 226.510 145.339,229.900 147.321,230.294 147.321 C 230.779 147.321,231.524 145.891,235.964 136.429 L 240.290 127.212 243.750 125.230 C 245.653 124.140,248.064 122.739,249.107 122.116 L 251.004 120.983 251.116 143.025 C 251.177 155.148,251.307 165.189,251.403 165.338 C 251.818 165.978,256.003 168.118,256.519 167.954 C 256.801 167.865,259.763 166.211,263.103 164.279 C 266.442 162.347,269.230 160.822,269.297 160.889 C 269.364 160.957,269.420 162.910,269.420 165.230 C 269.420 170.169,269.349 169.975,271.638 171.295 C 274.417 172.898,273.693 173.783,279.298 161.932 L 283.832 152.344 285.945 151.094 C 287.107 150.406,291.222 148.010,295.089 145.769 C 304.553 140.286,304.290 140.467,305.055 138.908 L 305.692 137.612 305.757 89.509 C 305.828 36.623,305.925 40.287,304.455 40.293 C 303.465 40.297,257.210 66.980,256.138 68.166 L 255.469 68.906 253.683 67.844 L 251.897 66.783 251.597 67.346 C 251.432 67.656,251.231 68.563,251.151 69.361 L 251.004 70.812 235.603 79.710 C 220.640 88.354,219.425 88.979,218.795 88.348 C 218.166 87.719,218.776 85.698,219.900 84.683 C 220.188 84.423,227.706 80.017,236.607 74.891 C 245.508 69.765,254.900 64.351,257.478 62.860 L 262.165 60.149 262.218 38.278 C 262.260 21.038,262.212 16.288,261.990 15.848 C 261.303 14.486,261.970 14.144,236.786 28.747 M254.366 27.772 C 254.783 28.077,254.801 28.493,254.861 38.830 C 254.929 50.511,254.897 50.881,253.725 52.141 C 252.731 53.210,220.473 71.875,219.619 71.875 C 218.518 71.875,218.510 71.788,218.577 59.864 L 218.638 48.739 219.233 47.841 C 219.759 47.047,221.734 45.840,236.420 37.342 C 255.355 26.385,253.686 27.275,254.366 27.772 M343.809 43.687 C 344.148 43.738,344.650 43.737,344.925 43.684 C 345.199 43.631,344.922 43.589,344.308 43.591 C 343.694 43.592,343.470 43.636,343.809 43.687 M298.090 53.175 C 298.535 53.810,298.618 74.234,298.181 75.692 C 297.707 77.274,297.017 77.726,280.469 87.302 C 262.157 97.898,263.076 97.418,262.481 96.683 C 261.832 95.882,261.827 74.954,262.475 73.549 C 263.120 72.153,263.045 72.200,280.361 62.175 C 297.017 52.532,297.476 52.299,298.090 53.175 M254.696 57.499 C 255.013 58.334,254.596 59.653,253.733 60.548 C 252.988 61.321,220.612 80.139,219.742 80.305 C 217.940 80.649,218.366 77.263,220.284 75.999 C 223.579 73.828,253.326 56.920,253.850 56.920 C 254.318 56.920,254.531 57.066,254.696 57.499 M251.114 77.065 L 251.112 79.129 235.678 88.040 C 227.189 92.940,220.024 96.992,219.755 97.043 C 218.971 97.193,218.458 96.502,218.595 95.480 C 218.844 93.623,219.293 93.261,226.565 89.063 C 230.286 86.914,237.257 82.879,242.056 80.095 C 246.855 77.312,250.857 75.027,250.949 75.017 C 251.041 75.008,251.115 75.929,251.114 77.065 M298.130 82.488 C 298.622 83.238,298.253 84.549,297.251 85.618 C 296.315 86.615,263.854 105.357,263.062 105.357 C 261.737 105.357,261.771 103.289,263.120 101.813 C 264.069 100.775,296.381 81.961,297.260 81.934 C 297.558 81.926,297.907 82.148,298.130 82.488 M250.780 87.640 C 249.242 88.764,220.059 105.357,219.619 105.357 C 218.476 105.357,218.187 104.220,218.949 102.725 C 219.603 101.445,219.403 101.571,235.660 92.183 L 251.004 83.321 251.069 85.351 C 251.122 86.999,251.068 87.430,250.780 87.640 M298.238 90.922 C 298.563 91.636,298.174 92.997,297.383 93.912 C 296.761 94.632,264.416 113.463,263.335 113.734 C 262.529 113.937,261.959 113.172,262.130 112.118 C 262.449 110.148,262.279 110.263,280.022 99.998 C 297.342 89.978,297.721 89.789,298.238 90.922 M251.116 93.809 L 251.116 95.878 241.734 101.301 C 231.207 107.386,230.979 107.476,230.846 105.623 C 230.708 103.707,231.311 103.109,236.291 100.217 C 238.718 98.809,242.970 96.334,245.742 94.719 C 248.514 93.104,250.857 91.773,250.949 91.761 C 251.041 91.750,251.116 92.672,251.116 93.809 M334.473 92.467 L 333.817 93.192 334.542 92.536 C 335.219 91.925,335.370 91.741,335.198 91.741 C 335.160 91.741,334.833 92.068,334.473 92.467 M298.192 99.358 C 298.587 100.064,298.111 101.605,297.224 102.492 C 296.358 103.358,263.709 122.098,263.067 122.098 C 261.728 122.098,261.832 119.894,263.240 118.408 C 263.797 117.821,285.691 104.984,295.644 99.409 C 297.186 98.545,297.731 98.534,298.192 99.358 M250.735 104.415 C 249.480 105.333,232.137 115.179,231.775 115.179 C 231.099 115.179,230.804 114.728,230.804 113.700 C 230.804 111.820,231.272 111.465,241.629 105.491 L 251.004 100.084 251.069 102.103 C 251.125 103.833,251.077 104.164,250.735 104.415 M225.351 107.314 C 226.859 108.346,225.367 110.772,222.080 112.633 C 219.196 114.266,218.097 114.027,218.632 111.886 C 219.137 109.862,224.120 106.471,225.351 107.314 M298.238 107.663 C 298.563 108.377,298.174 109.736,297.383 110.655 C 296.756 111.385,264.448 130.196,263.350 130.471 C 262.528 130.678,261.957 129.923,262.130 128.859 C 262.448 126.896,262.287 127.005,280.022 116.744 C 297.331 106.730,297.723 106.534,298.238 107.663 M251.116 110.554 L 251.116 112.627 241.797 118.000 C 236.671 120.956,232.295 123.438,232.071 123.517 C 230.788 123.966,230.345 122.082,231.344 120.424 C 231.810 119.652,249.938 108.628,250.949 108.503 C 251.041 108.491,251.116 109.415,251.116 110.554 M225.470 115.871 C 226.906 117.308,222.431 122.098,219.653 122.098 C 217.010 122.098,218.603 118.734,222.210 116.698 C 224.826 115.221,224.820 115.222,225.470 115.871 M298.192 116.099 C 298.603 116.833,298.080 118.419,297.136 119.305 C 296.428 119.970,276.300 131.642,275.527 131.836 C 273.923 132.238,273.889 129.447,275.481 127.976 C 275.886 127.603,292.982 117.592,296.317 115.775 C 297.210 115.289,297.795 115.390,298.192 116.099 M225.351 124.055 C 226.859 125.087,225.367 127.513,222.080 129.374 C 219.196 131.007,218.097 130.769,218.632 128.627 C 219.133 126.617,224.128 123.218,225.351 124.055 M298.238 124.404 C 299.185 126.483,298.178 127.306,286.325 134.151 C 274.498 140.981,274.330 141.045,274.330 138.785 C 274.330 136.880,274.546 136.719,286.088 130.043 C 297.139 123.650,297.762 123.361,298.238 124.404 M269.072 132.639 C 270.026 134.000,268.890 135.792,265.995 137.496 C 263.469 138.983,262.635 139.158,262.236 138.282 C 261.561 136.800,262.809 135.086,265.808 133.378 C 268.218 132.005,268.572 131.925,269.072 132.639 M298.122 132.699 C 298.551 133.354,298.429 134.068,297.662 135.379 C 297.111 136.322,276.303 148.661,275.265 148.661 C 274.556 148.661,274.261 148.092,274.388 146.968 C 274.561 145.427,275.394 144.590,278.573 142.758 C 280.107 141.874,284.871 139.124,289.161 136.647 C 297.396 131.892,297.549 131.824,298.122 132.699 M269.237 141.182 C 269.919 142.680,268.685 144.350,265.611 146.091 C 263.142 147.488,262.406 147.579,262.139 146.517 C 261.735 144.907,262.811 143.467,265.625 141.848 C 268.005 140.478,268.845 140.324,269.237 141.182 M269.108 149.446 C 270.023 150.843,268.782 152.659,265.710 154.416 C 263.412 155.731,262.622 155.869,262.236 155.023 C 261.561 153.541,262.809 151.827,265.808 150.119 C 268.253 148.726,268.591 148.657,269.108 149.446 M348.772 163.216 C 349.522 163.478,350.800 164.375,351.400 165.061 C 352.748 166.601,352.969 168.114,353.254 177.739 C 353.432 183.759,353.264 183.391,355.301 182.222 L 356.250 181.678 356.249 180.180 C 356.244 169.855,353.109 162.803,348.597 162.964 C 348.185 162.979,348.214 163.021,348.772 163.216 M333.555 165.946 C 332.120 166.395,331.230 167.036,329.435 168.917 C 327.449 170.997,323.214 176.580,323.214 177.118 C 323.214 178.507,325.477 181.350,327.342 182.304 C 329.593 183.457,329.432 183.507,331.682 180.954 C 336.455 175.539,337.435 173.446,337.232 169.098 C 337.073 165.695,336.348 165.073,333.555 165.946 M5.332 198.981 C 2.319 199.642,0.720 202.187,1.893 204.455 C 2.284 205.211,4.318 206.582,7.701 208.368 C 11.906 210.588,17.411 214.321,17.411 214.951 C 17.411 215.899,12.387 216.884,10.019 216.401 C 5.731 215.526,2.119 216.971,1.338 219.872 C 0.812 221.825,1.517 222.765,4.615 224.243 C 7.722 225.724,7.949 226.231,7.510 230.692 C 7.155 234.294,9.069 235.452,14.844 235.128 C 17.910 234.956,18.646 235.405,20.187 238.390 C 22.167 242.224,24.516 243.925,27.936 244.002 C 29.627 244.040,29.590 244.146,28.662 241.949 C 27.371 238.892,26.546 235.343,26.409 232.254 C 26.274 229.205,26.082 228.767,24.061 226.876 L 22.952 225.838 20.460 225.948 C 17.285 226.087,14.968 226.801,12.644 228.355 C 10.822 229.574,10.714 229.617,10.714 229.131 C 10.714 227.703,16.965 225.223,20.563 225.223 L 22.177 225.223 21.077 224.437 C 17.255 221.706,11.166 219.587,6.194 219.259 C 3.841 219.104,3.312 218.526,5.525 218.528 C 11.826 218.532,19.686 221.799,24.489 226.411 L 26.339 228.187 26.339 222.477 C 26.339 216.877,26.328 216.736,25.753 215.136 C 22.059 204.853,12.618 197.383,5.332 198.981 M7.987 201.781 C 12.961 203.703,18.519 208.127,21.931 212.882 C 24.066 215.858,23.155 215.636,20.817 212.612 C 17.078 207.772,10.890 203.186,6.529 202.022 C 5.961 201.870,5.580 201.638,5.580 201.442 C 5.580 200.968,6.055 201.035,7.987 201.781 M188.058 211.738 C 169.336 213.596,157.137 221.723,158.584 231.374 L 158.745 232.451 159.120 231.345 C 165.670 211.997,218.218 211.665,225.574 230.925 C 226.412 233.120,226.705 229.348,225.898 226.753 C 223.018 217.495,204.419 210.115,188.058 211.738 M371.056 223.095 C 363.156 225.313,354.241 235.359,354.241 242.046 L 354.241 244.068 355.532 241.950 C 360.076 234.497,369.004 226.501,373.866 225.528 C 374.905 225.320,374.780 226.009,373.717 226.349 C 368.090 228.150,360.255 235.362,355.915 242.735 C 354.137 245.758,354.071 245.976,353.692 250.140 C 353.504 252.211,353.298 254.208,353.235 254.576 C 353.141 255.122,353.268 255.001,353.920 253.924 C 357.721 247.645,365.214 242.411,370.401 242.411 C 371.734 242.411,371.257 242.911,369.628 243.221 C 361.544 244.760,352.175 253.847,353.701 258.669 C 353.759 258.852,354.127 258.549,354.652 257.888 C 357.612 254.156,361.293 251.780,368.600 248.887 C 374.092 246.712,375.112 245.849,375.112 243.373 C 375.112 239.466,369.863 238.374,364.286 241.123 C 363.242 241.637,362.288 242.102,362.165 242.156 C 360.373 242.938,367.750 237.859,371.987 235.394 C 377.202 232.359,379.114 230.169,379.124 227.217 C 379.136 223.775,375.413 221.872,371.056 223.095 M154.946 234.933 C 154.911 242.550,155.647 245.829,158.015 248.606 L 158.444 249.109 160.572 247.880 C 163.584 246.141,164.713 246.336,166.222 248.854 C 167.630 251.202,167.432 252.689,165.570 253.764 L 164.450 254.411 165.432 254.987 C 186.694 267.447,223.006 261.281,229.195 244.160 C 229.773 242.559,229.788 242.389,229.833 236.607 C 229.866 232.354,229.820 231.029,229.669 231.891 C 228.724 237.313,223.991 242.478,216.629 246.123 C 193.098 257.776,156.863 248.630,155.136 230.601 C 155.026 229.454,154.964 230.853,154.946 234.933 M127.232 265.173 C 114.099 272.182,105.751 276.762,105.488 277.104 C 102.844 280.543,108.861 289.393,112.500 287.418 C 114.749 286.196,153.284 262.158,153.460 261.866 C 155.003 259.302,151.970 253.822,148.996 253.801 C 148.750 253.800,138.956 258.917,127.232 265.173 " stroke="none" fill="#31d7bb" fill-rule="evenodd"></path><path id="path1" d="M341.413 0.473 C 337.827 1.706,332.999 6.044,330.892 9.926 C 330.757 10.175,330.340 10.932,329.966 11.607 C 327.577 15.924,326.618 22.210,327.800 25.811 C 329.008 29.493,335.817 33.529,339.696 32.865 C 352.107 30.739,360.843 7.939,351.193 2.857 C 350.353 2.415,349.067 1.690,348.335 1.247 C 346.061 -0.130,343.877 -0.374,341.413 0.473 M344.601 9.544 C 344.662 10.169,344.756 10.268,345.288 10.268 C 346.040 10.268,346.818 11.043,347.005 11.979 C 347.244 13.172,345.769 14.104,344.946 13.281 C 344.312 12.648,343.003 13.371,342.291 14.748 C 341.557 16.167,342.068 16.702,343.780 16.307 C 346.329 15.719,347.125 16.163,347.272 18.256 C 347.384 19.845,346.755 21.646,345.558 23.160 C 345.058 23.792,344.661 24.580,344.575 25.107 C 344.323 26.661,342.634 27.476,342.634 26.043 C 342.634 25.347,342.593 25.307,341.971 25.398 C 340.357 25.635,339.264 23.121,340.543 22.114 C 341.282 21.533,341.464 21.536,341.947 22.132 C 342.670 23.025,344.852 21.748,345.293 20.175 C 345.628 18.979,345.371 18.847,343.347 19.176 C 340.745 19.598,340.179 19.147,340.179 16.655 C 340.179 15.094,340.662 13.756,341.743 12.328 C 342.378 11.490,342.634 10.933,342.634 10.391 C 342.634 8.911,344.464 8.123,344.601 9.544 M253.348 27.615 C 251.224 28.406,219.743 47.070,219.233 47.841 L 218.638 48.739 218.577 59.864 C 218.510 71.788,218.518 71.875,219.619 71.875 C 220.473 71.875,252.731 53.210,253.725 52.141 C 254.897 50.881,254.929 50.511,254.861 38.830 C 254.801 28.493,254.783 28.077,254.366 27.772 C 253.901 27.432,253.858 27.425,253.348 27.615 M341.629 44.053 C 331.430 47.412,323.643 64.497,328.996 71.775 C 329.647 72.660,331.708 74.014,335.001 75.718 C 343.035 79.878,355.370 67.157,355.354 54.729 C 355.348 49.770,354.379 48.288,349.330 45.516 L 346.317 43.862 344.420 43.810 C 343.308 43.780,342.152 43.881,341.629 44.053 M347.874 50.882 C 349.244 53.532,346.029 58.680,344.481 56.315 C 343.648 55.044,344.372 51.713,345.708 50.661 C 346.558 49.993,347.462 50.085,347.874 50.882 M280.361 62.175 C 263.045 72.200,263.120 72.153,262.475 73.549 C 261.827 74.954,261.832 95.882,262.481 96.683 C 263.076 97.418,262.157 97.898,280.469 87.302 C 297.017 77.726,297.707 77.274,298.181 75.692 C 298.618 74.234,298.535 53.810,298.090 53.175 C 297.476 52.299,297.017 52.532,280.361 62.175 M343.075 56.017 C 344.010 57.763,342.304 62.054,340.676 62.054 C 339.182 62.054,338.813 58.928,340.057 56.805 C 341.010 55.179,342.428 54.809,343.075 56.017 M348.729 57.133 C 349.289 57.797,349.315 57.929,349.683 61.850 L 349.821 63.321 347.551 64.606 C 346.303 65.313,345.244 65.854,345.198 65.808 C 345.152 65.762,345.017 64.945,344.899 63.993 C 344.671 62.152,344.268 61.284,343.533 61.051 C 341.975 60.557,345.646 56.525,347.692 56.483 C 347.961 56.478,348.420 56.765,348.729 57.133 M237.159 66.193 C 228.323 71.293,220.729 75.706,220.284 75.999 C 218.366 77.263,217.940 80.649,219.742 80.305 C 220.612 80.139,252.988 61.321,253.733 60.548 C 255.110 59.121,255.181 56.920,253.850 56.920 C 253.433 56.920,247.872 60.010,237.159 66.193 M343.834 62.023 C 344.381 62.627,344.577 63.498,344.755 66.116 L 344.914 68.447 341.307 70.522 C 339.323 71.663,337.640 72.535,337.565 72.461 C 337.330 72.226,337.905 66.674,338.274 65.612 C 339.189 62.985,342.671 60.738,343.834 62.023 M236.454 74.963 C 227.591 80.088,220.123 84.478,219.856 84.718 C 218.772 85.699,218.177 87.731,218.795 88.348 C 219.425 88.979,220.640 88.354,235.603 79.710 L 251.004 70.812 251.151 69.365 C 251.294 67.944,251.726 66.790,252.405 66.016 C 252.594 65.801,252.707 65.630,252.657 65.635 C 252.608 65.641,245.316 69.838,236.454 74.963 M156.704 69.107 C 151.297 70.561,147.098 76.230,147.098 82.080 C 147.098 86.369,148.486 87.723,152.879 87.723 C 155.638 87.723,156.250 88.182,156.250 90.250 C 156.250 93.550,152.553 96.541,148.991 96.122 L 147.805 95.983 147.117 98.048 C 146.105 101.083,146.213 101.344,148.479 101.335 C 154.663 101.310,160.545 94.741,160.567 87.835 C 160.581 83.522,159.625 82.541,155.134 82.254 C 151.636 82.031,151.165 81.663,151.405 79.340 C 151.720 76.284,154.408 73.976,157.456 74.146 L 158.774 74.219 159.524 71.987 C 160.383 69.430,160.370 69.308,159.220 68.988 C 158.189 68.702,158.217 68.701,156.704 69.107 M242.056 80.095 C 237.257 82.879,230.286 86.914,226.565 89.063 C 219.293 93.261,218.844 93.623,218.595 95.480 C 218.458 96.502,218.971 97.193,219.755 97.043 C 220.024 96.992,227.189 92.940,235.678 88.040 L 251.112 79.129 251.114 77.065 C 251.115 75.929,251.041 75.008,250.949 75.017 C 250.857 75.027,246.855 77.312,242.056 80.095 M139.459 79.323 C 134.402 81.991,131.142 84.053,130.748 84.831 C 130.217 85.882,130.140 111.002,130.666 111.721 C 131.154 112.389,139.602 107.515,141.871 105.256 C 146.194 100.955,147.357 90.625,143.519 90.625 C 143.141 90.625,143.165 90.519,143.757 89.565 C 144.756 87.955,145.395 85.122,145.254 82.931 C 144.963 78.406,143.235 77.330,139.459 79.323 M280.357 91.427 C 263.113 101.388,262.458 101.823,262.143 103.499 C 261.944 104.563,262.336 105.357,263.062 105.357 C 263.854 105.357,296.315 86.615,297.251 85.618 C 298.672 84.103,298.678 81.892,297.260 81.934 C 296.987 81.943,289.381 86.214,280.357 91.427 M235.660 92.183 C 219.403 101.571,219.603 101.445,218.949 102.725 C 218.187 104.220,218.476 105.357,219.619 105.357 C 220.059 105.357,249.242 88.764,250.780 87.640 C 251.068 87.430,251.122 86.999,251.069 85.351 L 251.004 83.321 235.660 92.183 M140.484 84.489 C 142.283 86.288,140.668 89.923,137.180 91.925 L 134.821 93.278 134.821 90.064 L 134.821 86.850 137.221 85.501 C 139.828 84.035,139.982 83.987,140.484 84.489 M342.522 87.493 C 331.749 89.821,322.798 109.664,329.612 116.113 C 330.384 116.844,335.047 119.580,336.245 120.005 C 343.647 122.633,354.781 110.546,355.296 99.322 C 355.531 94.203,354.436 91.952,350.730 89.937 C 345.861 87.288,344.855 86.989,342.522 87.493 M120.467 89.746 C 113.628 92.522,109.594 100.248,109.600 110.563 C 109.605 119.566,112.492 122.936,117.901 120.253 C 124.341 117.059,128.121 109.527,128.124 99.883 C 128.127 91.426,125.358 87.760,120.467 89.746 M280.022 99.998 C 262.279 110.263,262.449 110.148,262.130 112.118 C 261.959 113.172,262.529 113.937,263.335 113.734 C 264.416 113.463,296.761 94.632,297.383 93.912 C 298.174 92.997,298.563 91.636,298.238 90.922 C 297.721 89.789,297.342 89.978,280.022 99.998 M245.742 94.719 C 242.970 96.334,238.718 98.809,236.291 100.217 C 231.311 103.109,230.708 103.707,230.846 105.623 C 230.979 107.476,231.207 107.386,241.734 101.301 L 251.116 95.878 251.116 93.809 C 251.116 92.672,251.041 91.750,250.949 91.761 C 250.857 91.773,248.514 93.104,245.742 94.719 M121.502 94.947 C 125.399 96.575,124.221 111.031,119.934 114.200 C 115.627 117.384,113.569 114.821,113.908 106.696 C 114.176 100.273,116.411 95.957,120.037 94.865 C 120.373 94.764,120.676 94.673,120.710 94.662 C 120.745 94.651,121.101 94.780,121.502 94.947 M140.963 95.539 C 141.898 96.572,141.497 100.088,140.280 101.534 C 139.837 102.061,135.305 104.911,134.911 104.911 C 134.862 104.911,134.822 103.329,134.822 101.395 L 134.822 97.879 135.981 97.210 C 139.959 94.913,140.294 94.800,140.963 95.539 M346.251 96.867 L 346.317 98.198 347.858 97.303 C 348.706 96.810,349.535 96.459,349.700 96.523 C 350.120 96.684,350.140 107.104,349.721 107.632 C 349.301 108.162,337.732 114.764,337.488 114.613 C 337.365 114.537,337.277 112.230,337.277 109.054 C 337.277 102.913,337.082 103.550,339.372 102.221 L 340.737 101.429 340.848 99.951 C 340.980 98.200,340.794 98.420,343.488 96.841 C 346.216 95.241,346.169 95.241,346.251 96.867 M343.361 98.834 C 341.904 99.669,341.521 99.994,341.520 100.398 C 341.518 100.982,341.451 101.006,344.029 99.513 C 345.078 98.906,345.536 98.508,345.536 98.204 C 345.536 97.610,345.460 97.632,343.361 98.834 M105.279 98.977 C 103.038 100.262,103.253 99.050,103.114 111.224 C 103.005 120.722,102.945 122.104,102.603 122.988 C 101.807 125.043,99.928 126.271,97.989 126.004 L 96.908 125.855 96.222 127.997 C 95.246 131.045,95.287 131.128,97.748 131.082 C 101.450 131.013,105.390 127.165,106.832 122.210 C 107.227 120.855,107.608 100.102,107.264 98.731 C 107.094 98.052,106.836 98.084,105.279 98.977 M295.644 99.409 C 285.691 104.984,263.797 117.821,263.240 118.408 C 261.832 119.894,261.728 122.098,263.067 122.098 C 263.709 122.098,296.358 103.358,297.224 102.492 C 298.111 101.605,298.587 100.064,298.192 99.358 C 297.731 98.534,297.186 98.545,295.644 99.409 M241.629 105.491 C 231.272 111.465,230.804 111.820,230.804 113.700 C 230.804 114.728,231.099 115.179,231.775 115.179 C 232.137 115.179,249.480 105.333,250.735 104.415 C 251.077 104.164,251.125 103.833,251.069 102.103 L 251.004 100.084 241.629 105.491 M343.471 103.695 C 342.032 104.533,341.741 104.798,341.741 105.270 L 341.741 105.836 343.025 105.113 C 345.016 103.991,345.536 103.576,345.536 103.110 C 345.536 102.520,345.441 102.546,343.471 103.695 M221.954 108.476 C 219.198 110.093,218.213 111.444,218.618 113.055 C 219.092 114.947,224.985 111.695,225.666 109.166 C 226.300 106.810,225.156 106.597,221.954 108.476 M280.022 116.744 C 262.287 127.005,262.448 126.896,262.130 128.859 C 261.957 129.923,262.528 130.678,263.350 130.471 C 264.448 130.196,296.756 111.385,297.383 110.655 C 298.174 109.736,298.563 108.377,298.238 107.663 C 297.723 106.534,297.331 106.730,280.022 116.744 M241.332 114.027 C 230.929 120.086,230.807 120.182,230.805 122.258 C 230.802 124.410,230.436 124.551,241.797 118.000 L 251.116 112.627 251.116 110.554 C 251.116 109.415,251.041 108.491,250.949 108.503 C 250.857 108.514,246.529 111.000,241.332 114.027 M85.934 109.569 C 83.576 110.836,67.904 119.966,67.554 120.278 C 66.272 121.421,66.295 121.152,66.295 135.385 C 66.295 148.929,66.321 149.330,67.220 149.330 C 67.677 149.330,84.892 139.537,86.352 138.446 C 87.972 137.237,87.936 137.590,87.942 122.970 C 87.947 107.885,88.031 108.444,85.934 109.569 M224.330 115.563 C 222.133 116.391,219.503 118.331,218.949 119.531 C 217.639 122.369,219.042 122.825,222.552 120.703 C 225.482 118.932,226.630 117.031,225.470 115.871 C 224.980 115.382,224.882 115.355,224.330 115.563 M296.317 115.775 C 292.982 117.592,275.886 127.603,275.481 127.976 C 273.889 129.447,273.923 132.238,275.527 131.836 C 276.300 131.642,296.428 119.970,297.136 119.305 C 299.122 117.442,298.464 114.606,296.317 115.775 M191.406 126.087 L 175.335 135.409 175.276 142.265 L 175.217 149.121 175.972 148.724 C 176.387 148.505,183.670 144.308,192.156 139.397 L 207.585 130.469 207.587 123.605 C 207.588 119.830,207.564 116.747,207.533 116.753 C 207.503 116.760,200.246 120.960,191.406 126.087 M246.260 123.794 C 245.502 124.221,244.838 124.642,244.784 124.730 C 244.730 124.817,246.107 125.710,247.845 126.714 L 251.004 128.539 251.072 126.825 C 251.147 124.897,251.277 125.081,248.893 123.730 L 247.638 123.018 246.260 123.794 M221.948 125.228 C 219.189 126.853,218.214 128.189,218.618 129.796 C 219.092 131.688,224.985 128.437,225.666 125.907 C 226.301 123.548,225.158 123.339,221.948 125.228 M286.088 130.043 C 274.546 136.719,274.330 136.880,274.330 138.785 C 274.330 141.045,274.498 140.981,286.325 134.151 C 298.178 127.306,299.185 126.483,298.238 124.404 C 297.762 123.361,297.139 123.650,286.088 130.043 M265.808 133.378 C 262.809 135.086,261.561 136.800,262.236 138.282 C 263.089 140.153,269.420 135.928,269.420 133.488 C 269.420 131.902,268.451 131.873,265.808 133.378 M289.161 136.647 C 284.871 139.124,280.107 141.874,278.573 142.758 C 275.394 144.590,274.561 145.427,274.388 146.968 C 274.094 149.569,274.184 149.535,286.419 142.467 C 297.865 135.854,297.843 135.869,298.335 133.871 C 298.517 133.134,297.957 132.143,297.359 132.143 C 297.140 132.143,293.451 134.170,289.161 136.647 M338.839 139.631 C 338.287 139.800,337.122 140.190,336.250 140.498 C 335.326 140.826,333.982 141.099,333.023 141.155 C 329.451 141.362,330.144 145.053,334.137 147.091 C 334.971 147.516,335.012 147.591,335.268 149.157 C 335.415 150.050,335.685 151.018,335.869 151.308 L 336.203 151.834 336.618 151.153 C 338.049 148.799,341.025 149.919,340.518 152.621 C 340.322 153.668,338.905 155.134,338.090 155.134 C 336.751 155.134,338.417 159.903,339.850 160.172 C 340.956 160.380,343.811 159.913,344.930 159.342 C 349.456 157.033,352.558 147.633,349.854 144.419 C 349.284 143.742,349.483 143.121,350.279 143.087 C 350.371 143.084,350.446 142.927,350.446 142.740 C 350.446 142.236,349.452 141.929,348.721 142.207 C 348.255 142.384,348.091 142.370,348.021 142.146 C 347.342 139.961,342.295 138.579,338.839 139.631 M265.625 141.848 C 262.811 143.467,261.735 144.907,262.139 146.517 C 262.614 148.410,268.453 145.202,269.226 142.623 C 269.907 140.350,268.686 140.087,265.625 141.848 M289.356 149.084 L 287.975 149.920 304.934 159.725 C 322.514 169.891,322.717 170.024,321.848 170.875 C 321.679 171.041,319.200 172.529,316.340 174.182 L 311.141 177.188 315.482 179.442 C 317.869 180.682,319.879 181.696,319.949 181.696 C 320.296 181.696,323.214 177.737,323.214 177.265 C 323.214 176.818,324.874 174.456,328.168 170.216 C 328.545 169.730,328.522 169.716,310.019 159.028 C 299.829 153.142,291.322 148.308,291.114 148.287 C 290.907 148.266,290.115 148.624,289.356 149.084 M265.808 150.119 C 262.809 151.827,261.561 153.541,262.236 155.023 C 262.970 156.634,268.522 153.414,269.203 150.982 C 269.846 148.685,268.794 148.418,265.808 150.119 M175.147 160.090 C 174.889 163.403,174.969 168.894,175.279 169.144 C 175.789 169.556,266.599 221.932,267.339 222.241 C 268.208 222.604,270.258 222.639,271.134 222.306 C 273.046 221.579,329.201 188.794,329.325 188.332 C 329.398 188.059,329.460 186.755,329.461 185.435 C 329.465 182.135,329.351 182.156,325.454 186.161 C 321.205 190.527,321.263 190.540,309.348 182.571 C 306.363 180.575,305.909 180.339,305.454 180.547 C 305.170 180.676,295.013 186.534,282.882 193.564 C 261.754 205.809,260.779 206.347,259.710 206.348 C 258.634 206.349,257.096 205.482,217.212 182.396 C 194.452 169.223,175.709 158.397,175.560 158.341 C 175.370 158.267,175.249 158.780,175.147 160.090 M352.156 197.730 C 348.586 201.393,338.303 202.434,330.714 199.901 L 329.174 199.386 329.309 206.892 C 329.434 213.881,329.825 222.388,330.362 229.799 C 330.486 231.518,330.942 235.485,331.375 238.616 C 332.655 247.873,334.818 263.020,334.934 263.538 C 335.139 264.451,337.820 264.848,339.381 264.195 C 340.266 263.825,340.196 264.192,340.840 256.585 C 341.918 243.841,341.898 240.864,340.697 235.785 C 340.044 233.019,340.044 233.042,340.631 224.107 C 341.296 213.982,341.807 208.482,342.083 208.482 C 342.242 208.482,342.420 210.398,342.605 214.118 C 343.123 224.501,344.812 236.635,347.412 248.655 C 348.051 251.607,348.072 251.501,346.952 250.940 C 342.840 248.879,341.960 252.351,345.574 256.381 C 346.444 257.353,347.653 258.800,348.260 259.598 C 350.333 262.325,353.510 262.491,353.600 259.877 C 353.697 257.066,353.509 256.313,352.870 256.952 C 351.838 257.983,348.896 257.341,348.887 256.083 C 348.883 255.516,349.034 255.478,349.930 255.820 C 350.667 256.101,352.166 255.916,352.761 255.470 C 353.099 255.217,353.235 254.610,353.474 252.299 C 354.661 240.768,354.505 234.048,352.906 227.954 L 352.257 225.479 352.579 220.943 C 352.996 215.070,353.379 200.584,353.173 198.481 L 353.013 196.850 352.156 197.730 M160.603 247.872 C 159.498 248.531,156.710 250.142,154.408 251.452 C 150.681 253.574,149.731 254.241,150.439 254.241 C 151.374 254.241,153.310 257.016,153.704 258.922 C 154.018 260.440,153.556 260.570,159.111 257.401 C 161.650 255.952,164.392 254.400,165.205 253.951 C 167.457 252.708,167.726 251.362,166.222 248.854 C 164.716 246.341,163.519 246.132,160.603 247.872 M334.363 266.198 C 333.793 266.885,331.072 268.308,328.005 269.524 C 323.015 271.502,321.819 272.525,323.009 273.792 C 324.817 275.716,329.511 275.744,333.543 273.854 C 334.959 273.191,335.979 272.879,337.226 272.727 C 341.457 272.214,341.801 271.664,340.685 267.199 C 340.376 265.964,340.295 265.827,340.111 266.238 C 339.496 267.618,335.045 267.787,335.045 266.431 C 335.045 265.931,334.686 265.808,334.363 266.198 " stroke="none" fill="#3a4e56" fill-rule="evenodd"></path><path id="path2" d="M343.471 9.177 C 343.003 9.526,342.857 9.824,342.857 10.424 C 342.857 10.991,342.659 11.439,342.154 12.014 C 339.440 15.105,339.646 19.430,342.491 19.091 C 345.210 18.767,345.416 18.792,345.493 19.461 C 345.698 21.234,342.763 23.553,341.890 22.307 C 341.575 21.857,341.479 21.837,340.868 22.090 C 339.192 22.784,340.194 25.401,342.052 25.184 C 342.818 25.094,342.838 25.112,342.902 25.939 L 342.969 26.785 343.694 26.342 C 344.292 25.977,344.420 25.761,344.420 25.112 C 344.420 24.513,344.654 24.036,345.399 23.122 C 348.312 19.545,347.623 15.602,344.218 16.371 C 342.247 16.816,341.964 16.721,341.964 15.609 C 341.964 13.938,344.159 12.240,345.102 13.182 C 345.513 13.593,345.589 13.600,346.209 13.279 C 347.653 12.533,346.403 9.892,344.840 10.388 C 344.475 10.503,344.420 10.401,344.420 9.613 C 344.420 8.582,344.327 8.539,343.471 9.177 M144.531 33.692 C 144.286 33.791,124.347 45.270,100.223 59.200 C 76.099 73.130,50.033 88.174,42.299 92.631 C 34.565 97.088,27.951 100.997,27.603 101.316 C 26.117 102.679,26.234 99.932,26.168 135.044 L 26.109 166.851 24.254 168.749 C 16.728 176.451,9.971 186.402,6.067 195.536 C 4.489 199.229,4.509 199.127,5.400 198.872 C 11.886 197.012,21.339 204.210,25.486 214.166 L 26.326 216.183 26.332 222.234 L 26.339 228.286 24.701 226.674 C 21.258 223.286,16.335 220.666,11.043 219.407 C 8.635 218.833,4.981 218.463,4.501 218.743 C 4.046 219.009,3.988 218.994,6.027 219.118 C 10.908 219.412,16.863 221.448,20.871 224.191 L 22.210 225.108 20.313 225.277 C 16.180 225.646,10.714 227.871,10.714 229.183 C 10.714 229.591,10.826 229.547,11.946 228.692 C 14.345 226.860,17.481 225.841,20.826 225.806 L 23.014 225.783 24.677 227.484 C 26.327 229.172,26.339 229.193,26.340 230.385 C 26.342 233.765,27.275 238.160,28.766 241.809 C 29.800 244.342,29.804 244.334,27.516 244.121 C 24.421 243.832,22.040 242.163,20.528 239.223 C 18.540 235.360,18.219 235.160,14.098 235.234 C 10.582 235.297,9.156 234.983,8.141 233.920 L 7.478 233.226 7.478 229.913 C 7.478 225.824,7.444 225.760,4.487 224.322 C 1.692 222.964,1.032 222.225,1.166 220.608 C 1.438 217.327,5.100 215.355,9.420 216.164 C 12.091 216.665,12.928 216.613,15.339 215.797 L 17.469 215.077 16.380 214.106 C 14.732 212.639,10.760 210.077,7.143 208.149 C 5.363 207.201,3.591 206.188,3.205 205.898 L 2.505 205.372 2.393 205.867 C 2.332 206.139,2.021 207.535,1.702 208.969 C -9.641 259.913,38.768 308.741,120.849 329.147 C 181.882 344.321,253.411 340.836,309.040 319.978 C 409.702 282.237,430.354 202.811,353.317 149.698 C 350.730 147.914,350.983 147.927,350.798 149.562 C 350.314 153.837,347.671 158.276,344.873 159.510 L 343.930 159.927 344.075 161.021 C 344.155 161.624,344.277 162.402,344.347 162.751 C 344.433 163.182,344.376 163.415,344.168 163.477 C 342.967 163.836,337.672 164.979,337.591 164.898 C 337.535 164.842,337.329 163.903,337.133 162.811 L 336.776 160.826 334.886 160.826 C 332.205 160.826,331.660 160.117,331.332 156.205 C 331.192 154.542,331.167 154.481,330.552 154.346 C 329.618 154.141,329.610 153.978,330.452 152.390 C 330.992 151.372,331.291 150.426,331.461 149.189 C 331.594 148.223,331.812 147.100,331.945 146.694 C 332.138 146.103,332.120 145.878,331.856 145.578 C 329.656 143.072,330.222 141.224,333.259 141.000 C 334.180 140.932,335.476 140.687,336.140 140.457 L 337.346 140.039 336.363 139.465 C 333.121 137.575,323.342 132.952,317.076 130.347 C 313.432 128.832,306.339 126.116,306.025 126.116 C 305.918 126.116,305.799 128.803,305.761 132.087 C 305.666 140.309,306.266 139.423,297.255 144.632 C 292.405 147.436,291.362 148.122,291.682 148.296 C 291.899 148.415,300.156 153.176,310.032 158.877 C 319.908 164.579,328.120 169.294,328.281 169.356 C 328.442 169.418,329.245 168.841,330.065 168.073 C 331.756 166.491,333.249 165.727,335.070 165.508 L 336.323 165.358 336.805 166.355 C 338.767 170.407,337.081 175.174,331.521 181.294 L 329.757 183.234 329.610 185.974 C 329.517 187.698,329.360 188.809,329.185 188.973 C 329.031 189.116,315.927 196.737,300.063 205.909 C 268.265 224.294,270.133 223.333,267.739 222.542 C 266.987 222.294,175.600 169.662,175.164 169.226 C 175.069 169.132,175.019 166.537,175.052 163.459 L 175.112 157.863 193.638 168.578 C 203.828 174.471,222.662 185.365,235.491 192.786 C 257.995 205.803,258.853 206.275,259.826 206.208 C 260.736 206.145,305.579 180.588,305.576 180.134 C 305.572 179.702,300.925 177.734,300.112 177.820 C 297.806 178.065,296.235 175.846,298.240 175.177 C 298.403 175.123,298.361 174.804,298.113 174.211 C 296.198 169.639,299.438 165.705,302.008 169.481 C 302.574 170.313,303.242 171.199,303.493 171.449 L 303.949 171.906 304.975 171.286 C 305.557 170.935,306.057 170.445,306.129 170.157 C 306.323 169.384,307.341 168.778,307.676 169.236 C 307.903 169.547,308.057 169.514,309.044 168.947 C 310.427 168.152,311.137 168.142,312.526 168.897 C 314.273 169.848,314.107 170.141,310.713 172.092 C 307.690 173.831,307.669 173.853,308.043 174.924 C 308.264 175.558,310.364 177.024,311.013 176.999 C 312.002 176.959,321.763 170.827,321.763 170.245 C 321.763 169.661,320.829 169.086,304.833 159.835 L 287.902 150.043 285.923 151.194 C 284.047 152.284,283.912 152.414,283.341 153.683 C 283.010 154.420,282.114 156.328,281.350 157.924 C 277.282 166.428,275.446 170.339,275.446 170.506 C 275.446 170.859,274.103 172.545,273.822 172.545 C 273.494 172.545,270.138 170.636,269.643 170.167 C 269.375 169.914,269.286 168.963,269.196 165.420 L 269.085 160.988 262.946 164.534 C 259.215 166.689,256.574 168.079,256.212 168.080 C 255.690 168.080,252.058 166.186,251.451 165.596 C 251.307 165.457,251.188 158.826,251.116 147.046 L 251.004 128.713 248.661 127.346 C 247.372 126.594,245.900 125.746,245.390 125.461 L 244.463 124.942 242.485 126.074 L 240.507 127.205 238.075 132.297 C 236.738 135.097,235.219 138.292,234.699 139.397 C 230.377 148.589,230.921 148.022,228.043 146.328 C 225.542 144.857,225.670 145.207,225.670 139.816 C 225.670 137.683,225.635 135.938,225.592 135.938 C 225.549 135.938,223.063 137.354,220.067 139.085 C 211.881 143.817,212.969 143.504,210.183 141.932 C 207.394 140.359,207.589 140.854,207.589 135.358 L 207.589 130.624 191.574 139.891 C 182.765 144.988,175.432 149.208,175.279 149.268 C 174.749 149.477,174.889 135.593,175.421 135.225 C 175.652 135.064,182.980 130.815,191.706 125.781 L 207.571 116.629 207.580 112.635 L 207.589 108.641 196.261 108.775 C 186.144 108.895,179.915 109.116,176.395 109.481 L 175.223 109.602 175.222 80.638 C 175.221 49.467,175.262 50.523,173.996 49.142 C 173.258 48.336,173.227 48.326,171.502 48.326 L 169.754 48.326 166.741 50.128 C 165.084 51.119,138.788 66.326,108.305 83.921 C 53.914 115.317,52.872 115.931,52.279 116.940 L 51.674 117.969 51.563 183.710 L 51.451 249.451 50.712 250.952 C 46.480 259.549,33.627 250.704,30.191 236.830 C 30.008 236.093,29.848 107.822,30.028 106.301 C 30.314 103.882,25.823 106.631,90.179 69.488 C 153.974 32.670,149.309 35.417,148.970 34.871 C 148.245 33.705,145.980 33.104,144.531 33.692 M151.786 37.882 C 151.602 37.949,150.396 38.632,149.107 39.398 C 147.818 40.164,121.702 55.280,91.071 72.990 C 60.441 90.700,35.106 105.445,34.772 105.756 C 33.381 107.051,33.472 102.055,33.536 173.334 L 33.594 238.281 34.190 239.955 C 37.203 248.417,45.045 252.585,47.629 247.098 L 48.103 246.094 48.214 180.768 L 48.326 115.443 48.996 114.626 C 49.518 113.989,62.519 106.388,107.986 80.140 C 140.062 61.623,166.568 46.301,166.887 46.092 L 167.467 45.711 166.654 44.898 C 165.173 43.417,163.372 43.637,159.821 45.730 C 158.287 46.634,132.070 61.788,101.563 79.406 C 71.055 97.023,45.908 111.601,45.680 111.801 C 44.443 112.888,44.541 107.667,44.420 178.647 L 44.308 243.789 43.682 244.327 C 41.938 245.827,38.824 243.627,37.645 240.062 C 37.303 239.026,37.279 234.022,37.331 174.197 L 37.388 109.454 37.982 108.557 C 38.517 107.748,44.292 104.361,97.468 73.666 C 129.860 54.969,156.395 39.644,156.435 39.609 C 156.632 39.444,155.920 38.544,155.287 38.159 C 154.594 37.736,152.609 37.579,151.786 37.882 M345.894 50.691 C 344.535 51.760,343.724 54.938,344.506 56.131 C 345.049 56.960,346.000 56.893,346.777 55.971 C 348.914 53.437,348.157 48.911,345.894 50.691 M341.009 55.804 C 339.102 57.305,338.773 61.830,340.572 61.830 C 341.871 61.830,343.141 59.799,343.172 57.670 C 343.202 55.591,342.286 54.800,341.009 55.804 M345.829 57.381 C 343.981 58.459,342.703 60.717,343.752 61.050 C 344.412 61.259,344.910 62.401,345.038 64.003 C 345.185 65.835,345.173 65.833,347.534 64.491 C 349.845 63.177,349.731 63.478,349.338 59.744 C 349.002 56.549,348.192 56.004,345.829 57.381 M341.787 62.058 C 339.211 63.211,338.243 65.010,337.827 69.416 C 337.671 71.075,337.560 72.452,337.582 72.475 C 337.604 72.499,339.227 71.588,341.188 70.452 L 344.754 68.386 344.680 67.061 C 344.404 62.156,343.821 61.147,341.787 62.058 M159.836 68.981 C 160.434 69.301,160.386 70.093,159.633 72.332 L 158.999 74.219 157.457 74.226 C 154.129 74.243,151.568 76.681,151.564 79.837 C 151.561 81.727,151.838 81.896,155.352 82.142 C 159.789 82.454,160.685 83.389,160.704 87.732 C 160.734 94.154,156.718 99.394,150.358 101.233 C 146.777 102.268,145.846 101.470,146.899 98.270 L 147.689 95.871 149.123 95.945 C 152.725 96.132,156.009 93.546,156.074 90.473 C 156.120 88.287,155.788 88.052,152.388 87.858 C 147.563 87.583,146.045 85.147,147.187 79.512 C 148.486 73.099,155.938 66.895,159.836 68.981 M144.234 78.987 C 145.937 80.893,145.810 86.041,143.976 89.453 L 143.347 90.625 143.844 90.625 C 147.630 90.625,146.230 101.167,141.873 105.469 C 139.852 107.464,131.253 112.520,130.684 112.047 C 130.403 111.814,130.357 109.870,130.357 98.311 L 130.357 84.846 130.859 84.287 C 131.389 83.696,139.454 78.966,140.827 78.440 C 142.105 77.951,143.509 78.176,144.234 78.987 M137.109 85.722 L 134.821 87.064 134.821 90.080 L 134.821 93.096 135.324 92.828 C 139.611 90.536,140.564 89.530,140.788 87.061 C 141.061 84.054,140.377 83.805,137.109 85.722 M125.303 89.804 C 129.430 92.952,129.251 106.237,124.981 113.745 C 121.809 119.323,115.258 122.798,112.246 120.501 C 107.944 117.219,108.595 102.398,113.345 95.493 C 116.797 90.476,122.578 87.726,125.303 89.804 M119.308 95.384 C 115.760 97.076,114.187 100.888,114.179 107.813 C 114.171 114.508,115.332 116.448,118.444 114.941 C 121.844 113.295,123.490 109.325,123.527 102.679 C 123.564 96.009,122.361 93.929,119.308 95.384 M137.221 96.677 L 134.821 98.034 134.821 101.361 C 134.821 103.191,134.897 104.687,134.989 104.686 C 135.545 104.680,139.900 101.795,140.337 101.142 C 141.749 99.037,141.603 95.305,140.110 95.316 C 139.841 95.318,138.541 95.931,137.221 96.677 M343.370 97.100 L 341.092 98.436 341.026 99.938 L 340.960 101.441 339.583 102.240 C 337.303 103.564,337.500 102.920,337.500 109.068 C 337.500 112.060,337.567 114.509,337.649 114.509 C 337.900 114.509,349.101 108.010,349.449 107.662 C 349.896 107.215,349.942 96.651,349.498 96.652 C 349.344 96.653,348.566 97.047,347.768 97.528 L 346.317 98.403 346.251 97.081 C 346.168 95.441,346.197 95.441,343.370 97.100 M345.718 98.144 C 345.666 98.586,345.382 98.898,344.643 99.326 C 344.090 99.645,343.154 100.187,342.563 100.530 L 341.487 101.153 341.558 100.435 C 341.622 99.790,341.825 99.604,343.527 98.631 C 345.736 97.368,345.811 97.352,345.718 98.144 M107.485 98.957 C 107.901 101.174,107.450 120.627,106.943 122.318 C 105.222 128.061,100.565 131.950,96.354 131.160 C 95.287 130.960,95.251 130.546,96.076 127.982 L 96.786 125.781 98.372 125.781 C 100.286 125.781,101.320 125.121,102.232 123.314 L 102.790 122.210 102.902 111.336 C 103.027 99.097,102.828 100.304,104.936 98.996 C 106.568 97.983,107.300 97.972,107.485 98.957 M164.238 104.173 L 164.174 106.338 115.513 134.444 C 88.750 149.903,66.673 162.602,66.454 162.665 C 66.087 162.770,66.060 162.605,66.119 160.631 L 66.183 158.483 115.067 130.252 C 141.953 114.725,164.030 102.018,164.126 102.015 C 164.223 102.012,164.273 102.983,164.238 104.173 M345.494 103.164 C 345.378 104.337,341.508 106.426,341.521 105.308 C 341.528 104.777,341.883 104.453,343.544 103.464 C 345.540 102.276,345.582 102.269,345.494 103.164 M87.837 109.681 C 88.142 110.148,88.176 111.778,88.121 123.390 L 88.058 136.569 87.380 137.537 C 86.668 138.554,86.186 138.852,72.569 146.680 C 65.278 150.871,66.045 152.227,66.122 135.282 L 66.183 121.913 66.857 120.955 C 67.446 120.116,68.703 119.318,76.901 114.578 C 86.648 108.942,87.192 108.698,87.837 109.681 M249.386 122.046 C 247.679 123.047,247.668 122.925,249.555 123.953 L 251.116 124.803 251.116 123.004 C 251.116 120.931,251.203 120.979,249.386 122.046 M160.439 127.068 C 160.487 131.542,160.437 132.715,160.176 133.221 C 159.839 133.873,147.336 141.295,146.575 141.295 C 146.011 141.295,145.954 140.638,146.026 134.987 L 146.094 129.697 146.657 129.134 C 147.493 128.298,159.414 121.437,159.933 121.492 C 160.364 121.539,160.381 121.727,160.439 127.068 M160.491 136.564 C 160.491 137.607,160.141 137.862,153.224 141.854 C 146.578 145.690,145.982 145.947,145.982 144.979 C 145.982 144.051,146.730 143.510,153.247 139.726 C 160.145 135.720,160.491 135.569,160.491 136.564 M135.045 141.752 C 135.045 146.143,134.977 147.473,134.729 147.946 C 134.451 148.476,123.273 155.204,121.563 155.871 C 120.645 156.229,120.536 155.634,120.536 150.285 C 120.536 145.068,120.654 144.287,121.565 143.495 C 122.444 142.732,134.063 136.168,134.542 136.164 L 135.045 136.161 135.045 141.752 M160.491 140.823 C 160.491 141.839,160.087 142.131,153.382 145.977 C 146.572 149.883,146.285 150.020,146.071 149.463 C 145.673 148.426,146.268 147.965,153.077 144.027 C 160.130 139.947,160.491 139.791,160.491 140.823 M160.491 145.060 C 160.491 146.033,160.290 146.177,153.275 150.217 C 147.017 153.822,145.982 154.286,145.982 153.481 C 145.982 152.388,146.439 152.046,152.717 148.429 C 161.151 143.570,160.491 143.856,160.491 145.060 M160.446 149.243 C 160.541 150.186,160.286 150.368,153.173 154.458 C 146.412 158.346,146.131 158.468,146.027 157.572 C 145.916 156.618,146.501 156.192,153.348 152.242 C 160.308 148.227,160.342 148.212,160.446 149.243 M135.045 151.437 C 135.045 152.397,135.373 152.165,127.838 156.514 C 121.128 160.386,120.895 160.497,120.677 159.931 C 120.253 158.824,120.352 158.749,128.132 154.252 C 135.012 150.276,135.045 150.263,135.045 151.437 M109.590 151.101 C 109.730 151.363,109.821 153.532,109.821 156.592 C 109.821 161.971,109.697 162.722,108.699 163.345 C 105.444 165.378,96.124 170.553,95.823 170.495 C 95.274 170.389,95.094 159.772,95.623 158.758 C 95.855 158.314,97.477 157.264,101.567 154.911 C 109.947 150.090,109.231 150.430,109.590 151.101 M160.491 153.323 C 160.491 154.368,160.026 154.705,153.136 158.670 C 146.599 162.430,145.982 162.693,145.982 161.720 C 145.982 160.798,146.699 160.281,153.238 156.478 C 160.171 152.447,160.491 152.308,160.491 153.323 M135.045 155.551 C 135.045 156.527,134.834 156.677,127.872 160.693 C 120.980 164.669,120.886 164.715,120.681 164.180 C 120.405 163.463,121.007 162.528,122.172 161.865 C 122.807 161.504,125.874 159.743,128.989 157.951 C 134.814 154.601,135.045 154.509,135.045 155.551 M246.942 156.165 C 247.865 156.633,248.438 157.140,248.438 157.491 C 248.438 158.001,217.412 175.762,216.512 175.767 C 215.535 175.772,213.616 174.695,213.616 174.142 C 213.616 173.856,217.852 171.296,229.074 164.796 C 245.629 155.209,245.334 155.351,246.942 156.165 M160.491 157.565 C 160.491 158.581,160.082 158.878,153.399 162.716 C 146.621 166.607,146.287 166.766,146.071 166.204 C 145.677 165.178,146.275 164.715,153.074 160.777 C 160.133 156.688,160.491 156.533,160.491 157.565 M135.041 159.654 C 135.036 160.741,135.133 160.668,128.674 164.410 C 120.194 169.322,120.279 169.288,120.660 167.634 C 120.849 166.814,120.770 166.867,127.902 162.745 C 135.118 158.574,135.046 158.605,135.041 159.654 M160.491 161.801 C 160.491 162.138,160.366 162.576,160.212 162.773 C 159.753 163.363,146.647 170.805,146.301 170.672 C 145.453 170.347,146.162 168.944,147.583 168.135 C 148.237 167.763,151.321 165.993,154.435 164.201 C 160.260 160.851,160.491 160.759,160.491 161.801 M350.817 163.516 C 353.626 164.881,355.107 167.983,355.905 174.176 C 356.860 181.585,355.947 194.108,353.898 201.704 C 353.431 203.435,353.348 204.244,353.344 207.061 C 353.339 210.499,353.096 215.820,352.662 221.987 C 352.414 225.514,352.418 225.584,352.987 227.679 C 353.835 230.800,354.464 234.809,354.469 237.132 L 354.474 239.174 355.656 236.927 C 359.399 229.816,364.188 225.264,369.978 223.316 C 376.433 221.143,381.132 224.715,378.569 229.845 C 377.573 231.838,376.071 233.089,371.205 235.977 C 365.611 239.299,361.113 242.562,364.453 240.877 C 370.184 237.984,376.550 240.081,375.246 244.431 C 374.689 246.290,373.413 247.147,368.155 249.190 C 360.311 252.238,354.243 256.843,353.724 260.141 C 353.520 261.438,353.122 261.719,351.498 261.715 C 349.804 261.711,349.528 261.532,347.868 259.368 C 347.165 258.451,346.064 257.144,345.421 256.463 C 341.846 252.677,342.783 248.832,346.833 250.670 C 347.715 251.070,347.785 251.074,347.681 250.721 C 347.321 249.497,345.212 238.195,344.547 233.929 C 343.340 226.180,343.126 224.238,342.752 217.634 C 342.372 210.944,342.193 208.625,342.066 208.753 C 341.932 208.887,341.114 218.979,340.641 226.339 C 340.211 233.024,340.210 233.175,340.624 234.657 C 341.910 239.267,342.038 245.259,341.076 255.804 C 340.291 264.398,340.277 265.035,340.818 267.174 C 341.940 271.611,341.522 272.380,337.774 272.772 C 336.428 272.912,335.430 273.186,334.091 273.782 C 330.843 275.228,330.617 275.285,328.013 275.311 C 325.794 275.332,325.437 275.278,324.293 274.742 C 321.004 273.200,321.972 271.702,327.679 269.502 C 330.557 268.393,333.073 267.114,334.029 266.275 C 335.052 265.376,335.054 265.473,333.833 257.230 C 333.289 253.561,332.582 248.599,332.261 246.205 C 331.940 243.811,331.384 239.743,331.025 237.165 C 330.009 229.864,329.255 216.896,329.145 204.799 C 329.103 200.257,329.113 197.166,329.166 197.931 L 329.262 199.322 331.093 199.878 C 339.483 202.423,350.036 200.976,352.804 196.903 C 354.026 195.104,353.229 168.212,351.885 165.919 C 351.202 164.754,349.528 163.461,348.438 163.258 C 346.986 162.987,346.908 162.687,348.326 162.826 C 349.063 162.898,350.184 163.209,350.817 163.516 M135.045 163.916 C 135.045 164.930,135.143 164.860,127.679 169.171 C 120.764 173.164,120.269 173.350,120.656 171.807 C 120.858 171.003,120.727 171.091,127.877 166.932 C 134.864 162.867,135.045 162.791,135.045 163.916 M109.709 165.621 C 110.043 166.674,109.426 167.148,102.567 171.116 C 95.211 175.371,95.313 175.327,95.313 174.253 C 95.313 173.218,95.392 173.161,102.641 168.941 C 109.490 164.953,109.496 164.951,109.709 165.621 M160.446 165.984 C 160.541 166.932,160.277 167.121,153.030 171.297 C 146.577 175.015,145.982 175.264,145.982 174.250 C 145.982 173.323,146.586 172.891,153.348 168.989 C 160.317 164.968,160.343 164.957,160.446 165.984 M84.271 165.910 C 84.341 166.190,84.368 168.800,84.331 171.710 L 84.263 177.001 83.594 177.645 C 82.672 178.531,70.824 185.313,70.356 185.223 C 69.828 185.122,69.663 174.468,70.174 173.491 C 70.512 172.847,82.999 165.414,83.757 165.406 C 83.975 165.404,84.199 165.624,84.271 165.910 M135.045 168.157 C 135.045 169.149,135.224 169.022,127.815 173.292 C 121.195 177.107,120.898 177.248,120.677 176.672 C 120.254 175.569,120.302 175.533,128.223 170.938 C 134.808 167.117,135.045 167.021,135.045 168.157 M109.742 169.758 C 110.053 170.567,109.349 171.393,107.400 172.507 C 106.338 173.115,103.271 174.876,100.585 176.422 C 95.542 179.324,95.313 179.409,95.313 178.378 C 95.313 177.401,95.526 177.247,102.455 173.240 C 109.229 169.323,109.522 169.183,109.742 169.758 M109.781 174.278 C 109.902 175.124,108.878 175.857,102.298 179.640 C 95.581 183.501,95.313 183.616,95.313 182.632 C 95.313 181.606,95.596 181.400,102.456 177.446 C 109.115 173.609,109.653 173.376,109.781 174.278 M109.703 178.855 C 109.496 179.681,109.463 179.703,102.375 183.787 C 95.340 187.842,95.313 187.854,95.313 186.753 C 95.313 185.743,95.200 185.823,102.679 181.503 C 109.583 177.515,110.087 177.325,109.703 178.855 M84.330 180.600 C 84.439 181.532,83.901 181.922,77.144 185.801 C 69.961 189.925,70.001 189.908,69.923 188.951 C 69.840 187.930,69.967 187.836,77.009 183.748 C 83.794 179.810,84.217 179.628,84.330 180.600 M160.439 185.874 L 160.499 191.502 159.881 192.173 C 159.368 192.730,150.421 198.076,147.472 199.589 C 146.008 200.339,145.982 200.246,145.982 194.274 C 145.982 190.339,146.058 188.866,146.290 188.312 C 146.643 187.467,159.068 180.065,159.933 180.184 C 160.364 180.243,160.381 180.438,160.439 185.874 M291.000 181.597 C 292.792 182.647,294.342 181.563,275.559 192.396 C 259.577 201.615,260.107 201.368,258.392 200.387 C 256.255 199.165,254.752 200.270,272.433 190.056 C 290.777 179.459,288.851 180.337,291.000 181.597 M109.709 182.362 C 110.044 183.419,109.431 183.891,102.567 187.861 C 98.884 189.991,95.745 191.736,95.592 191.738 C 95.096 191.744,95.262 190.302,95.815 189.801 C 96.194 189.458,105.142 184.213,108.817 182.180 C 109.440 181.836,109.549 181.858,109.709 182.362 M134.993 187.988 C 135.052 193.666,135.048 193.721,134.546 194.281 C 134.008 194.882,121.781 202.009,121.289 202.009 C 120.351 202.009,120.176 191.285,121.094 190.061 C 121.614 189.367,134.092 182.099,134.597 182.196 C 134.884 182.251,134.942 183.095,134.993 187.988 M84.375 184.588 C 84.375 185.715,83.874 186.089,77.247 189.913 C 70.196 193.982,69.866 194.126,69.866 193.123 C 69.866 192.104,70.132 191.911,77.009 187.949 C 83.661 184.117,84.375 183.791,84.375 184.588 M109.707 186.598 C 110.027 187.606,109.355 188.121,102.697 191.969 C 95.490 196.134,95.456 196.149,95.354 195.262 C 95.235 194.231,95.500 194.035,102.367 190.052 C 109.457 185.940,109.493 185.923,109.707 186.598 M84.331 188.886 C 84.446 189.845,83.640 190.434,76.936 194.290 C 70.027 198.264,69.866 198.334,69.866 197.346 C 69.866 196.310,70.312 195.985,77.232 191.987 C 84.112 188.013,84.221 187.965,84.331 188.886 M109.779 191.000 C 109.903 191.869,108.702 192.738,102.312 196.400 C 95.623 200.234,95.313 200.365,95.313 199.373 C 95.313 198.352,95.583 198.155,102.455 194.192 C 109.088 190.367,109.653 190.121,109.779 191.000 M84.334 193.149 C 84.443 194.070,83.879 194.474,76.848 198.516 C 70.357 202.247,69.866 202.454,69.866 201.462 C 69.866 200.533,70.555 200.040,77.228 196.197 C 84.099 192.242,84.220 192.190,84.334 193.149 M109.703 195.596 C 109.495 196.425,109.450 196.455,102.383 200.531 C 95.335 204.595,95.313 204.604,95.313 203.467 C 95.313 202.475,95.127 202.605,102.902 198.119 C 109.567 194.274,110.083 194.082,109.703 195.596 M84.333 197.256 C 84.469 198.209,83.867 198.651,77.118 202.549 C 70.170 206.561,69.866 206.689,69.866 205.606 C 69.866 204.673,70.150 204.471,77.121 200.426 C 83.688 196.616,84.209 196.387,84.333 197.256 M135.045 197.398 C 135.045 198.429,135.026 198.442,127.647 202.697 C 120.847 206.617,120.291 206.830,120.648 205.374 C 120.859 204.511,120.851 204.517,127.913 200.445 C 135.125 196.287,135.045 196.322,135.045 197.398 M135.045 201.640 C 135.045 202.644,135.168 202.556,127.814 206.794 C 121.194 210.610,120.611 210.849,120.695 209.717 C 120.764 208.782,120.824 208.740,127.844 204.656 C 134.831 200.592,135.045 200.502,135.045 201.640 M5.703 201.526 C 5.820 201.629,6.680 201.986,7.615 202.319 C 12.238 203.967,17.489 208.065,21.163 212.891 C 22.399 214.515,22.991 215.063,22.991 214.585 C 22.991 212.783,14.563 205.070,10.173 202.854 C 7.999 201.757,4.931 200.845,5.703 201.526 M135.045 205.774 C 135.045 206.768,134.787 206.954,127.902 210.929 C 121.107 214.852,120.892 214.955,120.681 214.404 C 120.271 213.337,120.789 212.936,127.829 208.872 C 134.862 204.813,135.045 204.735,135.045 205.774 M201.689 208.670 C 216.416 210.938,227.342 217.912,229.570 226.465 C 230.074 228.398,230.064 241.413,229.558 243.383 C 225.076 260.824,185.928 267.938,165.289 255.062 L 164.395 254.504 159.208 257.442 C 155.627 259.470,154.020 260.497,154.019 260.760 C 154.017 261.440,153.564 262.156,152.835 262.630 C 140.906 270.395,112.167 287.723,111.219 287.723 C 107.193 287.723,102.979 279.629,105.562 276.857 C 106.448 275.905,148.298 253.795,149.212 253.795 C 149.902 253.795,150.896 253.321,154.157 251.438 L 158.239 249.081 157.471 248.011 C 155.207 244.859,154.911 243.357,154.911 235.009 C 154.911 227.460,155.003 226.664,156.174 224.109 C 161.379 212.754,182.245 205.676,201.689 208.670 M109.582 209.691 C 110.096 210.310,109.805 220.599,109.253 221.339 C 108.703 222.075,96.327 229.297,95.792 229.194 C 95.210 229.082,95.128 218.261,95.702 217.340 C 96.073 216.745,108.421 209.391,109.069 209.379 C 109.207 209.377,109.438 209.517,109.582 209.691 M84.107 211.652 C 84.604 212.149,84.472 222.498,83.958 223.326 C 83.452 224.142,71.439 231.138,70.543 231.138 L 69.978 231.138 69.978 225.395 L 69.978 219.652 70.536 219.113 C 71.030 218.634,83.390 211.384,83.712 211.384 C 83.782 211.384,83.960 211.504,84.107 211.652 M186.049 222.346 C 175.412 223.490,165.675 227.754,161.381 233.151 C 160.076 234.791,160.075 234.796,160.918 236.021 C 167.463 245.533,188.998 250.246,206.435 245.982 C 214.189 244.085,220.937 240.207,224.068 235.846 L 224.775 234.863 223.754 233.505 C 217.815 225.604,201.274 220.709,186.049 222.346 M372.879 225.997 C 366.131 228.543,355.084 239.862,354.136 245.201 C 353.989 246.027,354.039 245.977,354.799 244.531 C 358.651 237.211,365.516 230.147,371.747 227.093 C 372.843 226.556,373.867 226.116,374.022 226.116 C 374.177 226.116,374.362 226.023,374.432 225.908 C 374.699 225.478,374.176 225.507,372.879 225.997 M84.330 226.597 C 84.444 227.545,83.800 228.015,77.018 231.930 C 70.432 235.731,69.866 235.971,69.866 234.965 C 69.866 234.032,70.482 233.592,77.232 229.697 C 84.084 225.744,84.221 225.685,84.330 226.597 M84.330 230.823 C 84.441 231.771,83.866 232.186,76.954 236.163 C 70.333 239.971,69.866 240.170,69.866 239.186 C 69.866 238.253,70.566 237.746,77.122 233.931 C 83.817 230.035,84.218 229.862,84.330 230.823 M84.326 234.842 C 84.526 235.881,84.014 236.269,77.443 240.059 C 70.254 244.205,69.866 244.374,69.866 243.372 C 69.866 242.344,70.054 242.208,77.009 238.189 C 83.453 234.466,84.188 234.129,84.326 234.842 M368.638 242.738 C 362.853 244.000,356.460 249.090,353.539 254.760 C 352.696 256.395,353.219 256.382,354.192 254.744 C 357.934 248.446,364.159 243.857,370.145 242.984 C 371.278 242.819,371.615 242.399,370.592 242.428 C 370.254 242.438,369.375 242.578,368.638 242.738 " stroke="none" fill="#f5f5f5" fill-rule="evenodd"></path><path id="path3" d="M331.926 146.731 C 331.791 147.116,331.621 148.185,331.546 149.106 C 331.439 150.445,331.263 151.037,330.673 152.057 C 329.668 153.791,329.648 154.058,330.498 154.308 C 331.176 154.508,331.202 154.562,331.345 156.107 C 331.716 160.102,332.244 160.794,334.931 160.813 L 336.809 160.826 337.181 162.891 C 337.385 164.026,337.583 164.955,337.621 164.955 C 337.658 164.955,338.977 164.650,340.552 164.277 C 342.127 163.905,343.651 163.549,343.939 163.486 C 344.348 163.398,344.437 163.266,344.342 162.881 C 344.276 162.610,344.154 161.874,344.072 161.245 L 343.923 160.101 341.496 160.216 L 339.068 160.331 338.403 158.904 C 338.037 158.120,337.670 156.900,337.588 156.194 L 337.439 154.911 338.106 154.911 C 338.866 154.911,339.843 154.120,340.181 153.231 C 341.279 150.342,338.143 148.582,336.739 151.299 C 336.132 152.474,335.532 151.649,335.147 149.107 C 334.940 147.745,334.878 147.662,333.433 146.792 L 332.170 146.031 331.926 146.731 M298.683 168.539 C 295.651 171.571,298.138 176.286,304.443 179.454 C 305.475 179.973,307.936 181.476,309.912 182.796 C 315.820 186.740,319.247 188.693,321.054 189.145 C 321.990 189.379,322.845 188.744,325.760 185.650 L 328.316 182.938 327.160 182.318 C 325.827 181.604,324.361 180.106,323.715 178.801 L 323.267 177.896 321.668 179.921 L 320.068 181.947 315.782 179.724 C 307.401 175.376,307.832 175.798,307.820 171.931 L 307.813 169.196 307.251 169.196 C 306.637 169.196,306.236 169.881,305.877 171.540 C 305.535 173.119,304.090 172.458,302.307 169.907 C 300.665 167.558,299.938 167.283,298.683 168.539 M354.632 182.673 L 353.348 183.315 353.364 193.276 C 353.382 204.654,353.428 204.784,354.793 197.321 C 355.824 191.690,356.061 189.303,355.983 185.379 L 355.915 182.031 354.632 182.673 M352.580 255.708 C 352.077 256.078,350.300 256.130,349.431 255.799 C 348.922 255.606,348.853 255.625,348.970 255.929 C 349.045 256.126,349.107 256.421,349.107 256.586 C 349.107 257.035,350.571 257.432,351.635 257.271 C 352.927 257.075,353.170 256.875,353.086 256.075 C 353.019 255.438,352.982 255.411,352.580 255.708 M339.063 264.455 C 338.101 264.745,336.618 264.717,335.547 264.388 C 335.073 264.242,335.045 264.295,335.045 265.348 C 335.045 266.701,335.336 266.993,336.825 267.137 C 339.237 267.368,340.272 266.706,340.136 265.018 L 340.067 264.152 339.063 264.455 " stroke="none" fill="#fbaca4" fill-rule="evenodd"></path><path id="path4" d="M256.018 13.344 C 255.146 13.792,249.852 16.869,248.928 17.464 C 248.597 17.678,248.175 17.921,247.991 18.004 C 247.543 18.208,245.421 19.435,244.679 19.919 C 244.352 20.133,243.934 20.375,243.750 20.458 C 243.063 20.766,231.804 27.295,230.238 28.293 C 229.996 28.447,229.587 28.665,229.329 28.777 C 228.921 28.955,227.452 29.825,225.999 30.749 C 225.756 30.903,225.407 31.097,225.223 31.178 C 225.039 31.260,222.377 32.782,219.308 34.561 C 216.239 36.339,212.723 38.374,211.496 39.081 C 210.268 39.789,209.036 40.663,208.757 41.022 L 208.252 41.677 210.068 42.732 L 211.885 43.788 212.695 43.008 C 213.590 42.146,259.906 15.263,260.703 15.143 C 261.095 15.083,260.811 14.839,259.383 14.007 C 257.353 12.824,257.119 12.778,256.018 13.344 M299.554 38.506 C 299.001 38.799,298.348 39.134,298.103 39.249 C 297.645 39.465,290.379 43.691,289.174 44.443 C 288.806 44.673,288.293 44.954,288.034 45.069 C 287.628 45.249,286.188 46.102,284.704 47.043 C 284.462 47.197,284.052 47.415,283.793 47.527 C 283.534 47.640,282.761 48.092,282.074 48.531 C 281.387 48.971,280.775 49.330,280.714 49.330 C 280.653 49.330,278.514 50.545,275.960 52.029 C 273.406 53.514,270.313 55.310,269.085 56.022 C 267.857 56.734,265.748 57.972,264.397 58.775 C 263.047 59.577,259.868 61.448,257.334 62.932 C 253.381 65.247,251.688 66.502,252.047 66.851 C 252.087 66.891,252.879 67.371,253.806 67.918 L 255.492 68.913 256.150 68.168 C 256.849 67.376,303.219 40.408,304.208 40.219 C 304.647 40.134,304.428 39.941,302.869 39.037 C 300.715 37.789,300.861 37.812,299.554 38.506 M146.942 82.366 C 146.942 83.041,146.984 83.318,147.035 82.980 C 147.086 82.642,147.086 82.090,147.035 81.752 C 146.984 81.415,146.942 81.691,146.942 82.366 M145.826 95.313 C 145.826 95.988,145.868 96.264,145.919 95.926 C 145.970 95.589,145.970 95.036,145.919 94.699 C 145.868 94.361,145.826 94.637,145.826 95.313 M141.351 97.656 C 141.353 98.147,141.399 98.322,141.453 98.044 C 141.506 97.767,141.504 97.365,141.448 97.151 C 141.392 96.938,141.348 97.165,141.351 97.656 M147.938 101.497 C 148.216 101.551,148.617 101.549,148.831 101.493 C 149.044 101.437,148.817 101.393,148.326 101.396 C 147.835 101.398,147.660 101.444,147.938 101.497 M115.067 130.342 L 66.406 158.443 66.342 160.606 L 66.278 162.770 67.381 162.133 C 67.988 161.782,89.986 149.090,116.265 133.929 L 164.046 106.362 164.054 104.297 C 164.059 103.161,163.987 102.234,163.895 102.236 C 163.803 102.239,141.830 114.886,115.067 130.342 M109.431 109.040 C 109.434 109.531,109.479 109.706,109.533 109.428 C 109.586 109.151,109.584 108.749,109.528 108.535 C 109.472 108.322,109.429 108.549,109.431 109.040 M109.427 112.054 C 109.427 112.483,109.473 112.659,109.529 112.444 C 109.585 112.229,109.585 111.878,109.529 111.663 C 109.473 111.448,109.427 111.624,109.427 112.054 M121.973 117.467 L 121.317 118.192 122.042 117.536 C 122.441 117.176,122.768 116.849,122.768 116.811 C 122.768 116.638,122.584 116.790,121.973 117.467 M66.176 135.491 C 66.176 142.550,66.204 145.438,66.239 141.908 C 66.273 138.379,66.273 132.603,66.239 129.074 C 66.204 125.544,66.176 128.432,66.176 135.491 M225.762 139.732 C 225.762 142.003,225.795 142.932,225.836 141.797 C 225.876 140.661,225.876 138.803,225.836 137.667 C 225.795 136.532,225.762 137.461,225.762 139.732 M269.196 164.799 L 269.307 168.862 269.369 164.972 C 269.403 162.833,269.353 161.004,269.258 160.909 C 269.163 160.814,269.135 162.564,269.196 164.799 M337.341 169.754 C 337.342 170.368,337.386 170.593,337.437 170.254 C 337.488 169.914,337.487 169.412,337.434 169.138 C 337.381 168.863,337.339 169.141,337.341 169.754 M352.954 172.098 C 352.954 172.528,353.000 172.704,353.056 172.489 C 353.112 172.274,353.112 171.922,353.056 171.708 C 353.000 171.493,352.954 171.669,352.954 172.098 M353.192 178.348 C 353.192 179.023,353.234 179.300,353.285 178.962 C 353.336 178.624,353.336 178.072,353.285 177.734 C 353.234 177.397,353.192 177.673,353.192 178.348 M329.516 184.821 C 329.516 185.251,329.562 185.427,329.618 185.212 C 329.674 184.997,329.674 184.646,329.618 184.431 C 329.562 184.216,329.516 184.392,329.516 184.821 M18.294 208.761 C 18.842 209.344,19.319 209.821,19.355 209.821 C 19.522 209.821,19.345 209.621,18.359 208.696 L 17.299 207.701 18.294 208.761 M187.723 208.282 C 172.773 209.346,160.324 215.577,156.326 223.995 C 155.885 224.923,155.525 225.931,155.525 226.234 C 155.525 226.538,155.426 226.786,155.305 226.786 C 155.185 226.786,155.149 226.949,155.226 227.149 C 155.302 227.349,155.264 227.634,155.140 227.783 C 154.816 228.173,155.240 232.190,155.765 233.710 C 162.620 253.551,208.535 257.750,225.182 240.059 C 239.792 224.532,218.089 206.121,187.723 208.282 M201.233 212.250 C 216.092 214.490,226.339 221.702,226.339 229.921 C 226.339 231.974,226.096 232.293,225.574 230.925 C 218.218 211.665,165.670 211.997,159.120 231.345 L 158.745 232.451 158.584 231.374 C 157.137 221.723,169.336 213.596,188.058 211.738 C 190.313 211.515,198.453 211.830,201.233 212.250 M11.551 216.675 C 11.828 216.729,12.280 216.729,12.556 216.675 C 12.832 216.622,12.606 216.579,12.054 216.579 C 11.501 216.579,11.275 216.622,11.551 216.675 M200.171 222.446 C 210.863 223.847,220.368 228.382,224.156 233.889 L 224.825 234.860 223.982 236.084 C 213.539 251.246,172.568 251.481,161.135 236.444 C 160.597 235.736,160.081 235.123,159.990 235.082 C 159.898 235.041,160.263 234.439,160.800 233.743 C 165.874 227.169,175.810 223.028,188.951 222.009 C 191.025 221.849,197.554 222.102,200.171 222.446 M7.646 228.013 C 7.648 228.504,7.694 228.679,7.747 228.401 C 7.801 228.124,7.799 227.722,7.743 227.509 C 7.687 227.295,7.643 227.522,7.646 228.013 M376.664 232.199 L 375.781 233.147 376.730 232.265 C 377.612 231.444,377.781 231.250,377.612 231.250 C 377.576 231.250,377.149 231.677,376.664 232.199 M107.143 285.338 C 107.143 285.376,107.469 285.703,107.868 286.063 L 108.594 286.719 107.938 285.993 C 107.327 285.317,107.143 285.165,107.143 285.338 " stroke="none" fill="#9ccac5" fill-rule="evenodd"></path><path id="path5" d="M344.471 9.598 C 344.471 10.028,344.517 10.204,344.574 9.989 C 344.630 9.774,344.630 9.422,344.574 9.208 C 344.517 8.993,344.471 9.169,344.471 9.598 M342.690 10.379 C 342.693 10.871,342.738 11.045,342.792 10.767 C 342.845 10.490,342.843 10.088,342.787 9.875 C 342.731 9.661,342.688 9.888,342.690 10.379 M341.574 19.350 C 341.789 19.406,342.140 19.406,342.355 19.350 C 342.570 19.294,342.394 19.248,341.964 19.248 C 341.535 19.248,341.359 19.294,341.574 19.350 M344.888 23.749 C 344.536 24.123,344.414 24.475,344.481 24.921 L 344.576 25.558 344.609 24.903 C 344.628 24.542,344.861 24.015,345.128 23.731 C 345.395 23.447,345.563 23.214,345.502 23.214 C 345.441 23.214,345.164 23.455,344.888 23.749 M342.690 26.004 C 342.693 26.496,342.738 26.670,342.792 26.392 C 342.845 26.115,342.843 25.713,342.787 25.500 C 342.731 25.286,342.688 25.513,342.690 26.004 M344.025 54.688 C 344.025 55.117,344.071 55.293,344.127 55.078 C 344.183 54.863,344.183 54.512,344.127 54.297 C 344.071 54.082,344.025 54.258,344.025 54.688 M140.905 86.496 C 140.907 86.987,140.953 87.161,141.006 86.884 C 141.059 86.606,141.057 86.204,141.002 85.991 C 140.946 85.777,140.902 86.004,140.905 86.496 M349.873 102.009 C 349.873 105.017,349.905 106.247,349.944 104.743 C 349.982 103.239,349.982 100.778,349.944 99.275 C 349.905 97.771,349.873 99.001,349.873 102.009 M340.900 100.446 C 340.900 100.876,340.946 101.052,341.002 100.837 C 341.058 100.622,341.058 100.271,341.002 100.056 C 340.946 99.841,340.900 100.017,340.900 100.446 M123.713 101.116 C 123.713 101.546,123.758 101.722,123.815 101.507 C 123.871 101.292,123.871 100.940,123.815 100.725 C 123.758 100.511,123.713 100.686,123.713 101.116 M103.004 110.938 C 103.004 116.278,103.033 118.463,103.069 115.792 C 103.105 113.122,103.105 108.753,103.069 106.083 C 103.033 103.412,103.004 105.597,103.004 110.938 M123.717 103.460 C 123.719 103.951,123.765 104.126,123.819 103.848 C 123.872 103.570,123.870 103.168,123.814 102.955 C 123.758 102.742,123.715 102.969,123.717 103.460 M337.374 109.040 C 337.373 112.109,337.405 113.396,337.443 111.899 C 337.482 110.402,337.482 107.891,337.444 106.319 C 337.405 104.746,337.374 105.971,337.374 109.040 M141.729 105.525 L 140.960 106.362 141.797 105.592 C 142.576 104.876,142.737 104.688,142.566 104.688 C 142.529 104.688,142.152 105.064,141.729 105.525 M109.431 110.603 C 109.434 111.094,109.479 111.268,109.533 110.991 C 109.586 110.713,109.584 110.311,109.528 110.098 C 109.472 109.884,109.429 110.112,109.431 110.603 M175.101 135.549 C 175.042 135.704,175.020 138.893,175.053 142.636 L 175.112 149.442 175.223 142.355 C 175.285 138.457,175.307 135.268,175.272 135.268 C 175.237 135.268,175.161 135.394,175.101 135.549 M175.026 159.431 C 175.054 160.939,175.160 160.792,175.270 159.096 C 175.307 158.513,175.262 158.036,175.169 158.036 C 175.076 158.036,175.012 158.664,175.026 159.431 M324.554 186.942 C 323.639 187.863,322.941 188.616,323.002 188.616 C 323.064 188.616,323.862 187.863,324.777 186.942 C 325.691 186.021,326.389 185.268,326.328 185.268 C 326.267 185.268,325.468 186.021,324.554 186.942 M353.196 197.991 C 353.196 198.789,353.237 199.116,353.286 198.717 C 353.336 198.318,353.336 197.665,353.286 197.266 C 353.237 196.867,353.196 197.193,353.196 197.991 M329.110 203.237 C 329.110 205.446,329.144 206.320,329.184 205.178 C 329.225 204.037,329.225 202.229,329.184 201.161 C 329.143 200.093,329.110 201.027,329.110 203.237 M353.214 207.031 C 353.215 208.873,353.249 209.596,353.291 208.639 C 353.333 207.682,353.333 206.176,353.291 205.291 C 353.248 204.407,353.214 205.190,353.214 207.031 M259.322 206.408 C 259.599 206.461,260.001 206.459,260.215 206.403 C 260.428 206.347,260.201 206.304,259.710 206.306 C 259.219 206.309,259.044 206.354,259.322 206.408 M329.313 212.054 C 329.313 212.852,329.353 213.178,329.403 212.779 C 329.452 212.380,329.452 211.727,329.403 211.328 C 329.353 210.929,329.313 211.256,329.313 212.054 M352.969 214.286 C 352.969 214.961,353.011 215.237,353.062 214.900 C 353.113 214.562,353.113 214.009,353.062 213.672 C 353.011 213.334,352.969 213.610,352.969 214.286 M329.531 217.188 C 329.531 217.863,329.573 218.139,329.624 217.801 C 329.675 217.464,329.675 216.911,329.624 216.574 C 329.573 216.236,329.531 216.512,329.531 217.188 M341.123 216.741 C 341.123 217.171,341.169 217.347,341.225 217.132 C 341.281 216.917,341.281 216.565,341.225 216.350 C 341.169 216.136,341.123 216.311,341.123 216.741 M352.735 218.415 C 352.737 218.906,352.783 219.081,352.836 218.803 C 352.890 218.526,352.888 218.124,352.832 217.910 C 352.776 217.697,352.732 217.924,352.735 218.415 M340.905 219.754 C 340.907 220.246,340.953 220.420,341.006 220.142 C 341.059 219.865,341.057 219.463,341.002 219.250 C 340.946 219.036,340.902 219.263,340.905 219.754 M329.748 221.429 C 329.748 221.981,329.792 222.207,329.845 221.931 C 329.898 221.655,329.898 221.203,329.845 220.926 C 329.792 220.650,329.748 220.876,329.748 221.429 M352.507 221.875 C 352.507 222.305,352.553 222.480,352.609 222.266 C 352.665 222.051,352.665 221.699,352.609 221.484 C 352.553 221.270,352.507 221.445,352.507 221.875 M340.681 223.103 C 340.684 223.594,340.729 223.768,340.783 223.491 C 340.836 223.213,340.834 222.811,340.778 222.598 C 340.722 222.384,340.679 222.612,340.681 223.103 M352.288 225.112 C 352.291 225.603,352.337 225.777,352.390 225.500 C 352.443 225.222,352.441 224.820,352.386 224.607 C 352.330 224.393,352.286 224.621,352.288 225.112 M329.972 225.446 C 329.972 225.999,330.015 226.225,330.068 225.949 C 330.121 225.672,330.121 225.220,330.068 224.944 C 330.015 224.668,329.972 224.894,329.972 225.446 M340.458 226.674 C 340.461 227.165,340.506 227.340,340.560 227.062 C 340.613 226.784,340.611 226.383,340.555 226.169 C 340.499 225.956,340.456 226.183,340.458 226.674 M330.190 228.906 C 330.193 229.397,330.238 229.572,330.292 229.294 C 330.345 229.017,330.343 228.615,330.287 228.401 C 330.231 228.188,330.188 228.415,330.190 228.906 M340.235 230.022 C 340.237 230.513,340.283 230.688,340.336 230.410 C 340.390 230.133,340.388 229.731,340.332 229.517 C 340.276 229.304,340.232 229.531,340.235 230.022 M354.324 237.723 C 354.324 239.012,354.361 239.540,354.406 238.895 C 354.451 238.251,354.451 237.196,354.406 236.551 C 354.361 235.907,354.324 236.434,354.324 237.723 M341.570 241.295 C 341.570 241.724,341.616 241.900,341.672 241.685 C 341.728 241.470,341.728 241.119,341.672 240.904 C 341.616 240.689,341.570 240.865,341.570 241.295 M341.585 246.429 C 341.585 247.104,341.627 247.380,341.678 247.042 C 341.729 246.705,341.729 246.152,341.678 245.815 C 341.627 245.477,341.585 245.753,341.585 246.429 M341.351 250.112 C 341.353 250.603,341.399 250.777,341.453 250.500 C 341.506 250.222,341.504 249.820,341.448 249.607 C 341.392 249.393,341.348 249.621,341.351 250.112 M341.123 253.125 C 341.123 253.555,341.169 253.730,341.225 253.516 C 341.281 253.301,341.281 252.949,341.225 252.734 C 341.169 252.520,341.123 252.695,341.123 253.125 M340.900 255.804 C 340.900 256.233,340.946 256.409,341.002 256.194 C 341.058 255.979,341.058 255.628,341.002 255.413 C 340.946 255.198,340.900 255.374,340.900 255.804 M345.313 256.320 C 345.313 256.358,345.639 256.685,346.038 257.045 L 346.763 257.701 346.108 256.975 C 345.497 256.299,345.313 256.147,345.313 256.320 M340.152 263.344 C 340.079 263.788,340.111 263.996,340.235 263.872 C 340.348 263.760,340.402 263.430,340.357 263.140 C 340.286 262.693,340.255 262.724,340.152 263.344 M337.556 272.699 C 337.771 272.755,338.122 272.755,338.337 272.699 C 338.552 272.642,338.376 272.596,337.946 272.596 C 337.517 272.596,337.341 272.642,337.556 272.699 M327.065 275.383 C 327.402 275.434,327.955 275.434,328.292 275.383 C 328.630 275.332,328.354 275.290,327.679 275.290 C 327.003 275.290,326.727 275.332,327.065 275.383 " stroke="none" fill="#8d8184" fill-rule="evenodd"></path><path id="path6" d="M148.772 35.613 C 148.527 35.780,122.059 51.079,89.955 69.611 C 25.845 106.618,30.314 103.882,30.028 106.301 C 29.848 107.822,30.008 236.093,30.191 236.830 C 33.627 250.704,46.480 259.549,50.712 250.952 L 51.451 249.451 51.563 183.693 L 51.674 117.934 52.344 116.876 C 52.998 115.843,54.340 115.053,110.379 82.708 L 167.746 49.598 167.811 48.276 C 167.906 46.347,167.592 45.630,166.861 46.109 C 166.556 46.309,140.062 61.623,107.986 80.140 C 62.519 106.388,49.518 113.989,48.996 114.626 L 48.326 115.443 48.214 180.768 L 48.103 246.094 47.629 247.098 C 45.045 252.585,37.203 248.417,34.190 239.955 L 33.594 238.281 33.536 173.334 C 33.472 102.301,33.389 107.044,34.721 105.793 C 35.026 105.507,61.013 90.383,92.470 72.184 L 149.665 39.096 149.731 37.876 C 149.822 36.210,149.391 35.193,148.772 35.613 M97.433 73.654 C 44.953 103.958,38.657 107.652,38.058 108.483 L 37.388 109.413 37.331 174.177 C 37.279 234.021,37.303 239.026,37.645 240.062 C 38.824 243.627,41.938 245.827,43.682 244.327 L 44.308 243.789 44.420 178.647 L 44.531 113.504 44.990 112.723 C 45.619 111.653,41.268 114.214,102.065 79.124 L 156.920 47.462 156.920 43.950 C 156.920 40.358,156.840 39.724,156.394 39.743 C 156.253 39.750,129.721 55.009,97.433 73.654 M145.376 83.594 C 145.378 84.208,145.421 84.432,145.473 84.093 C 145.524 83.754,145.523 83.251,145.470 82.977 C 145.417 82.702,145.375 82.980,145.376 83.594 M151.953 87.881 C 152.229 87.934,152.681 87.934,152.958 87.881 C 153.234 87.828,153.008 87.784,152.455 87.784 C 151.903 87.784,151.677 87.828,151.953 87.881 M128.205 99.777 C 128.205 100.943,128.243 101.420,128.289 100.837 C 128.335 100.254,128.335 99.300,128.289 98.717 C 128.243 98.133,128.205 98.610,128.205 99.777 M107.469 108.929 C 107.469 114.515,107.498 116.800,107.533 114.007 C 107.569 111.214,107.569 106.643,107.533 103.850 C 107.498 101.057,107.469 103.343,107.469 108.929 M164.012 103.515 C 164.121 106.164,164.213 106.425,164.250 104.185 C 164.270 102.988,164.210 102.009,164.118 102.008 C 164.026 102.008,163.979 102.686,164.012 103.515 M113.900 108.036 C 113.900 108.588,113.944 108.814,113.997 108.538 C 114.050 108.262,114.050 107.810,113.997 107.533 C 113.944 107.257,113.900 107.483,113.900 108.036 M88.051 122.991 C 88.051 130.173,88.079 133.111,88.114 129.520 C 88.148 125.929,88.148 120.053,88.114 116.462 C 88.079 112.871,88.051 115.809,88.051 122.991 M153.353 125.008 C 149.980 126.968,146.967 128.825,146.657 129.134 L 146.094 129.697 146.026 134.987 C 145.954 140.638,146.011 141.295,146.575 141.295 C 147.336 141.295,159.839 133.873,160.176 133.221 C 160.748 132.115,160.529 121.556,159.933 121.492 C 159.688 121.466,156.727 123.048,153.353 125.008 M305.678 131.808 C 305.678 135.000,305.709 136.275,305.747 134.641 C 305.785 133.007,305.785 130.395,305.747 128.837 C 305.709 127.279,305.677 128.616,305.678 131.808 M153.247 139.726 C 146.730 143.510,145.982 144.051,145.982 144.979 C 145.982 145.947,146.578 145.690,153.224 141.854 C 160.141 137.862,160.491 137.607,160.491 136.564 C 160.491 135.569,160.145 135.720,153.247 139.726 M128.013 139.649 C 119.773 144.407,120.536 143.323,120.536 150.285 C 120.536 155.634,120.645 156.229,121.563 155.871 C 123.273 155.204,134.451 148.476,134.729 147.946 C 134.977 147.473,135.045 146.143,135.045 141.752 L 135.045 136.161 134.542 136.164 C 134.266 136.167,131.328 137.734,128.013 139.649 M153.077 144.027 C 146.268 147.965,145.673 148.426,146.071 149.463 C 146.285 150.020,146.572 149.883,153.382 145.977 C 160.087 142.131,160.491 141.839,160.491 140.823 C 160.491 139.791,160.130 139.947,153.077 144.027 M159.582 144.503 C 155.386 146.697,146.359 152.162,146.188 152.613 C 145.443 154.572,146.103 154.349,153.275 150.217 C 160.290 146.177,160.491 146.033,160.491 145.060 C 160.491 144.284,160.266 144.145,159.582 144.503 M153.348 152.242 C 146.501 156.192,145.916 156.618,146.027 157.572 C 146.131 158.468,146.412 158.346,153.173 154.458 C 160.286 150.368,160.541 150.186,160.446 149.243 C 160.342 148.212,160.308 148.227,153.348 152.242 M128.132 154.252 C 120.352 158.749,120.253 158.824,120.677 159.931 C 120.895 160.497,121.128 160.386,127.838 156.514 C 135.373 152.165,135.045 152.397,135.045 151.437 C 135.045 150.263,135.012 150.276,128.132 154.252 M108.113 151.172 C 102.213 154.393,95.900 158.227,95.623 158.758 C 95.094 159.772,95.274 170.389,95.823 170.495 C 96.124 170.553,105.444 165.378,108.699 163.345 C 109.697 162.722,109.821 161.971,109.821 156.592 C 109.821 150.401,109.778 150.263,108.113 151.172 M153.238 156.478 C 146.699 160.281,145.982 160.798,145.982 161.720 C 145.982 162.693,146.599 162.430,153.136 158.670 C 160.026 154.705,160.491 154.368,160.491 153.323 C 160.491 152.308,160.171 152.447,153.238 156.478 M128.989 157.951 C 125.874 159.743,122.807 161.504,122.172 161.865 C 120.776 162.660,119.979 164.509,121.032 164.509 C 121.398 164.509,134.460 156.912,134.766 156.521 C 135.086 156.112,135.140 154.996,134.848 154.816 C 134.740 154.749,132.103 156.160,128.989 157.951 M229.074 164.796 C 217.852 171.296,213.616 173.856,213.616 174.142 C 213.616 174.695,215.535 175.772,216.512 175.767 C 217.412 175.762,248.438 158.001,248.438 157.491 C 248.438 157.140,247.865 156.633,246.942 156.165 C 245.334 155.351,245.629 155.209,229.074 164.796 M153.074 160.777 C 146.275 164.715,145.677 165.178,146.071 166.204 C 146.287 166.766,146.621 166.607,153.399 162.716 C 160.082 158.878,160.491 158.581,160.491 157.565 C 160.491 156.533,160.133 156.688,153.074 160.777 M346.973 157.868 L 346.317 158.594 347.042 157.938 C 347.719 157.327,347.870 157.143,347.698 157.143 C 347.660 157.143,347.333 157.469,346.973 157.868 M66.167 158.556 C 66.104 158.719,66.083 159.748,66.120 160.844 L 66.187 162.835 66.297 160.546 C 66.405 158.277,66.386 157.984,66.167 158.556 M127.902 162.745 C 120.770 166.867,120.849 166.814,120.660 167.634 C 120.279 169.288,120.194 169.322,128.674 164.410 C 135.133 160.668,135.036 160.741,135.041 159.654 C 135.046 158.605,135.118 158.574,127.902 162.745 M154.435 164.201 C 151.321 165.993,148.237 167.763,147.583 168.135 C 146.162 168.944,145.453 170.347,146.301 170.672 C 146.647 170.805,159.753 163.363,160.212 162.773 C 160.532 162.361,160.586 161.246,160.295 161.066 C 160.186 160.999,157.550 162.410,154.435 164.201 M347.358 162.953 C 347.591 163.090,347.921 163.093,348.250 162.961 C 348.707 162.778,348.660 162.751,347.879 162.744 C 347.199 162.739,347.075 162.788,347.358 162.953 M127.877 166.932 C 120.727 171.091,120.858 171.003,120.656 171.807 C 120.269 173.350,120.764 173.164,127.679 169.171 C 135.143 164.860,135.045 164.930,135.045 163.916 C 135.045 162.791,134.864 162.867,127.877 166.932 M102.641 168.941 C 95.392 173.161,95.313 173.218,95.313 174.253 C 95.313 175.327,95.211 175.371,102.567 171.116 C 109.426 167.148,110.043 166.674,109.709 165.621 C 109.496 164.951,109.490 164.953,102.641 168.941 M153.348 168.989 C 146.586 172.891,145.982 173.323,145.982 174.250 C 145.982 175.264,146.577 175.015,153.030 171.297 C 160.277 167.121,160.541 166.932,160.446 165.984 C 160.343 164.957,160.317 164.968,153.348 168.989 M76.931 169.149 C 72.277 171.851,70.403 173.055,70.174 173.491 C 69.663 174.468,69.828 185.122,70.356 185.223 C 70.824 185.313,82.672 178.531,83.594 177.645 L 84.263 177.001 84.331 171.710 C 84.404 166.004,84.349 165.400,83.757 165.406 C 83.544 165.408,80.473 167.092,76.931 169.149 M128.223 170.938 C 120.302 175.533,120.254 175.569,120.677 176.672 C 120.898 177.248,121.195 177.107,127.815 173.292 C 135.224 169.022,135.045 169.149,135.045 168.157 C 135.045 167.021,134.808 167.117,128.223 170.938 M309.123 168.890 C 308.185 169.412,308.077 169.558,307.951 170.478 C 307.752 171.934,307.780 173.711,308.002 173.624 C 309.498 173.036,313.616 170.347,313.616 169.957 C 313.616 168.658,310.759 167.979,309.123 168.890 M102.455 173.240 C 95.526 177.247,95.313 177.401,95.313 178.378 C 95.313 179.409,95.542 179.324,100.585 176.422 C 103.271 174.876,106.338 173.115,107.400 172.507 C 109.349 171.393,110.053 170.567,109.742 169.758 C 109.522 169.183,109.229 169.323,102.455 173.240 M304.967 171.267 C 304.091 171.781,304.051 172.042,304.815 172.234 C 305.520 172.411,305.862 172.105,305.765 171.385 L 305.692 170.840 304.967 171.267 M352.954 173.438 C 352.954 173.867,353.000 174.043,353.056 173.828 C 353.112 173.613,353.112 173.262,353.056 173.047 C 353.000 172.832,352.954 173.008,352.954 173.438 M102.456 177.446 C 95.596 181.400,95.313 181.606,95.313 182.632 C 95.313 183.616,95.581 183.501,102.298 179.640 C 108.878 175.857,109.902 175.124,109.781 174.278 C 109.653 173.376,109.115 173.609,102.456 177.446 M297.514 175.656 C 296.366 176.597,299.126 178.395,300.758 177.768 C 301.026 177.666,300.889 177.453,300.164 176.848 C 299.646 176.415,299.090 175.873,298.929 175.642 C 298.555 175.109,298.176 175.112,297.514 175.656 M102.679 181.503 C 95.200 185.823,95.313 185.743,95.313 186.753 C 95.313 187.854,95.340 187.842,102.375 183.787 C 109.463 179.703,109.496 179.681,109.703 178.855 C 110.087 177.325,109.583 177.515,102.679 181.503 M353.204 181.362 C 353.204 182.467,353.241 182.947,353.288 182.429 C 353.335 181.911,353.335 181.007,353.289 180.420 C 353.243 179.833,353.205 180.257,353.204 181.362 M77.009 183.748 C 69.967 187.836,69.840 187.930,69.923 188.951 C 70.001 189.908,69.961 189.925,77.144 185.801 C 83.901 181.922,84.439 181.532,84.330 180.600 C 84.217 179.628,83.794 179.810,77.009 183.748 M153.042 183.849 C 145.232 188.365,145.982 187.258,145.982 194.274 C 145.982 200.246,146.008 200.339,147.472 199.589 C 150.421 198.076,159.368 192.730,159.881 192.173 L 160.499 191.502 160.439 185.874 C 160.381 180.438,160.364 180.243,159.933 180.184 C 159.678 180.149,156.718 181.723,153.042 183.849 M288.058 181.110 C 287.153 181.525,257.535 198.640,257.259 198.908 C 256.695 199.456,258.702 200.883,260.046 200.889 C 261.236 200.895,291.964 183.176,291.964 182.484 C 291.964 181.605,289.144 180.613,288.058 181.110 M108.817 182.180 C 105.142 184.213,96.194 189.458,95.815 189.801 C 95.262 190.302,95.096 191.744,95.592 191.738 C 96.284 191.729,109.271 183.972,109.556 183.397 C 110.065 182.369,109.666 181.711,108.817 182.180 M127.900 185.798 C 119.934 190.392,120.664 189.387,120.580 195.880 C 120.513 201.100,120.618 202.009,121.289 202.009 C 121.781 202.009,134.008 194.882,134.546 194.281 C 135.198 193.553,135.245 182.320,134.597 182.196 C 134.412 182.160,131.398 183.781,127.900 185.798 M77.009 187.949 C 73.387 190.036,70.299 191.912,70.145 192.120 C 69.728 192.682,69.785 193.750,70.232 193.750 C 70.929 193.750,83.879 186.112,84.135 185.550 C 85.097 183.440,84.470 183.650,77.009 187.949 M329.516 186.161 C 329.516 186.590,329.562 186.766,329.618 186.551 C 329.674 186.336,329.674 185.985,329.618 185.770 C 329.562 185.555,329.516 185.731,329.516 186.161 M102.367 190.052 C 95.500 194.035,95.235 194.231,95.354 195.262 C 95.456 196.149,95.490 196.134,102.697 191.969 C 109.355 188.121,110.027 187.606,109.707 186.598 C 109.493 185.923,109.457 185.940,102.367 190.052 M77.232 191.987 C 70.312 195.985,69.866 196.310,69.866 197.346 C 69.866 198.334,70.027 198.264,76.936 194.290 C 83.640 190.434,84.446 189.845,84.331 188.886 C 84.221 187.965,84.112 188.013,77.232 191.987 M102.455 194.192 C 95.583 198.155,95.313 198.352,95.313 199.373 C 95.313 200.365,95.623 200.234,102.312 196.400 C 108.702 192.738,109.903 191.869,109.779 191.000 C 109.653 190.121,109.088 190.367,102.455 194.192 M77.228 196.197 C 70.555 200.040,69.866 200.533,69.866 201.462 C 69.866 202.454,70.357 202.247,76.848 198.516 C 83.879 194.474,84.443 194.070,84.334 193.149 C 84.220 192.190,84.099 192.242,77.228 196.197 M102.902 198.119 C 95.127 202.605,95.313 202.475,95.313 203.467 C 95.313 204.604,95.335 204.595,102.383 200.531 C 109.450 196.455,109.495 196.425,109.703 195.596 C 110.083 194.082,109.567 194.274,102.902 198.119 M77.121 200.426 C 70.150 204.471,69.866 204.673,69.866 205.606 C 69.866 206.689,70.170 206.561,77.118 202.549 C 83.867 198.651,84.469 198.209,84.333 197.256 C 84.209 196.387,83.688 196.616,77.121 200.426 M127.913 200.445 C 120.851 204.517,120.859 204.511,120.648 205.374 C 120.291 206.830,120.847 206.617,127.647 202.697 C 135.026 198.442,135.045 198.429,135.045 197.398 C 135.045 196.322,135.125 196.287,127.913 200.445 M329.074 198.326 C 329.077 198.817,329.122 198.992,329.176 198.714 C 329.229 198.436,329.227 198.034,329.171 197.821 C 329.115 197.608,329.072 197.835,329.074 198.326 M127.844 204.656 C 120.824 208.740,120.764 208.782,120.695 209.717 C 120.611 210.849,121.194 210.610,127.814 206.794 C 135.168 202.556,135.045 202.644,135.045 201.640 C 135.045 200.502,134.831 200.592,127.844 204.656 M127.829 208.872 C 120.789 212.936,120.271 213.337,120.681 214.404 C 120.892 214.955,121.107 214.852,127.902 210.929 C 134.787 206.954,135.045 206.768,135.045 205.774 C 135.045 204.735,134.862 204.813,127.829 208.872 M188.675 208.196 C 189.014 208.247,189.516 208.246,189.791 208.193 C 190.066 208.140,189.788 208.098,189.174 208.100 C 188.560 208.101,188.336 208.145,188.675 208.196 M195.145 208.196 C 195.483 208.247,196.035 208.247,196.373 208.196 C 196.710 208.144,196.434 208.103,195.759 208.103 C 195.084 208.103,194.807 208.144,195.145 208.196 M17.848 209.208 C 18.773 210.193,18.973 210.370,18.973 210.203 C 18.973 210.167,18.496 209.690,17.913 209.142 L 16.853 208.147 17.848 209.208 M102.455 213.048 C 98.050 215.585,95.973 216.905,95.702 217.340 C 95.128 218.261,95.210 229.082,95.792 229.194 C 96.327 229.297,108.703 222.075,109.253 221.339 C 109.805 220.599,110.096 210.310,109.582 209.691 C 109.165 209.187,109.128 209.205,102.455 213.048 M77.339 214.978 C 73.904 216.955,70.843 218.816,70.536 219.113 L 69.978 219.652 69.978 225.395 L 69.978 231.138 70.543 231.138 C 71.439 231.138,83.452 224.142,83.958 223.326 C 84.758 222.036,84.538 211.384,83.712 211.384 C 83.641 211.384,80.774 213.001,77.339 214.978 M7.090 216.006 C 7.367 216.059,7.769 216.057,7.983 216.002 C 8.196 215.946,7.969 215.902,7.478 215.905 C 6.987 215.907,6.812 215.953,7.090 216.006 M224.777 218.862 C 225.444 219.537,226.039 220.089,226.101 220.089 C 226.162 220.089,225.667 219.537,225.000 218.862 C 224.333 218.186,223.737 217.634,223.676 217.634 C 223.615 217.634,224.110 218.186,224.777 218.862 M159.821 218.862 C 159.279 219.414,158.886 219.866,158.947 219.866 C 159.009 219.866,159.502 219.414,160.045 218.862 C 160.587 218.309,160.980 217.857,160.919 217.857 C 160.857 217.857,160.364 218.309,159.821 218.862 M191.127 222.040 C 191.833 222.084,192.988 222.084,193.694 222.040 C 194.400 221.996,193.823 221.959,192.411 221.959 C 190.999 221.959,190.421 221.996,191.127 222.040 M186.886 222.252 C 187.101 222.308,187.453 222.308,187.667 222.252 C 187.882 222.196,187.706 222.150,187.277 222.150 C 186.847 222.150,186.671 222.196,186.886 222.252 M197.154 222.252 C 197.369 222.308,197.720 222.308,197.935 222.252 C 198.150 222.196,197.974 222.150,197.545 222.150 C 197.115 222.150,196.939 222.196,197.154 222.252 M373.270 222.699 C 373.485 222.755,373.836 222.755,374.051 222.699 C 374.266 222.642,374.090 222.596,373.661 222.596 C 373.231 222.596,373.055 222.642,373.270 222.699 M20.371 225.830 C 20.711 225.881,21.213 225.880,21.487 225.827 C 21.762 225.774,21.484 225.732,20.871 225.733 C 20.257 225.735,20.032 225.779,20.371 225.830 M77.232 229.697 C 70.482 233.592,69.866 234.032,69.866 234.965 C 69.866 235.971,70.432 235.731,77.018 231.930 C 83.800 228.015,84.444 227.545,84.330 226.597 C 84.221 225.685,84.084 225.744,77.232 229.697 M361.258 228.850 L 360.603 229.576 361.328 228.920 C 362.004 228.309,362.156 228.125,361.984 228.125 C 361.945 228.125,361.619 228.451,361.258 228.850 M77.122 233.931 C 70.566 237.746,69.866 238.253,69.866 239.186 C 69.866 240.170,70.333 239.971,76.954 236.163 C 83.866 232.186,84.441 231.771,84.330 230.823 C 84.218 229.862,83.817 230.035,77.122 233.931 M77.009 238.189 C 70.054 242.208,69.866 242.344,69.866 243.372 C 69.866 244.374,70.254 244.205,77.443 240.059 C 84.014 236.269,84.526 235.881,84.326 234.842 C 84.188 234.129,83.453 234.466,77.009 238.189 M222.201 238.002 L 221.094 239.174 222.266 238.066 C 223.355 237.037,223.540 236.830,223.373 236.830 C 223.338 236.830,222.811 237.358,222.201 238.002 M162.388 237.946 C 162.868 238.438,163.310 238.839,163.372 238.839 C 163.433 238.839,163.091 238.438,162.612 237.946 C 162.132 237.455,161.690 237.054,161.628 237.054 C 161.567 237.054,161.909 237.455,162.388 237.946 M22.098 241.629 C 22.515 242.059,22.906 242.411,22.967 242.411 C 23.028 242.411,22.738 242.059,22.321 241.629 C 21.905 241.200,21.514 240.848,21.453 240.848 C 21.391 240.848,21.682 241.200,22.098 241.629 M190.458 247.711 C 191.532 247.752,193.290 247.752,194.364 247.711 C 195.438 247.670,194.559 247.636,192.411 247.636 C 190.262 247.636,189.383 247.670,190.458 247.711 M356.130 256.306 L 355.022 257.478 356.194 256.370 C 357.283 255.341,357.468 255.134,357.302 255.134 C 357.267 255.134,356.739 255.661,356.130 256.306 M340.230 264.732 C 340.230 265.162,340.276 265.338,340.332 265.123 C 340.389 264.908,340.389 264.556,340.332 264.342 C 340.276 264.127,340.230 264.302,340.230 264.732 " stroke="none" fill="#cadddc" fill-rule="evenodd"></path><path id="path7" d="M326.883 184.431 L 326.228 185.156 326.953 184.501 C 327.629 183.890,327.781 183.705,327.609 183.705 C 327.570 183.705,327.244 184.032,326.883 184.431 " stroke="none" fill="#d59494" fill-rule="evenodd"></path><path id="path8" d="M347.150 18.527 C 347.150 18.956,347.196 19.132,347.252 18.917 C 347.308 18.703,347.308 18.351,347.252 18.136 C 347.196 17.921,347.150 18.097,347.150 18.527 M356.100 183.371 C 356.101 184.230,356.141 184.554,356.190 184.091 C 356.238 183.628,356.237 182.925,356.188 182.529 C 356.139 182.132,356.099 182.511,356.100 183.371 M329.079 208.259 C 329.079 208.811,329.122 209.037,329.175 208.761 C 329.229 208.485,329.229 208.033,329.175 207.757 C 329.122 207.480,329.079 207.706,329.079 208.259 M353.181 211.049 C 353.184 211.540,353.229 211.715,353.283 211.437 C 353.336 211.159,353.334 210.758,353.278 210.544 C 353.222 210.331,353.179 210.558,353.181 211.049 M334.878 264.844 C 334.880 265.335,334.926 265.509,334.979 265.232 C 335.033 264.954,335.031 264.552,334.975 264.339 C 334.919 264.126,334.875 264.353,334.878 264.844 " stroke="none" fill="#d2c4c4" fill-rule="evenodd"></path></g></svg>